<svg width="331" height="508" viewBox="0 0 331 508" fill="none" xmlns="http://www.w3.org/2000/svg">
<path d="M156.762 112.451C156.762 112.451 108.247 148.05 99.8204 159.09C99.8204 159.09 69.7998 116.369 55.5795 122.129C41.3592 127.889 26.6123 140.37 31.3524 141.33C36.0925 142.29 43.4659 139.89 43.4659 139.89C43.4659 139.89 44.9842 155.25 53.4419 154.29" stroke="black" stroke-width="1.5" stroke-linecap="round" stroke-linejoin="round"/>
<path d="M259.825 280.068C259.825 280.068 281.089 596.386 221.031 746.152L233.576 762.951H126.756C126.756 762.951 115.086 360.611 115.086 273.771L259.825 280.068Z" fill="#CA4141"/>
<path d="M204.351 485.507L199.306 259.43L287.933 273.771C287.933 273.771 374.172 512.867 298.334 571.906C222.496 630.945 88.2004 639.585 88.2004 639.585L70.8209 664.065L53.4416 556.066L204.351 485.507Z" fill="#CA4141"/>
<path d="M53.4414 556.066L204.351 485.507" stroke="black" stroke-width="1.5" stroke-linecap="round" stroke-linejoin="round"/>
<path d="M287.933 273.771C287.933 273.771 374.172 512.866 298.334 571.906C222.496 630.945 88.2004 639.585 88.2004 639.585" stroke="black" stroke-width="1.5" stroke-linecap="round" stroke-linejoin="round"/>
<path d="M183.958 35.3288V76.4366L239.833 88.9536V19.5804L183.958 7.06442V35.3288Z" fill="#ECECEC"/>
<path d="M215.521 49.5513C214.696 49.5513 214.027 48.9417 214.027 48.1897C214.027 47.4377 214.696 46.8281 215.521 46.8281C216.346 46.8281 217.015 47.4377 217.015 48.1897C217.015 48.9417 216.346 49.5513 215.521 49.5513Z" fill="black"/>
<path d="M192.574 49.5513C191.749 49.5513 191.08 48.9417 191.08 48.1897C191.08 47.4377 191.749 46.8281 192.574 46.8281C193.399 46.8281 194.068 47.4377 194.068 48.1897C194.068 48.9417 193.399 49.5513 192.574 49.5513Z" fill="black"/>
<path d="M199.306 56.3122V35.3287H187.773" stroke="black" stroke-width="1.5" stroke-linecap="round" stroke-linejoin="round"/>
<path d="M218.335 35.3286H206.801" stroke="black" stroke-width="1.5" stroke-linecap="round" stroke-linejoin="round"/>
<path d="M236.153 46.0802V53.3672C240.466 53.3672 243.962 50.1806 243.962 46.2499C243.962 46.0315 243.951 45.8156 243.93 45.6021C243.493 41.1825 236.153 41.6426 236.153 46.0802Z" fill="#ECECEC"/>
<path d="M236.153 53.3672C240.466 53.3672 243.962 50.1806 243.962 46.2499" stroke="black" stroke-width="1.5" stroke-linecap="round" stroke-linejoin="round"/>
<path d="M204.352 61.4852C208.717 61.4852 212.255 58.2601 212.255 54.2817" stroke="#CA4141" stroke-width="1.5" stroke-linecap="round" stroke-linejoin="round"/>
<path d="M183.958 76.437L239.833 88.9535" stroke="black" stroke-width="1.5" stroke-linecap="round" stroke-linejoin="round"/>
<path d="M199.306 56.3291L204.351 57.4591" stroke="black" stroke-width="1.5" stroke-linecap="round" stroke-linejoin="round"/>
<path d="M236.152 46.0803C236.152 46.0803 228.504 39.566 228.855 22.9253H183.957" stroke="black" stroke-width="1.5" stroke-linecap="round" stroke-linejoin="round"/>
<path d="M183.957 30.4455C183.957 30.4455 172.852 24.8453 179.173 3.56456C179.173 3.56456 228.329 -6.3558 242.901 17.0051L245.534 8.52474C245.534 8.52474 269.419 46.4461 239.833 65.1668" stroke="black" stroke-width="1.5" stroke-linecap="round" stroke-linejoin="round"/>
<path d="M287.934 162.568V273.771L115.086 312.491V188.64C115.086 144.725 147.981 106.483 194.772 96.0015H194.772C217.212 90.9748 240.941 95.6285 259.126 108.622C277.311 121.616 287.934 141.507 287.934 162.567V162.568Z" fill="#ECECEC"/>
<path d="M130.717 215.903L106.14 126.769C106.14 126.769 57.6859 131.249 47.1523 158.77C47.1523 158.77 23.9785 144.05 0.804749 149.81L39.4277 245.173L101.475 257.66" fill="#CA4141"/>
<path d="M268.411 116.484C268.411 116.484 328.749 163.25 291.53 263.734C254.312 364.218 57.9349 246.375 60.4945 214.452C62.1623 193.652 88.2001 209.939 88.2001 209.939C88.2001 209.939 88.8472 197.319 93.7629 204.692C98.6785 212.065 99.997 215.726 99.997 215.726L212.255 216.372L212.568 170.291" stroke="black" stroke-width="1.5" stroke-linecap="round" stroke-linejoin="round"/>
<path d="M53.4419 217.172C53.4419 217.172 47.1527 294.455 116.674 287.735" stroke="black" stroke-width="1.5" stroke-linecap="round" stroke-linejoin="round"/>
</svg>
