<svg width="89" height="478" viewBox="0 0 89 478" fill="none" xmlns="http://www.w3.org/2000/svg">
<circle cx="44.5" cy="436.5" r="41.5" fill="#18A0FB"/>
<path d="M58.5016 442.535L58.1094 463.488C58.0899 463.856 57.9126 464.216 57.5886 464.357C56.1763 465.127 54.1798 465.971 51.7319 466.369C47.3126 467.138 43.6162 466.204 41.5451 465.462C41.1298 465.334 40.8364 464.897 40.8586 464.476L41.1423 455.243C38.3156 456.128 38.4761 456.033 38.2005 456.109C34.8417 456.776 32.0063 456.52 31.4858 456.387C29.6002 456.13 27.6844 454.446 26.0374 451.668C23.8063 447.963 21.9438 442.272 21.1393 435.53C20.9789 434.572 20.9763 433.622 20.9737 432.672L21.2606 423.244C21.3192 421.137 21.9536 419.113 23.056 417.219C23.5214 416.4 23.9784 415.738 24.535 415.187C30.4895 408.327 40.4298 409.907 42.2046 410.264C42.4123 410.328 42.6227 410.339 42.8303 410.403C44.7491 411.032 46.5821 411.287 48.4207 411.437C49.2624 411.481 49.9074 412.254 49.863 413.096L49.099 426.561C49.5892 426.27 50.4266 424.561 51.4401 424.35C52.1877 424.179 55.8996 423.238 58.1948 424.731C60.5398 426.279 62.275 430.139 62.4271 431.255C62.8585 434.074 61.492 437.693 60.3204 439.899C59.8423 440.787 59.2157 441.659 58.5016 442.535Z" fill="white"/>
<path d="M41.1552 455.284L48.7243 452.389L40.9849 460.854L41.1552 455.284Z" fill="#482D1F"/>
<path d="M53.1331 440.135L53.323 440.234C54.7352 440.132 55.6749 439.989 56.1419 439.802C56.8425 439.523 58.8917 438.681 60.1714 436.428C61.451 434.174 61.7728 431.078 60.1645 428.567C58.606 426.11 55.5189 424.628 52.9492 425.337C51.5038 425.735 50.4984 426.79 50.3876 426.89C50.0493 427.272 49.7657 427.663 49.5294 428.04L19.1677 424.616C19.0883 418.133 23.0677 410.462 27.5917 408.034C28.9508 407.305 33.2465 406.791 36.7153 406.756C42.0696 406.701 47.4 407.961 48.874 408.146C50.0786 408.315 51.2061 407.819 53.3143 407.523C56.7834 407.737 58.7482 407.834 59.9711 409.01C61.6324 410.01 64.2428 411.633 65.2589 412.998C65.891 413.401 67.4316 415.069 68.6375 416.979C72.3922 422.77 71.0563 429.505 70.5076 431.059C70.3196 431.591 68.452 436.825 65.5824 441.524C62.5874 446.429 58.5893 450.797 58.5893 450.797C55.724 450.502 53.9052 446.948 53.1331 440.135ZM22.7973 429.864C22.2767 429.731 22.155 429.039 22.5428 428.69C23.0385 428.294 23.9025 427.918 24.9546 427.973C27.1116 428.087 29.3514 429.63 26.8981 430.133C25.4554 430.479 23.783 430.18 22.7973 429.864ZM33.6154 430.805C33.0949 430.672 32.9732 429.979 33.4135 429.633C33.9092 429.237 34.7732 428.861 35.878 428.919C38.035 429.033 40.272 430.629 37.8214 431.08C36.2707 431.472 34.6565 431.071 33.6154 430.805Z" fill="#482D1F"/>
<path d="M26.7041 433.816C26.6042 434.707 26.3686 436.172 25.8147 436.67C24.8787 437.412 23.8602 434.721 24.6303 433.126C24.9294 432.456 25.3033 432.37 25.7214 432.445C26.3471 432.584 26.7374 433.184 26.7041 433.816ZM36.1295 434.155C36.1349 435.052 36.0571 436.526 35.4977 437.129C34.6613 437.982 33.3216 435.379 33.9366 433.723C34.1832 433.05 34.5598 432.912 34.9806 432.934C35.612 432.967 36.1103 433.521 36.1295 434.155Z" fill="#482D1F"/>
<path d="M31.2426 444.765C31.6164 444.679 32.5247 444.464 32.7131 443.893C32.7186 443.788 32.7796 443.633 32.7325 443.525C32.5415 443.146 31.8991 443.323 30.9494 443.325C29.2603 443.342 27.9008 443.112 27.9008 443.112C27.9008 443.112 28.2135 444.183 28.4599 444.513C28.9969 445.332 30.7082 444.895 31.2426 444.765Z" fill="#482D1F"/>
<path d="M28.2243 434.002L28.2333 433.929L28.2263 433.965L28.2243 434.002ZM27.1468 439.517C27.0164 440.105 27.4456 440.712 28.04 440.843C28.1707 440.863 28.1707 440.863 28.2555 440.874C29.1395 440.989 29.6932 441.043 30.6458 441.094C30.9364 441.109 31.1844 440.886 31.1997 440.595C31.2151 440.305 30.992 440.057 30.7014 440.042C29.7786 439.993 29.2507 439.941 28.3915 439.829L28.222 439.807C28.2207 439.804 28.1761 439.741 28.1783 439.731L29.2676 434.13L29.2765 434.058L29.4405 430.954C29.4558 430.663 29.2327 430.415 28.9421 430.4C28.6516 430.384 28.4036 430.607 28.3883 430.898L28.2263 433.965L27.1468 439.517Z" fill="#482D1F"/>
<circle cx="44.5" cy="308.5" r="41.5" fill="#CA4141"/>
<path d="M31.86 312.803C30.1577 310.598 28.6325 308.525 27.8227 306.819C26.6219 304.336 27.2474 297.094 29.5178 294.205C31.7883 291.316 49.7917 277.954 50.0188 277.938C51.9375 277.633 62.7472 276.364 68.8757 284.038C69.4344 284.683 69.9403 285.39 70.4013 286.27C71.4 288.312 71.9563 290.555 71.9448 292.838L71.8566 303.001C71.8145 304.031 71.7156 305.065 71.556 306.047C70.4096 313.316 68.1498 319.352 65.5687 323.241C63.6623 326.17 61.5022 327.919 59.5188 328.115C58.9549 328.211 55.8847 328.369 52.232 327.54C51.9938 327.479 52.0564 327.53 50.5704 327.003L50.8743 333.7C55.8023 334.731 62.1824 336.153 67.3151 339.894C59.9876 343.793 51.8728 345.547 42.9707 345.157C39.1417 344.99 35.1043 344.476 30.8586 343.616C26 342 25 341.5 21.5 339.5C20.625 339 18.5 337.5 17.8723 336.728C17.8993 336.705 17.9264 336.682 17.9536 336.659C19.8261 335.117 25.2086 334.159 31.0836 333.638L31.4496 312.674L31.86 312.803Z" fill="white"/>
<path d="M50.5721 327.021L42.6536 324.344L50.8402 333.684L50.5721 327.021Z" fill="#482D1F"/>
<path d="M59.6065 278.204C62.787 279.018 66.129 280.662 68.6677 283.841C69.2264 284.487 69.7323 285.193 70.1933 286.074C70.6336 286.974 70.9879 287.913 71.2455 288.878L42.4119 298.933L46.1099 279.511C51.6261 278.707 56.125 278.271 59.6065 278.204Z" fill="#482D1F"/>
<path d="M61.8374 279.425C51.7411 289.312 45.3118 295.771 42.5494 298.803C42.4475 298.951 42.3451 299.103 42.2422 299.26C42.12 298.744 41.6457 297.067 40.3445 295.447C40.223 295.341 39.1703 294.16 37.6503 293.638C34.91 292.803 31.4729 294.241 29.713 296.818C27.8435 299.459 28.0778 302.81 29.3354 305.289C30.5929 307.769 32.7772 308.815 33.5392 309.104L36.6043 309.688L36.9138 309.547C34.6606 314.315 32.6065 318.606 31.2918 318.916C28.9012 319.481 25.2148 314.376 22.612 311.903C20.9579 310.332 16.9844 305.19 15.7958 298.028C15.4426 295.659 14.1304 287.625 19.0652 281.295C20.7873 279.096 22.8327 277.945 23.6732 277.445C26.5334 275.921 37.5141 275.049 45.9505 274.588C44.3435 272.098 43.3665 266.938 43.0194 259.109C43.0079 258.851 43.0843 258.597 43.2358 258.389C43.6056 257.88 44.3175 257.768 44.8261 258.137C51.8155 263.219 56.2637 266.91 58.1707 269.212C59.5708 266.984 63.6563 264.388 70.4273 261.425C70.6652 261.321 70.9316 261.301 71.1823 261.369C71.789 261.534 72.1472 262.159 71.9823 262.766C69.174 273.098 67.0373 278.526 65.5721 279.05C64.7668 279.337 63.5219 279.463 61.8374 279.425Z" fill="#750C0C"/>
<path d="M69.0921 304.985C69.2148 304.291 69.8605 303.733 70.5498 303.799C71.008 303.824 71.3726 304.14 71.5985 304.924C71.9078 306.899 69.9248 309.548 69.2168 308.4C68.7109 307.693 68.9365 306.023 69.0921 304.985ZM56.5979 304.297C56.7206 303.603 57.3663 303.045 58.0556 303.111C58.5138 303.136 58.8783 303.452 59.1043 304.235C59.4136 306.211 57.4306 308.86 56.7226 307.711C56.2167 307.005 56.4422 305.335 56.5979 304.297Z" fill="#482D1F"/>
<path d="M64.8574 305.722L65.3113 311.396C65.3127 311.417 65.2323 311.51 65.2052 311.512C64.8946 311.533 64.5757 311.535 64.0769 311.522C63.98 311.519 63.8787 311.516 63.7328 311.512C63.5489 311.506 63.4482 311.503 63.3518 311.5C63.0216 311.49 62.7483 311.483 62.4563 311.478C62.142 311.472 61.8829 311.723 61.8775 312.037C61.8722 312.352 62.1227 312.611 62.437 312.616C62.7232 312.621 62.9916 312.628 63.317 312.638C63.4127 312.64 63.5126 312.644 63.6969 312.65C63.8445 312.654 63.9474 312.657 64.0465 312.66C64.5788 312.674 64.93 312.672 65.2846 312.647C65.9389 312.602 66.4922 311.965 66.4465 311.311L65.9922 305.631C65.9671 305.317 65.6928 305.084 65.3794 305.109C65.0661 305.134 64.8323 305.408 64.8574 305.722Z" fill="#482D1F"/>
<path d="M61.5731 315.874C61.1637 315.731 60.1667 315.345 60.0702 314.781C60.0622 314.667 59.9935 314.501 60.1031 314.436C60.3672 314.132 61.0684 314.369 62.1104 314.581C63.9592 314.908 65.4435 314.919 65.4435 314.919C65.4435 314.919 64.9392 315.867 64.6144 316.118C63.9806 316.847 62.1608 316.118 61.5731 315.874Z" fill="#482D1F"/>
<path d="M47.7723 302.763L44.3733 301.976C43.9139 301.869 43.6278 301.41 43.7343 300.951C43.8407 300.492 44.2994 300.206 44.7588 300.312L48.4136 301.159C49.6775 298.776 52.1057 297.079 54.995 296.877C59.4481 296.565 63.3106 299.923 63.6219 304.376C63.6294 304.482 63.6347 304.588 63.638 304.694L65.3686 304.785C65.8891 301.087 68.9344 298.127 72.8092 297.856C77.2624 297.545 81.1248 300.903 81.4362 305.356C81.7476 309.809 78.39 313.671 73.9369 313.983C69.4866 314.294 65.6262 310.941 65.3105 306.492L63.5111 306.397C62.8638 309.944 59.8841 312.74 56.1227 313.003C51.6695 313.314 47.8071 309.957 47.4957 305.504C47.4293 304.554 47.5298 303.631 47.7723 302.763ZM49.6048 302.657C49.2811 303.5 49.132 304.425 49.1992 305.385C49.4448 308.897 52.4912 311.545 56.0035 311.3C59.5159 311.054 62.1641 308.008 61.9185 304.495C61.6729 300.983 58.6264 298.335 55.1141 298.58C52.7025 298.749 50.6983 300.238 49.7584 302.292C49.7555 302.309 49.7519 302.327 49.7478 302.345C49.7209 302.461 49.6713 302.566 49.6048 302.657ZM66.9977 305.879C66.9969 306.04 67.002 306.201 67.0134 306.364C67.259 309.877 70.3054 312.525 73.8178 312.279C77.3301 312.034 79.9783 308.987 79.7327 305.475C79.4871 301.963 76.4407 299.314 72.9284 299.56C69.6949 299.786 67.1937 302.386 67.0086 305.538C67.019 305.599 67.0229 305.662 67.0195 305.726C67.0167 305.779 67.0093 305.83 66.9977 305.879Z" fill="#482D1F"/>
<circle cx="44.5" cy="169.5" r="41.5" fill="#CA4141"/>
<path d="M50.0362 191C49.7764 190.894 49.199 202.601 49.199 202.601C48.7648 204.096 47.2835 205.032 45.7471 204.782C42.2806 204.218 39.8769 203.669 38.5362 203.135C35.8779 202.075 33.8539 200.892 32.4641 199.586C31.787 198.949 31.5257 197.986 31.7885 197.094L34.5362 184.5L34.5362 177.5L33.6151 171.705C33.1376 171.351 32.662 170.927 32.2228 170.422C30.3717 168.216 29.9695 159.456 31.1633 156.284C32.3522 153.296 44.0122 158.106 44.0517 156.628C44.078 155.643 44.28 150.391 44.6575 140.871C44.6839 139.886 45.5057 139.107 46.4908 139.133C48.7073 139.192 50.8057 139.064 53.1602 138.572C53.4065 138.579 53.6544 138.524 53.9007 138.53C56.0023 138.278 67.7287 137.544 73.9051 146.212C74.501 146.967 74.9722 147.781 75.4401 148.717C76.5524 150.904 77.0407 153.381 76.8518 155.841L76.1263 166.851C76.0351 167.957 75.8824 169.062 75.6681 170.165C72.7186 183.704 66.4929 193.026 61.3094 193.319C60.6921 193.364 57.3639 193.398 53.5129 192.248C53.2084 192.116 50.8387 191.325 50.8387 191.325C50.8387 191.325 50.296 191.106 50.0362 191Z" fill="white"/>
<path d="M76.027 167.719C76.3903 169.262 76.7424 170.546 77.2499 171.908C77.8396 173.588 78.7664 176.505 80.0304 180.659C80.8749 183.503 80.9241 185.42 80.1779 186.409C79.3832 187.496 69.4099 188.595 68.4958 188.508C68.3299 188.492 68.1649 188.477 68.0009 188.463C71.1024 184.392 73.9471 177.917 75.6717 170.001C75.8194 169.241 75.9378 168.48 76.027 167.719ZM78.1134 163.708C76.8793 163.943 74.9073 164.048 73.3105 163.541C70.5475 162.591 73.3327 161.139 75.8568 161.285C77.088 161.358 78.0067 161.921 78.5565 162.419C78.9836 162.854 78.7304 163.591 78.1134 163.708ZM64.803 162.956C63.5689 163.191 61.5963 163.358 59.8769 162.788C57.1133 161.9 59.8991 160.386 62.4232 160.532C63.716 160.606 64.6347 161.169 65.1845 161.666C65.6732 162.102 65.42 162.839 64.803 162.956ZM37.6967 174.463L38.4395 185.616C38.3877 185.613 38.336 185.609 38.2844 185.606C38.2854 185.618 38.2859 185.625 38.2859 185.625C38.2859 185.625 38.277 185.618 38.2595 185.604C25.7981 184.755 17.4852 180.437 11.8081 177.788C10.8183 177.328 9.67318 176.658 9.05492 175.382C8.19606 173.634 8.86303 171.679 9.71577 169.315C10.2396 167.899 11.1076 165.849 12.6821 163.657C14.1782 161.663 16.1822 158.671 18.7718 154.613C18.9828 151.267 19.9365 147.022 23.0513 143.496C24.8928 141.45 26.9542 140.396 27.8277 139.988C32.6328 137.713 36.2342 138.98 45.5996 138.984C47.5099 138.973 55.5073 138.421 55.7536 138.428C57.8552 138.176 68.0897 137.862 73.9049 146.212C74.208 146.628 74.5121 147.072 74.8172 147.544C72.9056 148.509 71.3929 149.08 70.2791 149.255C65.6366 150.056 61.6543 149.21 59.2112 148.405C58.4944 149.865 57.4649 151.501 56.1291 153.067C52.4533 157.648 48.0419 159.931 45.1621 161.073C44.4388 160.293 43.1951 159.015 41.9135 157.989C41.7321 157.861 40.4622 156.965 38.803 156.797C35.8542 156.472 32.7115 158.791 31.5226 161.778C30.2689 164.887 31.1652 168.238 32.9564 170.381C34.5461 172.283 36.7015 172.986 37.6795 173.263C37.6827 173.657 37.6886 174.058 37.6967 174.463Z" fill="#333333"/>
<path d="M72.4366 167.505C72.5667 166.767 73.1883 166.157 73.9268 166.225C74.4195 166.23 74.8484 166.48 75.0251 167.344C75.4996 169.32 73.5635 172.197 72.7115 171.08C72.1646 170.274 72.2422 168.55 72.4366 167.505ZM62.5155 166.971C62.6455 166.233 63.2671 165.622 64.0056 165.691C64.4984 165.695 64.9272 165.946 65.104 166.81C65.5785 168.785 63.6424 171.662 62.7904 170.546C62.1819 169.739 62.321 168.016 62.5155 166.971Z" fill="#333333"/>
<path d="M66.3314 179.968C65.9014 179.841 64.8573 179.523 64.6793 178.782C64.6805 178.659 64.6206 178.474 64.6833 178.351C64.9337 177.922 65.7321 178.176 66.8395 178.309C68.8093 178.451 70.4118 178.342 70.4118 178.342C70.4118 178.342 69.9076 179.57 69.5963 179.936C68.9718 180.854 67.0072 180.159 66.3314 179.968Z" fill="#333333"/>
<path d="M69.6573 174.319C69.6471 174.318 69.5832 174.322 69.5192 174.325C68.9046 174.359 68.45 174.361 66.8017 174.346C66.4616 174.343 66.1833 174.616 66.1801 174.956C66.177 175.296 66.4502 175.575 66.7903 175.578C68.4683 175.593 68.936 175.591 69.5878 175.555C69.6566 175.551 69.7254 175.547 69.7945 175.542C70.5201 175.431 70.9859 174.811 70.9921 174.138L70.9883 174.064L70.2534 167.509L70.3475 163.918C70.3564 163.578 70.088 163.295 69.7479 163.286C69.4079 163.277 69.125 163.546 69.1161 163.886L69.0208 167.519L69.0245 167.604L69.7587 174.153C69.7486 174.243 69.6929 174.314 69.6573 174.319Z" fill="#333333"/>
<path d="M49.5363 198.5L46.0363 189L50.0363 191L49.5363 198.5Z" fill="#333333"/>
<circle cx="47.5" cy="41.5" r="41.5" fill="#CA4141"/>
<path d="M32.191 45.9425C32.0916 45.8506 31.9933 45.7548 31.8965 45.6547C30.155 43.8194 29.1357 40.9027 30.0965 38.0832C30.9912 35.367 33.6558 33.1668 36.2978 33.2782C37.7858 33.3239 41.7805 34.2382 41.7544 32.9131L41.4644 18.8882C41.447 18.0048 42.1347 17.2504 43.0211 17.2331C44.9638 17.1611 46.869 16.9198 48.918 16.3631C49.1425 16.3315 49.3669 16.2999 49.5914 16.2683C51.4477 15.9669 61.8658 14.689 67.8359 22.0361C68.3799 22.644 68.8578 23.3553 69.3241 24.1755C70.3979 26.051 70.9451 28.202 70.9339 30.4047L70.8951 40.2078C70.8464 41.1945 70.7976 42.1811 70.6395 43.1563C68.7448 55.3546 63.6895 63.9711 59.1021 64.4824C58.5381 64.5886 55.5882 64.7755 52.0798 63.9672C51.76 63.8791 52.0152 64.0138 47.4402 62.407L46.6844 69.846C44.5013 69.2767 42.2131 68.9525 39.8501 68.9058L30.4039 68.6621L31.5973 57.3462L32.1146 52.4416L32.191 45.9425Z" fill="white"/>
<path d="M47.0329 66.4805L41.9241 60.0022L47.4588 62.4045L47.0329 66.4805Z" fill="black"/>
<path d="M42.6299 37.3111C42.4048 36.9043 41.5427 35.4772 39.9697 34.3736C39.8172 34.247 38.6227 33.5133 37.1348 33.4675C34.4927 33.3557 31.8281 35.5635 30.9335 38.2891C29.9727 41.1183 30.9372 44.0393 32.6787 45.8809C34.0234 47.3029 35.6561 47.8652 36.655 48.1072C36.6452 49.9749 36.6839 52.0039 36.7712 54.1942C32.5071 53.9153 28.7496 52.0569 25.4989 48.6192C24.1546 47.2063 20.5853 43.2928 19.4734 37.0391C19.3457 36.2438 19.0921 34.7244 19.0699 32.8427C10.6093 32.9818 3.76693 29.2026 1.25065 23.8407C-1.09358 18.7917 0.533407 12.7461 0.764741 11.8902C3.08573 3.27706 10.9007 3.37595 11.5694 3.35888C11.5694 3.35888 22.8356 -0.554652 31.741 17.4652C31.7467 17.4767 31.7523 17.4883 31.758 17.4998C34.311 17.3 37.4077 17.4802 42.1258 17.1948C43.8497 17.0995 46.3643 16.6783 49.4523 16.2289C49.671 16.2519 52.311 15.9835 52.5355 15.9518C53.6509 15.9518 57.3886 15.5994 62.2217 17.7638C67.0548 19.9281 68.8386 23.1829 68.7667 23.3191C68.6286 23.5811 66.161 24.6968 64.6875 25.0395C60.552 25.987 56.9602 25.4436 54.7527 24.8799C54.1716 26.201 53.3487 27.7178 52.2524 29.2059C49.0787 33.627 45.0787 35.9156 42.5836 37.0355C42.5989 37.1274 42.6143 37.2192 42.6299 37.3111Z" fill="black"/>
<path d="M67.2996 39.6813C67.3631 38.9289 67.9625 38.3691 68.7175 38.3738C69.1797 38.3415 69.6081 38.6568 69.8375 39.4463C70.3203 41.3689 68.4905 44.2588 67.6553 43.1089C67.1411 42.3968 67.2561 40.7201 67.2996 39.6813ZM55.1559 39.4281C55.2194 38.6757 55.8188 38.1159 56.5739 38.1206C57.036 38.0883 57.4645 38.4036 57.6938 39.1931C58.1766 41.1158 56.3468 44.0056 55.5117 42.8557C54.9975 42.1436 55.1124 40.4669 55.1559 39.4281Z" fill="black"/>
<path d="M64.4779 40.2682L65.3435 45.5521C65.3928 46.2238 64.9256 46.8783 64.2842 46.9231C63.907 46.9794 63.6639 46.9964 62.6863 47.0466C62.2491 47.0691 61.9497 47.0863 61.5966 47.111C61.2936 47.1322 61.0309 46.9038 61.0097 46.6009C60.9885 46.298 61.2169 46.0352 61.5199 46.014C61.8811 45.9888 62.1865 45.9711 62.6299 45.9484C63.5683 45.9002 63.7966 45.8843 64.1668 45.8305C64.1914 45.8272 64.2563 45.7363 64.2524 45.6794L63.3927 40.446C63.3436 40.1463 63.5468 39.8636 63.8464 39.8145C64.1461 39.7654 64.4288 39.9685 64.4779 40.2682Z" fill="black"/>
<path d="M61.0141 50.4794C60.6398 50.385 59.7219 50.0272 59.5754 49.4345C59.567 49.3145 59.5021 49.1382 59.5502 49.0745C59.7383 48.7599 60.4346 48.9524 61.388 49.0666C63.0816 49.2496 64.4928 49.1509 64.4928 49.1509C64.4928 49.1509 64.0937 50.2038 63.8534 50.522C63.3287 51.2822 61.6058 50.6792 61.0141 50.4794Z" fill="black"/>
<path d="M46.9106 37.1331C47.8926 34.3124 50.4784 32.2037 53.6465 31.9822C57.8875 31.6856 61.5659 34.8832 61.8624 39.1242C61.8667 39.1855 61.8703 39.2468 61.8731 39.3079C61.9424 39.2944 62.0145 39.2897 62.0881 39.2949L63.6363 39.4032C63.9758 35.7124 66.9477 32.7056 70.765 32.4387C75.006 32.1421 78.6844 35.3397 78.9809 39.5807C79.2775 43.8217 76.0799 47.5001 71.8389 47.7967C67.7337 48.0837 64.1555 45.0967 63.6618 41.0585L61.9731 40.9404C61.9067 40.9358 61.8427 40.9234 61.7819 40.9042C61.2213 44.3499 58.3538 47.0861 54.7204 47.3402C50.4794 47.6367 46.801 44.4391 46.5045 40.1981C46.4699 39.7031 46.4829 39.2157 46.5396 38.7405L42.5362 37.7574C42.0939 37.6487 41.8233 37.2021 41.9319 36.7597C42.0406 36.3174 42.4872 36.0468 42.9296 36.1554L46.9106 37.1331ZM65.259 40.3715C65.2614 40.4274 65.2646 40.4834 65.2685 40.5396C65.5015 43.8718 68.3917 46.3842 71.7239 46.1512C75.0561 45.9182 77.5685 43.028 77.3355 39.6958C77.1024 36.3636 74.2123 33.8512 70.8801 34.0842C67.6757 34.3083 65.2295 36.9895 65.2537 40.1582C65.2631 40.2183 65.2659 40.2803 65.2615 40.3436C65.2608 40.3529 65.26 40.3623 65.259 40.3715ZM54.6054 45.6947C57.9376 45.4617 60.4499 42.5715 60.2169 39.2393C59.9839 35.9071 57.0938 33.3947 53.7616 33.6277C50.4294 33.8607 47.917 36.7509 48.15 40.0831C48.383 43.4153 51.2732 45.9277 54.6054 45.6947Z" fill="black"/>
</svg>
