<svg width="390" height="733" viewBox="0 0 390 733" fill="none" xmlns="http://www.w3.org/2000/svg">
<g clip-path="url(#clip0)">
<path d="M205.855 151.381C205.855 151.381 226.734 170.887 256.57 195.95" stroke="black" stroke-width="1.5" stroke-linecap="round" stroke-linejoin="round"/>
<path d="M239.962 388.566C239.962 388.566 353.208 715.649 239.962 907.193L252.026 941.205L154.739 900.032L166.917 627.932C166.917 627.932 90.1115 457.616 97.6733 424.625C105.235 391.635 107.001 343.433 107.001 343.433" fill="#E2E2E2"/>
<path d="M208.115 348.259C208.115 348.259 232.208 741.494 164.16 927.677L178.374 948.561H57.3435C57.3435 948.561 44.1211 448.388 44.1211 340.431L208.115 348.259Z" fill="#EFEFEF"/>
<path d="M174.988 44.0083V95.112L111.68 110.673V24.4305L174.988 8.87109V44.0083Z" fill="#EFEFEF"/>
<path d="M139.225 61.6894C140.16 61.6894 140.918 60.9315 140.918 59.9967C140.918 59.0618 140.16 58.304 139.225 58.304C138.29 58.304 137.532 59.0618 137.532 59.9967C137.532 60.9315 138.29 61.6894 139.225 61.6894Z" fill="black"/>
<path d="M165.224 61.6894C166.159 61.6894 166.917 60.9315 166.917 59.9967C166.917 59.0618 166.159 58.304 165.224 58.304C164.289 58.304 163.531 59.0618 163.531 59.9967C163.531 60.9315 164.289 61.6894 165.224 61.6894Z" fill="black"/>
<path d="M157.598 70.0942V44.0083H170.665" stroke="black" stroke-width="1.5" stroke-linecap="round" stroke-linejoin="round"/>
<path d="M136.036 44.0081H149.105" stroke="black" stroke-width="1.5" stroke-linecap="round" stroke-linejoin="round"/>
<path d="M115.849 57.3741V66.433C110.962 66.433 107.001 62.4717 107.001 57.5851C107.001 57.3136 107.013 57.0452 107.037 56.7797C107.533 51.2855 115.849 51.8575 115.849 57.3741Z" fill="#EFEFEF"/>
<path d="M115.849 66.4331C110.962 66.4331 107.001 62.4718 107.001 57.5852" stroke="black" stroke-width="1.5" stroke-linecap="round" stroke-linejoin="round"/>
<path d="M151.881 76.5252C146.935 76.5252 142.926 72.5159 142.926 67.5701" stroke="#CA4141" stroke-width="1.5" stroke-linecap="round" stroke-linejoin="round"/>
<path d="M174.987 95.1125L111.679 110.673" stroke="black" stroke-width="1.5" stroke-linecap="round" stroke-linejoin="round"/>
<path d="M157.597 70.1152L151.881 71.5201" stroke="black" stroke-width="1.5" stroke-linecap="round" stroke-linejoin="round"/>
<path d="M115.849 56.114C115.849 56.114 123.917 41.3944 124.315 34.8303L126.503 44.0082C126.503 44.0082 141.422 39.4053 150.572 28.0672V39.7368C150.572 39.7368 168.172 36.0237 172.699 24.2878V35.2281C172.699 35.2281 178.221 31.4487 179.613 25.6802" stroke="#CA4141" stroke-width="1.5" stroke-linecap="round" stroke-linejoin="round"/>
<path d="M174.987 45.1737C174.987 45.1737 207.153 11.0493 163.531 1.6117C132.271 -5.15135 115.848 11.5574 115.848 11.5574C115.848 11.5574 105.02 16.7291 100.644 25.4813C96.2681 34.2335 94.4674 56.7107 111.679 73.4194" stroke="#CA4141" stroke-width="1.5" stroke-linecap="round" stroke-linejoin="round"/>
<path d="M44.1211 202.187V340.431L239.962 388.566V234.599C239.962 180.005 202.692 132.465 149.676 119.435H149.675C124.251 113.186 97.3647 118.971 76.7605 135.124C56.1563 151.277 44.1211 176.006 44.1211 202.187V202.187Z" fill="#CA4141"/>
<path d="M174.987 306.57C174.987 306.57 175.096 192.71 239.962 191.982C304.828 191.254 282.255 116.931 282.255 116.931L388.569 141.01C388.569 141.01 406.045 242.954 316.479 273.52C270.709 289.14 290.294 395.66 290.294 395.66L172.699 382.036V366.335" fill="#EFEFEF"/>
<path d="M388.568 141.01C388.568 141.01 406.045 242.955 316.479 273.521C270.709 289.14 290.294 395.66 290.294 395.66" stroke="black" stroke-width="1.5" stroke-linecap="round" stroke-linejoin="round"/>
<path d="M60.8968 151.381C60.8968 151.381 -0.623943 231.953 0.171714 326.636C0.967371 421.319 147.368 412.567 203.063 336.979C203.063 336.979 239.663 311.519 234.094 305.949C228.524 300.379 204.143 305.704 204.143 305.704C204.143 305.704 208.633 292.821 201.87 296.003C195.107 299.186 186.042 305.835 186.042 305.835L97.1494 311.741L117.417 228.771" stroke="black" stroke-width="1.5" stroke-linecap="round" stroke-linejoin="round"/>
<path d="M208.115 348.259C208.115 348.259 232.208 741.494 164.16 927.677" stroke="black" stroke-width="1.5" stroke-linecap="round" stroke-linejoin="round"/>
<path d="M60.8968 151.381C60.8968 151.381 -0.623943 231.953 0.171714 326.636C0.967371 421.319 147.368 412.567 203.063 336.979C203.063 336.979 239.663 311.519 234.094 305.949C228.524 300.379 204.143 305.704 204.143 305.704C204.143 305.704 208.633 292.821 201.87 296.003C195.107 299.186 186.042 305.835 186.042 305.835L97.1494 311.741L117.417 228.771" stroke="black" stroke-width="1.5" stroke-linecap="round" stroke-linejoin="round"/>
<path d="M45.7212 390.068V457.119C140.601 434.837 188.208 353.691 188.208 353.691L188.204 353.69C149.466 390.252 87.797 404.569 45.7212 390.068Z" fill="black"/>
<path d="M272.086 374.972C272.086 374.972 340.711 394.068 354.436 362.441C368.161 330.813 343.695 243.689 343.695 243.689C343.695 243.689 350.856 228.174 347.275 223.997C343.695 219.82 340.114 223.997 340.114 223.997C340.114 223.997 334.445 196.547 325.793 198.635C317.14 200.724 311.084 249.021 307.815 282.694" stroke="black" stroke-width="1.5" stroke-linecap="round" stroke-linejoin="round"/>
</g>
<defs>
<clipPath id="clip0">
<rect x="0.164062" width="389.781" height="948.561" fill="white"/>
</clipPath>
</defs>
</svg>
