<svg width="328" height="240" viewBox="0 0 328 240" fill="none" xmlns="http://www.w3.org/2000/svg">
<path d="M161.095 39.4899V80.6162L112.784 93.1385V23.7357L161.095 11.2134V39.4899Z" fill="#CA4141"/>
<path d="M133.804 53.7191C134.518 53.7191 135.096 53.1092 135.096 52.3568C135.096 51.6045 134.518 50.9946 133.804 50.9946C133.091 50.9946 132.513 51.6045 132.513 52.3568C132.513 53.1092 133.091 53.7191 133.804 53.7191Z" fill="white"/>
<path d="M153.645 53.7191C154.358 53.7191 154.936 53.1092 154.936 52.3568C154.936 51.6045 154.358 50.9946 153.645 50.9946C152.931 50.9946 152.353 51.6045 152.353 52.3568C152.353 53.1092 152.931 53.7191 153.645 53.7191Z" fill="white"/>
<path d="M147.824 60.4832V39.4897H157.796" stroke="white" stroke-width="1.5" stroke-linecap="round" stroke-linejoin="round"/>
<path d="M131.371 39.4902H141.344" stroke="white" stroke-width="1.5" stroke-linecap="round" stroke-linejoin="round"/>
<path d="M115.966 50.2461V57.5362C114.175 57.5362 112.457 56.7861 111.191 55.4507C109.925 54.1154 109.214 52.3043 109.214 50.4159C109.214 50.1975 109.223 49.9814 109.241 49.7678C109.62 45.3463 115.966 45.8067 115.966 50.2461Z" fill="#CA4141"/>
<path d="M115.966 57.5366C112.237 57.5366 109.214 54.3487 109.214 50.4163" stroke="white" stroke-width="1.5" stroke-linecap="round" stroke-linejoin="round"/>
<path d="M143.462 65.6583C139.688 65.6583 136.629 62.4317 136.629 58.4517" stroke="#CA4141" stroke-width="1.5" stroke-linecap="round" stroke-linejoin="round"/>
<path d="M161.095 80.616L112.784 93.1379" stroke="white" stroke-width="1.5" stroke-linecap="round" stroke-linejoin="round"/>
<path d="M147.824 60.5L143.462 61.6305" stroke="white" stroke-width="1.5" stroke-linecap="round" stroke-linejoin="round"/>
<path d="M117.417 45.981C117.417 45.981 125.007 38.6176 126.677 30.1337C126.677 30.1337 139.276 33.4952 146.258 32.0546V27.5725C146.258 27.5725 154.759 31.0941 163.259 29.4934V24.6912" stroke="white" stroke-width="1.5" stroke-linecap="round" stroke-linejoin="round"/>
<path d="M163.259 20.6891H168.572C168.572 20.6891 158.25 -4.28245 118.48 6.76268L121.364 1C121.364 1 109.524 3.08097 109.069 14.1261C109.069 14.1261 106.792 12.6854 102.845 16.6873L106.184 18.7682C106.184 18.7682 98.435 47.5816 112.784 63.2689" stroke="white" stroke-width="1.5" stroke-linecap="round" stroke-linejoin="round"/>
<path d="M65.3204 166.784V278.035L214.77 316.771V192.867C214.77 148.933 186.328 110.675 145.871 100.189H145.871C126.469 95.1603 105.952 99.816 90.2281 112.815C74.5047 125.814 65.3204 145.714 65.3204 166.784V166.784Z" fill="#CA4141"/>
<path d="M93.1853 110.51C93.1853 110.51 9.18798 176.442 1.29467 262.241C-6.59863 348.041 146.459 381.977 175.275 235.989C175.275 235.989 190.127 226.385 185.269 211.658C185.269 211.658 197.127 202.694 193.627 199.492C190.127 196.291 72.3344 253.917 72.3344 253.917L115.966 203.974" stroke="white" stroke-width="1.5" stroke-linecap="round" stroke-linejoin="round"/>
<path d="M197.522 136.827C197.522 136.827 237.94 176.629 248.262 223.37C248.262 223.37 255.702 146.516 264.81 136.827C273.917 127.138 278.168 136.827 278.168 136.827C278.168 136.827 309.741 121.896 309.741 132.521C309.741 143.146 289.097 154.671 289.097 154.671C289.097 154.671 330.491 363.408 214.771 308.983" stroke="white" stroke-width="1.5" stroke-linecap="round" stroke-linejoin="round"/>
<path d="M284.96 122.016C308.496 122.016 327.576 101.895 327.576 77.0752C327.576 52.255 308.496 32.1343 284.96 32.1343C261.424 32.1343 242.344 52.255 242.344 77.0752C242.344 101.895 261.424 122.016 284.96 122.016Z" fill="#CA4141"/>
</svg>
