<svg width="175" height="755" viewBox="0 0 175 755" fill="none" xmlns="http://www.w3.org/2000/svg">
<path d="M35.0547 53.0874L19.569 48.2208L19.0774 145.253H36.9784L35.0547 141.008C43.7115 110.35 35.0547 53.0874 35.0547 53.0874Z" fill="#CA4141"/>
<path d="M30.5848 112.74C30.5848 90.0135 25.9127 71.59 20.1495 71.59C19.9133 71.5913 19.6782 71.623 19.4501 71.6841L19.0774 145.254H26.5458C29.0032 137.725 30.5848 125.962 30.5848 112.74Z" fill="black"/>
<path d="M29.9492 54.2737C29.9492 54.2737 33.6466 113.871 23.2037 142.088L25.3851 145.254H6.81119C6.81119 145.254 5 72.2751 5 55.9136L29.9492 54.2737Z" fill="#CA4141"/>
<path d="M26.0051 8.16249V15.9078L16.2896 18.266V5.19538L26.0051 2.83716V8.16249V8.16249Z" fill="#EDEEEF"/>
<path d="M19.5691 12.2161C19.5691 12.2161 21.9349 11.4473 22.7133 12.6231C22.7133 12.6231 23.7005 11.5293 24.9722 12.4121" stroke="#CA4141" stroke-width="0.5" stroke-linecap="round" stroke-linejoin="round"/>
<path d="M20.5169 10.8422C20.6603 10.8422 20.7766 10.7273 20.7766 10.5856C20.7766 10.444 20.6603 10.3291 20.5169 10.3291C20.3734 10.3291 20.2571 10.444 20.2571 10.5856C20.2571 10.7273 20.3734 10.8422 20.5169 10.8422Z" fill="black"/>
<path d="M24.5066 10.8422C24.6501 10.8422 24.7664 10.7273 24.7664 10.5856C24.7664 10.444 24.6501 10.3291 24.5066 10.3291C24.3631 10.3291 24.2468 10.444 24.2468 10.5856C24.2468 10.7273 24.3631 10.8422 24.5066 10.8422Z" fill="black"/>
<path d="M23.3362 12.1161V8.16248H25.3417" stroke="black" stroke-width="0.5"/>
<path d="M20.0273 8.16249H22.0329" stroke="black" stroke-width="0.5"/>
<path d="M16.9291 10.1881V11.561C16.1792 11.561 15.5713 10.9607 15.5713 10.2201C15.5713 10.1789 15.5731 10.1382 15.5768 10.098C15.6529 9.26531 16.9291 9.35201 16.9291 10.1881Z" fill="#EDEEEF"/>
<path d="M16.9291 11.5611C16.1792 11.5611 15.5713 10.9607 15.5713 10.2201" stroke="black" stroke-width="0.5"/>
<path d="M22.1558 13.0906C21.7316 13.0906 21.3877 12.751 21.3877 12.332" stroke="#CA4141" stroke-width="0.5" stroke-linecap="round" stroke-linejoin="round"/>
<path d="M19.0773 17.5892L16.2893 18.266" stroke="black" stroke-width="0.5"/>
<path d="M23.3362 12.1191L22.459 12.332" stroke="black" stroke-width="0.5" stroke-linecap="round"/>
<path d="M35.0546 32.1355V53.0874L5 60.3825V37.0478C5 28.7738 10.7197 21.5687 18.8558 19.5938H18.8558C22.7576 18.6468 26.8837 19.5236 30.0457 21.9717C33.2077 24.4198 35.0547 28.1676 35.0547 32.1355L35.0546 32.1355Z" fill="#EDEEEF"/>
<path d="M17.4069 10.5856C17.4069 10.5856 15.9416 15.3362 19.3605 17.8082C22.5437 20.1098 27.5613 18.7622 26.3741 13.3786C26.1275 12.2551 26.0038 11.1088 26.0049 9.9592V9.63843" stroke="#CA4141" stroke-width="0.5" stroke-linecap="round" stroke-linejoin="round"/>
<path d="M16.2503 9.51646C16.2503 9.51646 13.0182 3.67109 17.995 2.61789C17.995 2.61789 20.0187 0.121436 22.8974 1.33066C25.7761 2.53988 27.1586 1.69109 27.198 2.83712C27.2375 3.98314 27.3791 5.89449 26.0049 6.86967" stroke="#CA4141" stroke-width="0.5" stroke-linecap="round" stroke-linejoin="round"/>
<path d="M18.2615 9.51561L19.0772 6.23194C19.0772 6.23194 25.0177 6.32238 26.0048 4.72461" stroke="#CA4141" stroke-width="0.5" stroke-linecap="round" stroke-linejoin="round"/>
<path d="M29.9494 54.2737C29.9494 54.2737 33.6468 113.871 23.2039 142.088L25.3852 145.254" stroke="black" stroke-width="0.5"/>
<path d="M11.1593 23.569C11.1593 23.569 6.11232 43.252 12.2175 50.6078C18.3228 57.9636 46.8952 53.6225 55.1983 45.6637C55.1983 45.6637 58.1288 44.9402 58.7394 43.4932C58.7394 43.4932 61.5478 45.5432 61.4257 44.2167C61.3036 42.8902 60.3267 38.7566 55.3204 39.7984C50.3142 40.8403 26.0051 41.3226 26.0051 41.3226L26.5524 30.9522" stroke="black" stroke-width="0.5"/>
<path d="M33.6692 26.3331C33.6692 26.3331 37.3412 33.362 36.8677 41.0202" stroke="black" stroke-width="0.5"/>
<path d="M35.6763 57.6306C35.6763 57.6306 45.4594 61.4678 49.5961 49.2849" stroke="black" stroke-width="0.5"/>
<path d="M40.1866 40.8972C40.1866 40.8972 50.5526 35.6097 52.1456 37.8257L53.7386 40.0416" stroke="black" stroke-width="0.5"/>
<path d="M137.065 1H70.3568V43.0659L48.9071 64.249V145.253H40.1865" stroke="black" stroke-width="0.5"/>
<path d="M51.2744 145.706H165" stroke="black" stroke-width="0.5"/>
<path d="M151.55 144.822C151.55 144.822 153.509 141.398 148.535 140.654C145.579 140.203 142.554 140.563 139.792 141.696C139.792 141.696 143.259 137.528 137.833 135.741C132.406 133.955 126.829 138.123 126.829 138.123C126.829 138.123 132.255 128.149 128.035 127.405C123.814 126.661 121.553 130.978 121.553 130.978C121.553 130.978 122.005 118.622 113.262 118.324C104.52 118.027 105.424 134.104 105.424 134.104C105.424 134.104 101.656 126.958 95.3246 126.661C88.9936 126.363 92.1591 138.63 92.1591 138.63C92.1591 138.63 90.9532 135.741 86.7325 135.444C82.5119 135.146 82.8134 138.639 82.8134 138.639C82.8134 138.639 77.3868 131.127 71.3573 131.573C65.3278 132.02 67.8904 139.463 67.8904 139.463C61.7102 139.016 60.3535 145.706 60.3535 145.706H155.921L151.55 144.822Z" fill="black"/>
<rect x="73.251" y="72.3501" width="73.2769" height="42.2597" fill="black"/>
<rect x="63.7881" y="63.0049" width="73.2769" height="42.2597" fill="#EDEEEF"/>
<path d="M137.065 63.0278V105.288L63.7881 105.242" stroke="black" stroke-width="0.5"/>
<path d="M100.427 97.4363C107.865 97.4363 113.896 91.481 113.896 84.1347C113.896 76.7884 107.865 70.8331 100.427 70.8331C92.9878 70.8331 86.9575 76.7884 86.9575 84.1347C86.9575 91.481 92.9878 97.4363 100.427 97.4363Z" fill="#CA4141"/>
<path d="M72.0489 99.8528C73.5667 99.8528 74.7971 98.6377 74.7971 97.1388C74.7971 95.6399 73.5667 94.4248 72.0489 94.4248C70.5312 94.4248 69.3008 95.6399 69.3008 97.1388C69.3008 98.6377 70.5312 99.8528 72.0489 99.8528Z" fill="#D6D6D6"/>
<path d="M128.804 73.8445C130.322 73.8445 131.552 72.6294 131.552 71.1305C131.552 69.6316 130.322 68.4165 128.804 68.4165C127.286 68.4165 126.056 69.6316 126.056 71.1305C126.056 72.6294 127.286 73.8445 128.804 73.8445Z" fill="#D6D6D6"/>
<path d="M128.804 99.8528C130.322 99.8528 131.552 98.6377 131.552 97.1388C131.552 95.6399 130.322 94.4248 128.804 94.4248C127.286 94.4248 126.056 95.6399 126.056 97.1388C126.056 98.6377 127.286 99.8528 128.804 99.8528Z" fill="#D6D6D6"/>
<path d="M72.0489 73.8445C73.5667 73.8445 74.7971 72.6294 74.7971 71.1305C74.7971 69.6316 73.5667 68.4165 72.0489 68.4165C70.5312 68.4165 69.3008 69.6316 69.3008 71.1305C69.3008 72.6294 70.5312 73.8445 72.0489 73.8445Z" fill="#D6D6D6"/>
<path d="M100.427 84.1347C98.3165 84.1347 96.606 82.4454 96.606 80.3616C96.606 78.2778 98.3165 76.5885 100.427 76.5885C102.537 76.5885 104.247 78.2778 104.247 80.3616" stroke="white" stroke-width="0.5"/>
<path d="M100.426 84.1346C101.972 84.1346 103.365 85.0539 103.956 86.4638C104.548 87.8737 104.221 89.4966 103.128 90.5757C102.035 91.6548 100.392 91.9776 98.9645 91.3936C97.5368 90.8096 96.606 89.4338 96.606 87.9077" stroke="white" stroke-width="0.5"/>
<path d="M100.426 74.4219V93.8475" stroke="white" stroke-width="0.5"/>
<path d="M16.22 739.265L21.3298 743.726L34.9556 726.21L41.0871 731.369L73.4486 688.593L102.063 739.265L109.898 730.562L124.205 754.177H4.29736L16.22 739.265V739.265Z" fill="#F4F4F4"/>
<path d="M128.502 754.177H0" stroke="black" stroke-width="0.5"/>
<path d="M112.591 665.55C112.591 665.55 79.8897 726.575 149.961 730.749L153.335 733.619V713.53L129.793 706.225L129.101 657.7" fill="#E2E2E2"/>
<path d="M129.65 696.162C124.046 698.499 119.826 708.717 119.826 720.968C119.826 721.584 119.837 722.194 119.859 722.798C125.566 726.307 133.264 728.931 143.523 730.173C144.088 727.138 144.368 724.056 144.36 720.968C144.373 717.414 143.998 713.87 143.242 710.398L129.793 706.225L129.65 696.162Z" fill="black"/>
<path d="M125.803 750.593L116.956 665.122L137.215 663.727L140.899 665.236L142.63 754.177" fill="#EDEEEF"/>
<path d="M124.192 618.451C123 618.156 121.74 618.429 120.774 619.19C119.809 619.951 119.245 621.116 119.245 622.349V625.564C119.245 628.05 120.933 630.214 123.334 630.808L128.423 632.065V619.496L124.192 618.451" fill="#EDEEEF"/>
<path d="M119.245 625.564C119.245 628.05 120.933 630.214 123.334 630.807L128.423 632.065" stroke="black" stroke-width="0.5"/>
<path d="M124.429 624.926C124.565 624.926 124.675 624.816 124.675 624.679C124.675 624.543 124.565 624.433 124.429 624.433C124.294 624.433 124.184 624.543 124.184 624.679C124.184 624.816 124.294 624.926 124.429 624.926Z" fill="black"/>
<path d="M120.66 624.926C120.796 624.926 120.906 624.816 120.906 624.679C120.906 624.543 120.796 624.433 120.66 624.433C120.525 624.433 120.415 624.543 120.415 624.679C120.415 624.816 120.525 624.926 120.66 624.926Z" fill="black"/>
<path d="M121.766 626.151V622.349H119.871" stroke="black" stroke-width="0.5"/>
<path d="M124.892 622.349H122.997" stroke="black" stroke-width="0.5"/>
<path d="M127.818 624.297V625.618C128.527 625.618 129.101 625.04 129.101 624.328C129.101 624.289 129.099 624.249 129.096 624.211C129.024 623.41 127.818 623.493 127.818 624.297Z" fill="#EDEEEF"/>
<path d="M127.818 625.618C128.527 625.618 129.101 625.04 129.101 624.328" stroke="black" stroke-width="0.5"/>
<path d="M122.802 626.595C123.134 626.929 123.671 626.929 124.003 626.595" stroke="#CA4141" stroke-width="0.5" stroke-linecap="round" stroke-linejoin="round"/>
<path d="M121.766 626.154L122.595 626.359" stroke="black" stroke-width="0.5" stroke-linecap="round"/>
<path d="M112.591 645.402V665.549L140.983 672.564V650.126C140.983 642.169 135.579 635.241 127.894 633.342H127.893C124.208 632.431 120.31 633.274 117.323 635.628C114.336 637.982 112.591 641.586 112.591 645.402L112.591 645.402Z" fill="#CA4141"/>
<path d="M125.803 750.593L116.956 665.122" stroke="black" stroke-width="0.5"/>
<path d="M126.876 616.603C128.842 616.947 130.551 618.16 131.531 619.908C132.59 621.874 132.76 624.729 128.46 627.826" stroke="black" stroke-width="0.5"/>
<path d="M122.18 630.376C122.18 630.376 122.18 634.511 115.201 634.138L113.603 632.532C113.603 632.532 114.486 614.224 126.876 616.603" stroke="black" stroke-width="0.5"/>
<path d="M113.003 633.159C113.068 633.159 114.603 634.768 114.603 634.768" stroke="#CA4141" stroke-width="0.5" stroke-linecap="round" stroke-linejoin="round"/>
<path d="M119.245 624.043C119.245 624.043 123.428 622.999 124.675 620.434C124.675 620.434 126.039 623.986 127.818 624.297" stroke="black" stroke-width="0.5"/>
<path d="M112.699 633.964C112.699 633.964 108.287 636.465 109.037 642.553C109.274 644.571 110.282 646.418 111.849 647.703C112.653 648.383 113.765 648.56 114.74 648.164C115.714 647.768 116.391 646.863 116.499 645.813C116.629 644.628 116.879 643.412 117.342 642.495C119.245 638.726 113.514 634.768 113.514 634.768" stroke="black" stroke-width="0.5"/>
<path d="M135.101 637.109C135.101 637.109 163.424 669.049 135.913 685.399L131.415 677.82L137.817 666.092L131.415 655.308" stroke="black" stroke-width="0.5"/>
<path d="M135.913 685.399L128.893 673.571" stroke="black" stroke-width="0.5"/>
<path d="M102.06 637.39C101.805 636.246 101.919 635.049 102.384 633.974C103.714 630.836 107.351 623.063 110.85 622.819C115.238 622.514 113.854 626.398 112.297 627.326C111.428 627.876 110.317 627.853 109.471 627.268C109.471 627.268 105.268 632.402 105.722 633.994C105.722 633.994 108.144 633.994 107.337 636.313C106.63 638.342 102.965 641.303 102.06 637.39Z" fill="#CA4141"/>
<path d="M105.548 631.055C105.548 631.055 108.835 628.261 105.548 627.304C102.26 626.348 94.9069 636.61 96.1181 647.916C97.3292 659.221 105.36 666.701 112.591 660.526" stroke="black" stroke-width="0.5"/>
<path d="M105.667 638.52C105.667 638.52 106.201 643.567 107.864 646.611L109.736 644.996" stroke="black" stroke-width="0.5"/>
<path d="M52.0519 636.579L44.2656 644.527V636.579H52.0519V636.579Z" fill="black"/>
<rect x="83.0007" y="637.842" width="51.5177" height="34.7649" transform="rotate(-180 83.0007 637.842)" fill="black"/>
<path d="M31.4832 603.077V637.842H44.2657" fill="black"/>
<rect x="68.9819" y="622.051" width="3.16675" height="3.18342" transform="rotate(-180 68.9819 622.051)" fill="black"/>
<rect x="58.8252" y="622.051" width="3.16675" height="3.18342" transform="rotate(-180 58.8252 622.051)" fill="black"/>
<rect x="48.6685" y="622.051" width="3.16675" height="3.18342" transform="rotate(-180 48.6685 622.051)" fill="black"/>
<path d="M76.4504 620.788L84.237 628.736V620.788H76.4504V620.788Z" fill="#E2E2E2"/>
<path d="M84.237 628.736V620.788" stroke="black" stroke-width="0.5"/>
<rect x="45.5017" y="587.286" width="51.5177" height="34.7649" fill="#EDEEEF"/>
<path d="M97.0196 587.286V622.051H84.2371" stroke="black" stroke-width="0.5"/>
<rect x="59.5205" y="603.077" width="3.16671" height="3.1834" fill="#CA4141"/>
<rect x="69.6772" y="603.077" width="3.16672" height="3.1834" fill="#CA4141"/>
<rect x="79.8339" y="603.077" width="3.16677" height="3.1834" fill="#CA4141"/>
<path d="M83.5319 754.177H160" stroke="black" stroke-width="0.5"/>
<path d="M150.956 753.572C150.956 753.572 152.274 751.229 148.929 750.719C146.941 750.41 144.908 750.657 143.05 751.432C143.05 751.432 145.382 748.579 141.733 747.357C138.084 746.134 134.334 748.987 134.334 748.987C134.334 748.987 137.983 742.161 135.145 741.651C132.307 741.142 130.787 744.096 130.787 744.096C130.787 744.096 131.091 735.64 125.212 735.436C119.333 735.232 119.942 746.236 119.942 746.236C119.942 746.236 117.408 741.345 113.151 741.142C108.894 740.938 111.022 749.334 111.022 749.334C111.022 749.334 110.212 747.357 107.374 747.153C104.536 746.949 104.738 749.34 104.738 749.34C104.738 749.34 101.09 744.198 97.0355 744.504C92.9813 744.81 94.7043 749.904 94.7043 749.904C90.5488 749.598 89.6366 754.177 89.6366 754.177H153.895L150.956 753.572Z" fill="black"/>
<rect x="23.1582" y="648.378" width="37.9456" height="38.1455" fill="#EDEEEF"/>
<path d="M61.1038 648.378V686.523H23.1582" stroke="black" stroke-width="0.5"/>
<path d="M38.3737 667.984H45.8887C47.6506 667.984 49.3403 668.687 50.5862 669.94C51.832 671.192 52.5319 672.891 52.5319 674.662V678.439H31.7305V674.662C31.7305 672.891 32.4304 671.192 33.6762 669.94C34.9221 668.687 36.6118 667.984 38.3737 667.984Z" fill="#CA4141"/>
<path d="M42.1312 656.461V656.461C44.9659 656.461 47.2639 658.772 47.2639 661.621V665.442H36.9985V661.621C36.9985 660.253 37.5393 658.94 38.5019 657.973C39.4644 657.005 40.7699 656.461 42.1312 656.461V656.461Z" fill="#CA4141"/>
<path d="M47.9375 427.862L10 440.844L47.9375 453.827L85.8752 440.844L47.9375 427.862V427.862Z" fill="black"/>
<path d="M10 440.844L47.9375 453.827L85.8752 440.844" stroke="black" stroke-width="0.5"/>
<path d="M47.9375 411.779L10 424.762L47.9375 437.744L85.8752 424.762L47.9375 411.779V411.779Z" fill="#EDEEEF"/>
<path d="M10 424.762L47.9375 437.745L85.8752 424.762" stroke="black" stroke-width="0.5"/>
<path d="M47.9375 395.697L10 408.68L47.9375 421.663L85.8752 408.68L47.9375 395.697V395.697Z" fill="#C38282"/>
<path d="M10 408.68L47.9375 421.663L85.8752 408.68" stroke="black" stroke-width="0.5"/>
<path d="M27.8007 527.055L33.1815 531.578L47.5304 513.817L53.9875 519.048L88.0661 475.672L118.199 527.055L126.45 518.229L141.516 542.175H15.2454L27.8007 527.055V527.055Z" fill="#F4F4F4"/>
<path d="M146.041 542.176H10.7197" stroke="black" stroke-width="0.5"/>
<path d="M110.652 451.865C110.652 451.865 86.1513 492.51 77.9524 532.721L74.9307 534.442L89.3808 539.076C89.3808 539.076 121.391 492.34 123.304 486.407C125.217 480.474 121.937 451.865 121.937 451.865" fill="#C38282"/>
<path d="M116.998 470.249C116.998 470.249 113.066 489.762 114.143 501.947C118.268 495.524 121.617 490.07 122.866 487.452L116.998 470.249Z" fill="black"/>
<path d="M117.741 408.059V415.611L127.406 417.911V405.166L117.741 402.866V408.059V408.059Z" fill="#EDEEEF"/>
<path d="M123.201 410.672C123.344 410.672 123.459 410.56 123.459 410.422C123.459 410.284 123.344 410.172 123.201 410.172C123.058 410.172 122.942 410.284 122.942 410.422C122.942 410.56 123.058 410.672 123.201 410.672Z" fill="black"/>
<path d="M119.232 410.672C119.374 410.672 119.49 410.56 119.49 410.422C119.49 410.284 119.374 410.172 119.232 410.172C119.089 410.172 118.973 410.284 118.973 410.422C118.973 410.56 119.089 410.672 119.232 410.672Z" fill="black"/>
<path d="M120.396 411.914V408.059H118.401" stroke="black" stroke-width="0.5"/>
<path d="M123.688 408.059H121.693" stroke="black" stroke-width="0.5"/>
<path d="M126.77 410.034V411.373C127.128 411.373 127.471 411.235 127.725 410.99C127.978 410.745 128.12 410.412 128.12 410.066C128.12 410.025 128.118 409.986 128.115 409.947C128.039 409.135 126.77 409.219 126.77 410.034Z" fill="#EDEEEF"/>
<path d="M126.77 411.373C127.128 411.373 127.471 411.235 127.725 410.99C127.978 410.745 128.12 410.412 128.12 410.065" stroke="black" stroke-width="0.5"/>
<path d="M125.602 417.482L127.406 417.911" stroke="black" stroke-width="0.5"/>
<path d="M120.396 411.917L121.269 412.125" stroke="black" stroke-width="0.5" stroke-linecap="round"/>
<path d="M117.741 410.172C117.741 410.172 115.801 415.678 118.401 417.482C121.001 419.285 128.732 418.234 126.635 410.844" stroke="black" stroke-width="0.5"/>
<path d="M118.889 412.016C118.816 412.128 118.81 412.27 118.872 412.388C118.935 412.506 119.057 412.584 119.194 412.593C119.753 412.714 120.598 411.649 121.329 412.228C121.329 412.228 121.493 411.41 123.313 411.9C125.133 412.389 124.508 411.226 124.508 411.226" stroke="black" stroke-width="0.5"/>
<path d="M121.112 412.964C121.798 413.269 122.61 412.978 122.925 412.314" stroke="#C38282" stroke-width="0.5" stroke-linecap="round" stroke-linejoin="round"/>
<path d="M117.045 405.398C117.045 405.398 117.701 408.127 123.688 406.506C123.688 406.506 124.05 407.992 125.08 408.059C126.111 408.127 126.068 409.124 126.068 409.124" stroke="black" stroke-width="0.5"/>
<path d="M117.741 408.059C117.741 408.059 111.492 402.841 118.832 402.576C126.172 402.312 130.145 404.515 127.445 409.38" stroke="black" stroke-width="0.5"/>
<path d="M110.652 431.435V451.865L140.551 458.978V436.225C140.551 428.157 134.861 421.131 126.767 419.206H126.767C122.886 418.282 118.781 419.137 115.635 421.524C112.49 423.911 110.652 427.566 110.652 431.435L110.652 431.435Z" fill="#EDEEEF"/>
<path d="M140.551 458.978L117.045 453.386C117.045 453.386 115.464 508.697 124.744 538.737L123.201 541.735H138.608C138.608 541.735 141.674 471.08 140.551 458.978Z" fill="#C38282"/>
<path d="M117.045 453.386C117.045 453.386 115.464 508.697 124.744 538.737" stroke="black" stroke-width="0.5"/>
<path d="M131.177 420.87C131.177 420.87 149.16 431.149 148.613 448.257C148.067 465.365 135.312 472.244 135.312 472.244" stroke="black" stroke-width="0.5"/>
<path d="M130.575 462.808C130.575 462.808 133.217 472.156 137.681 474.096" stroke="black" stroke-width="0.5"/>
<path d="M128.12 438.145L137.681 449.433L130.815 463.581" stroke="black" stroke-width="0.5"/>
<path d="M131.42 462.333L137.681 449.433L130.349 440.777V440.777C130.349 440.777 134.816 453.716 131.42 462.333Z" fill="black"/>
<path d="M113.956 423.048L101.143 432.871C101.143 432.871 86.3736 414.654 83.1104 413.688C79.8472 412.721 75.8748 414.746 75.8748 414.746V415.942L79.6532 416.607C79.6532 416.607 79.0965 420.864 81.5009 422.859C81.5009 422.859 88.9549 449.232 100.147 449.315C107.799 449.372 110.652 447.316 110.652 447.316" stroke="black" stroke-width="0.5"/>
<path d="M89.474 542.176H170" stroke="black" stroke-width="0.5"/>
<path d="M160.476 541.562C160.476 541.562 161.864 539.186 158.341 538.669C156.248 538.356 154.107 538.606 152.151 539.393C152.151 539.393 154.606 536.5 150.763 535.26C146.921 534.02 142.972 536.913 142.972 536.913C142.972 536.913 146.814 529.991 143.826 529.474C140.837 528.958 139.236 531.954 139.236 531.954C139.236 531.954 139.556 523.378 133.366 523.172C127.175 522.965 127.816 534.123 127.816 534.123C127.816 534.123 125.147 529.164 120.665 528.958C116.182 528.751 118.423 537.265 118.423 537.265C118.423 537.265 117.569 535.26 114.581 535.053C111.592 534.847 111.806 537.271 111.806 537.271C111.806 537.271 107.963 532.057 103.694 532.367C99.4248 532.677 101.239 537.843 101.239 537.843C96.8632 537.533 95.9026 542.175 95.9026 542.175H163.571L160.476 541.562Z" fill="black"/>
<rect x="18.2632" y="195.86" width="79.1429" height="86.2767" fill="#E2E2E2"/>
<path d="M97.4062 195.86V282.137H18.2634" stroke="black" stroke-width="0.5"/>
<rect x="40.0354" y="193.125" width="35.599" height="6.36329" fill="#C38282"/>
<path d="M57.8348 195.722C59.1686 195.722 60.2499 194.624 60.2499 193.27C60.2499 191.916 59.1686 190.819 57.8348 190.819C56.501 190.819 55.4197 191.916 55.4197 193.27C55.4197 194.624 56.501 195.722 57.8348 195.722Z" fill="#C38282"/>
<rect x="40.0354" y="193.125" width="35.599" height="6.36329" fill="#C38282"/>
<path d="M75.6343 193.125V199.488H40.0354" stroke="black" stroke-width="0.5"/>
<path d="M57.8348 195.722C59.1686 195.722 60.2499 194.624 60.2499 193.27C60.2499 191.916 59.1686 190.819 57.8348 190.819C56.501 190.819 55.4197 191.916 55.4197 193.27C55.4197 194.624 56.501 195.722 57.8348 195.722Z" fill="#C38282"/>
<path d="M57.8348 282.137V350.579" stroke="black" stroke-width="0.5"/>
<path d="M15 350.579H100.67" stroke="black" stroke-width="0.5"/>
<path d="M166.805 347.113V341.844L162.013 346.303L160.415 332.318L147.836 341.438L146.239 335.359L141.846 339.817V332.521L136.455 339.006L131.663 324.414L125.673 339.422L116.888 328.265L110.299 343.465V336.169L106.505 343.263L103.909 333.737L96.7213 345.087L85.7395 331.102L82.3451 344.884L79.1504 341.033L76.7544 350.579H169.001L169.8 346.911L166.805 347.113V347.113Z" fill="#F4F4F4"/>
<path d="M71.5542 350.579H175" stroke="black" stroke-width="0.5"/>
<path d="M142.821 253.232L120.08 251.715L114.191 275.292L100.67 350.106H119.074L116.93 346.207L142.821 253.232V253.232Z" fill="#E2E2E2"/>
<path d="M145.779 345.978L146.898 303.407L129.003 306.813L133.158 350.106H148.451L145.779 345.978V345.978Z" fill="#E2E2E2"/>
<path d="M140.294 304.664L129.003 306.813L129.501 312.006C138.897 310.719 145.368 308.158 145.368 308.158L140.294 304.664Z" fill="black"/>
<path d="M117.864 289.217C117.864 289.217 115.017 290.108 111.25 291.562L107.612 311.695C114.245 312.924 120.704 312.92 126.352 312.374L130.397 297.847L117.864 289.217Z" fill="black"/>
<path d="M117.864 253.697L95.4688 300.834C95.4688 300.834 122.03 315.023 148.451 307.361V258.548L117.864 253.697Z" fill="#C38282"/>
<path d="M126.196 206.704V210.201C126.196 212.904 128.015 215.259 130.602 215.904L136.084 217.272V203.6L131.526 202.463C130.242 202.142 128.885 202.439 127.844 203.267C126.804 204.095 126.196 205.362 126.196 206.704L126.196 206.704Z" fill="#E2E2E2"/>
<path d="M126.196 210.201C126.196 212.905 128.015 215.259 130.602 215.905L136.084 217.272" stroke="black" stroke-width="0.5"/>
<path d="M131.782 209.507C131.928 209.507 132.046 209.387 132.046 209.238C132.046 209.09 131.928 208.97 131.782 208.97C131.636 208.97 131.518 209.09 131.518 209.238C131.518 209.387 131.636 209.507 131.782 209.507Z" fill="black"/>
<path d="M127.721 209.507C127.867 209.507 127.986 209.387 127.986 209.238C127.986 209.09 127.867 208.97 127.721 208.97C127.575 208.97 127.457 209.09 127.457 209.238C127.457 209.387 127.575 209.507 127.721 209.507Z" fill="black"/>
<path d="M128.913 210.839V206.704H126.872" stroke="black" stroke-width="0.5"/>
<path d="M132.28 206.704H130.239" stroke="black" stroke-width="0.5"/>
<path d="M135.433 208.823V210.259C135.8 210.259 136.151 210.111 136.41 209.848C136.669 209.585 136.815 209.228 136.815 208.856C136.815 208.813 136.813 208.771 136.809 208.728C136.732 207.857 135.433 207.948 135.433 208.823Z" fill="#E2E2E2"/>
<path d="M135.433 210.259C135.8 210.259 136.151 210.111 136.41 209.848C136.669 209.585 136.815 209.228 136.815 208.856" stroke="black" stroke-width="0.5"/>
<path d="M130.029 211.322C130.386 211.685 130.965 211.685 131.323 211.322" stroke="#C38282" stroke-width="0.5" stroke-linecap="round" stroke-linejoin="round"/>
<path d="M128.913 210.842L129.805 211.065" stroke="black" stroke-width="0.5" stroke-linecap="round"/>
<path d="M127.986 215.142L127.829 215.214C126.812 215.685 125.628 215.589 124.698 214.96C123.768 214.331 123.224 213.259 123.261 212.125C123.44 206.908 124.649 199.671 130.029 200.189C130.029 200.189 135.494 198.917 137.684 204.026C139.874 209.135 137.188 211.594 136.084 212.162" stroke="black" stroke-width="0.5"/>
<path d="M126.08 208.119C126.08 208.119 130.207 207.384 130.676 204.578C130.676 204.578 132.72 208.054 135.573 208.389" stroke="black" stroke-width="0.5"/>
<path d="M117.864 231.78V253.697L148.451 261.328V236.919C148.451 228.264 142.63 220.727 134.35 218.661H134.35C130.379 217.671 126.18 218.588 122.962 221.149C119.744 223.709 117.864 227.63 117.864 231.78L117.864 231.78Z" fill="#E2E2E2"/>
<path d="M95.4688 300.834C95.4688 300.834 122.03 315.023 148.451 307.361" stroke="black" stroke-width="0.5"/>
<path d="M140.243 221.301C140.243 221.301 155.23 231.939 155.286 247.78C155.368 270.8 120.144 250.051 119.004 246.267L117.864 242.482C117.864 242.482 113.159 240.515 114.277 239.796C115.396 239.077 148.452 246.203 148.452 246.203" stroke="black" stroke-width="0.5"/>
<path d="M123.259 221.301C123.259 221.301 114.65 227.535 111.108 243.807C111.108 243.807 105.33 235.681 103.279 232.554C101.229 229.427 99.5512 231.508 99.5512 231.508C99.5512 231.508 97.1649 227.913 95.4688 229.427C93.7727 230.941 98.3096 256.9 114.868 260.003" stroke="black" stroke-width="0.5"/>
<path d="M116.278 241.776L81.5944 224.445" stroke="black" stroke-width="0.5"/>
<rect x="28.2607" y="209.837" width="40.4123" height="41.02" fill="#C38282"/>
<rect x="47.557" y="220.121" width="1.8199" height="20.452" fill="#E2E2E2"/>
<path d="M58.5414 229.423V231.27H38.3924V229.423L58.5414 229.423Z" fill="#E2E2E2"/>
</svg>
