<svg width="389" height="222" viewBox="0 0 389 222" fill="none" xmlns="http://www.w3.org/2000/svg">
<path d="M124.938 46.3525L121.756 52.8219L114.642 53.859L119.79 58.8944L118.574 66.0045L124.938 62.6476L131.301 66.0045L130.085 58.8944L135.233 53.859L128.119 52.8219L124.938 46.3525Z" fill="#EDEEEF"/>
<path d="M130.085 58.8946L135.233 53.8591" stroke="black" stroke-width="0.8"/>
<path d="M124.938 46.3525L121.756 52.8219L114.642 53.859L119.79 58.8944L118.574 66.0045L124.938 62.6476L131.301 66.0045" stroke="black" stroke-width="0.8"/>
<path d="M96.5262 46.3525L93.3448 52.8219L86.23 53.859L91.3781 58.8944L90.1629 66.0045L96.5262 62.6476L102.89 66.0045L101.674 58.8944L106.822 53.859L99.7076 52.8219L96.5262 46.3525Z" fill="#CA4141"/>
<path d="M101.674 58.8946L106.822 53.8591" stroke="black" stroke-width="0.8"/>
<path d="M96.5262 46.3525L93.3448 52.8219L86.23 53.859L91.3781 58.8944L90.1629 66.0045L96.5262 62.6476L102.89 66.0045" stroke="black" stroke-width="0.8"/>
<path d="M68.1164 46.3525L64.9351 52.8219L57.8208 53.859L62.9689 58.8944L61.7531 66.0045L68.1164 62.6476L74.4798 66.0045L73.2646 58.8944L78.4127 53.859L71.2984 52.8219L68.1164 46.3525Z" fill="#CA4141"/>
<path d="M73.2646 58.8946L78.4127 53.8591" stroke="black" stroke-width="0.8"/>
<path d="M68.1165 46.3525L64.9351 52.8219L57.8208 53.859L62.9689 58.8944L61.7531 66.0045L68.1165 62.6476L74.4798 66.0045" stroke="black" stroke-width="0.8"/>
<path d="M39.7059 46.3525L36.5239 52.8219L29.4097 53.859L34.5578 58.8944L33.3425 66.0045L39.7059 62.6476L46.0692 66.0045L44.854 58.8944L50.0015 53.859L42.8873 52.8219L39.7059 46.3525Z" fill="#CA4141"/>
<path d="M44.854 58.8946L50.002 53.8591" stroke="black" stroke-width="0.8"/>
<path d="M39.7059 46.3525L36.5239 52.8219L29.4097 53.859L34.5578 58.8944L33.3425 66.0045L39.7059 62.6476L46.0692 66.0045" stroke="black" stroke-width="0.8"/>
<path d="M11.2956 46.3525L8.11426 52.8219L1 53.859L6.14753 58.8944L4.9323 66.0045L11.2956 62.6476L17.659 66.0045L16.4438 58.8944L21.5919 53.859L14.4776 52.8219L11.2956 46.3525Z" fill="#CA4141"/>
<path d="M16.4438 58.8946L21.5919 53.8591" stroke="black" stroke-width="0.8"/>
<path d="M11.2957 46.3525L8.11427 52.8219L1 53.859L6.14754 58.8944L4.93231 66.0045L11.2957 62.6476L17.659 66.0045" stroke="black" stroke-width="0.8"/>
<path d="M148.494 380.428H177.182V368.249H206.493V353.854L228.322 334.477H261.375V278.56H304.407V209.355L358.665 257.522V349.425H387.353V390.135H399.203V378.768H420.407V401.502H134.149V393.162L148.494 380.428Z" fill="#F4F4F4"/>
<path d="M128.422 165.877C128.422 165.877 100.862 261.429 89.0157 376.613L80.4023 382.363L118.001 400.352L166.046 267.968L173.803 161.056" fill="#E2E2E2"/>
<path d="M139.78 164.747L193.474 161.056L203.238 165.046L207.826 400.352H157.954L163.227 390.869L139.78 164.747Z" fill="#EDEEEF"/>
<path d="M151.08 51.586V60.0907C151.08 66.6669 155.554 72.3935 161.918 73.9631L175.405 77.2895V44.0377L164.19 41.2718C161.032 40.4929 157.693 41.214 155.134 43.2273C152.574 45.2407 151.08 48.3228 151.08 51.586Z" fill="#EDEEEF"/>
<path d="M151.08 60.0907C151.08 66.6669 155.554 72.3935 161.918 73.9631L175.405 77.2896" stroke="black" stroke-width="0.8"/>
<path d="M164.82 58.4031C165.18 58.4031 165.471 58.1109 165.471 57.7505C165.471 57.3901 165.18 57.0979 164.82 57.0979C164.461 57.0979 164.17 57.3901 164.17 57.7505C164.17 58.1109 164.461 58.4031 164.82 58.4031Z" fill="black"/>
<path d="M154.831 58.4031C155.19 58.4031 155.482 58.1109 155.482 57.7505C155.482 57.3901 155.19 57.0979 154.831 57.0979C154.472 57.0979 154.181 57.3901 154.181 57.7505C154.181 58.1109 154.472 58.4031 154.831 58.4031Z" fill="black"/>
<path d="M157.762 61.6439V51.5859H153.918" stroke="black" stroke-width="0.8"/>
<path d="M166.046 51.5859H161.024" stroke="black" stroke-width="0.8"/>
<path d="M173.803 56.7394V60.2322C175.681 60.2322 177.203 58.7049 177.203 56.8207C177.203 56.7161 177.198 56.6126 177.189 56.5102C176.999 54.3918 173.803 54.6124 173.803 56.7394Z" fill="#EDEEEF"/>
<path d="M173.803 60.2322C175.681 60.2322 177.203 58.7048 177.203 56.8207" stroke="black" stroke-width="0.8"/>
<path d="M160.507 62.8192C161.386 63.7014 162.812 63.7014 163.691 62.8192" stroke="#CA4141" stroke-width="0.8" stroke-linecap="round" stroke-linejoin="round"/>
<path d="M157.762 61.6518L159.958 62.1935" stroke="black" stroke-width="0.8" stroke-linecap="round"/>
<path d="M128.421 112.575V165.877L203.67 184.436V125.072C203.67 104.022 189.35 85.692 168.979 80.6679C159.21 78.2585 148.879 80.4891 140.963 86.7173C133.046 92.9455 128.421 102.48 128.421 112.575Z" fill="#CA4141"/>
<path d="M163.226 390.87L139.779 164.747" stroke="black" stroke-width="0.8"/>
<path d="M150.564 57.7507L143.112 53.6507C143.112 53.6507 154.004 22.3593 176.359 36.1643C198.715 49.9694 175.405 65.7301 175.405 65.7301" stroke="black" stroke-width="0.8"/>
<path d="M150.029 52.347C150.029 52.347 164.821 49.9543 169.973 42.6979C169.973 42.6979 167.877 53.2046 174.086 55.7669" stroke="black" stroke-width="0.8"/>
<path d="M186.054 88.9546C186.054 88.9546 211.555 106.95 222.561 132.069C222.561 132.069 218.663 85.8622 224.166 78.2695C227.071 74.2613 230.357 79.7025 230.357 79.7025C230.357 79.7025 244.802 73.6678 245.261 75.9687C245.719 78.2695 237.236 87.0127 237.236 87.0127C237.236 87.0127 249.617 144.211 239.987 160.547C230.357 176.883 181.519 144.303 181.519 144.303" stroke="black" stroke-width="0.8"/>
<path d="M186.78 147.625C186.78 147.625 186.882 170.058 203.67 179.601V156.916L186.78 147.625Z" fill="black"/>
<path d="M141.273 86.4804C141.273 86.4804 118.617 103.328 114.337 120.288C114.337 120.288 107.306 74.3856 103.331 75.4456C99.3569 76.5055 98.4397 79.7025 98.4397 79.7025C98.4397 79.7025 85.9053 73.1224 84.071 75.4275C82.2366 77.7327 95.0768 90.3105 95.0768 90.3105C95.0768 90.3105 87.3092 145.165 96.2997 152.586C115.254 168.232 128.422 145.837 128.422 145.837" stroke="black" stroke-width="0.8"/>
<path d="M305.059 80.8721L286.229 100.057V80.8721H305.059Z" fill="#E2E2E2"/>
<path d="M286.229 100.057V80.8721" stroke="black" stroke-width="0.8"/>
<rect x="379.901" y="83.92" width="124.583" height="83.9198" transform="rotate(-180 379.901 83.92)" fill="#EDEEEF"/>
<path d="M255.317 0V83.92H286.229" stroke="black" stroke-width="0.8"/>
<rect x="346" y="45.8024" width="7.65796" height="7.68457" transform="rotate(-180 346 45.8024)" fill="#CA4141"/>
<rect x="321.438" y="45.8024" width="7.65808" height="7.68457" transform="rotate(-180 321.438 45.8024)" fill="#CA4141"/>
<rect x="296.876" y="45.8024" width="7.65808" height="7.68457" transform="rotate(-180 296.876 45.8024)" fill="#CA4141"/>
</svg>
