<svg width="234" height="497" viewBox="0 0 234 497" fill="none" xmlns="http://www.w3.org/2000/svg">
<path d="M183.244 53.1131L159.91 48.6088L234 12.9341L202.724 69.2458L195.437 61.3279L190.011 70.9304L186.58 58.7797" fill="#CA4141"/>
<path d="M88.8573 495.597L85.2527 148.664L37.4048 210.649C37.4048 210.649 26.4588 391.865 37.4048 483.083L24.4845 495.597H88.8573Z" fill="#E2E2E2"/>
<path d="M53.6102 190.139C53.6102 190.139 41.3508 390.233 75.9762 484.971L68.7435 495.597H130.329C130.329 495.597 137.057 241.089 137.057 186.156L53.6102 190.139Z" fill="#EDEEEF"/>
<path d="M100.401 35.3236V61.3272L68.187 69.245V25.3616L100.401 17.4443V35.3236Z" fill="#EDEEEF"/>
<path d="M82.2037 44.3215C82.6794 44.3215 83.0651 43.9359 83.0651 43.4602C83.0651 42.9845 82.6794 42.5989 82.2037 42.5989C81.728 42.5989 81.3424 42.9845 81.3424 43.4602C81.3424 43.9359 81.728 44.3215 82.2037 44.3215Z" fill="black"/>
<path d="M95.4332 44.3215C95.9089 44.3215 96.2946 43.9359 96.2946 43.4602C96.2946 42.9845 95.9089 42.5989 95.4332 42.5989C94.9575 42.5989 94.5719 42.9845 94.5719 43.4602C94.5719 43.9359 94.9575 44.3215 95.4332 44.3215Z" fill="black"/>
<path d="M91.552 48.597V35.3235H98.2018" stroke="black" stroke-width="1.2" stroke-linecap="round" stroke-linejoin="round"/>
<path d="M80.5812 35.3246H87.231" stroke="black" stroke-width="1.2" stroke-linecap="round" stroke-linejoin="round"/>
<path d="M70.3089 42.1256V46.7351C67.8225 46.7351 65.8068 44.7194 65.8068 42.2329C65.8068 42.0948 65.8129 41.9582 65.8252 41.8231C66.0774 39.0274 70.3089 39.3185 70.3089 42.1256Z" fill="#EDEEEF"/>
<path d="M70.3089 46.7344C67.8225 46.7344 65.8068 44.7187 65.8068 42.2322" stroke="black" stroke-width="1.2" stroke-linecap="round" stroke-linejoin="round"/>
<path d="M88.6435 51.8702C86.1269 51.8702 84.0868 49.8301 84.0868 47.3135" stroke="#CA4141" stroke-width="1.2" stroke-linecap="round" stroke-linejoin="round"/>
<path d="M100.401 61.3279L68.1873 69.2455" stroke="black" stroke-width="1.2" stroke-linecap="round" stroke-linejoin="round"/>
<path d="M91.5519 48.6079L88.6434 49.3227" stroke="black" stroke-width="1.2" stroke-linecap="round" stroke-linejoin="round"/>
<path d="M137.057 115.812V186.156L37.4049 210.649V132.304C37.4049 104.525 56.3698 80.3342 83.3465 73.7038H83.3466C96.2837 70.5241 109.964 73.4678 120.449 81.6873C130.933 89.9067 137.057 102.489 137.057 115.812V115.812Z" fill="#CA4141"/>
<path d="M53.6102 190.139C53.6102 190.139 41.3508 390.234 75.9763 484.971L68.7435 495.597" stroke="black" stroke-width="1.2" stroke-linecap="round" stroke-linejoin="round"/>
<path d="M100.401 31.8611C100.401 31.8611 111.934 27.4076 104.849 8.1767C100.423 -3.83839 94.3121 1.60972 90.3497 7.38976C87.6887 11.226 83.5073 13.7335 78.8699 14.2741C71.7764 15.1335 62.8168 19.5474 67.1972 37.3267" stroke="black" stroke-width="1.2" stroke-linecap="round" stroke-linejoin="round"/>
<path d="M70.309 42.1254C70.309 42.1254 75.8006 37.9848 73.5233 29.7864C73.5233 29.7864 99.9509 28.2777 100.401 19.1636" stroke="black" stroke-width="1.2" stroke-linecap="round" stroke-linejoin="round"/>
<path d="M107.151 74.5723C107.151 74.5723 137.057 83.6837 156.185 132.96C156.185 132.96 173.163 62.3198 177.218 58.1775C183.493 51.7672 192.299 47.2462 189.465 53.724C186.631 60.2018 183.797 61.3284 183.797 61.3284C183.797 61.3284 191.489 67.655 186.226 72.4305" stroke="black" stroke-width="1.2" stroke-linecap="round" stroke-linejoin="round"/>
<path d="M194.356 48.5976C195.133 47.853 205.862 71.7398 192.299 85.3026C192.299 85.3026 216.591 273.563 98.2018 160.202" stroke="black" stroke-width="1.2" stroke-linecap="round" stroke-linejoin="round"/>
<path d="M51.5033 95.8285C51.5033 95.8285 40.4764 103.116 27.9258 153.319L21.8529 100.687C21.8529 100.687 27.9258 95.4236 27.9258 87.7313C27.9258 87.7313 37.2376 82.4681 34.4035 80.4438C31.5695 78.4195 19.4237 82.4681 14.1605 87.7313C8.8973 92.9945 -2.4388 150.485 2.01467 180.04C6.46814 209.594 24.6167 220.609 37.4049 210.648" stroke="black" stroke-width="1.2" stroke-linecap="round" stroke-linejoin="round"/>
<path d="M103.523 165.183C103.523 165.183 112.455 223.353 136.334 240.665V190.14C136.334 190.14 105.644 167.14 103.523 165.183Z" fill="black"/>
</svg>
