<svg width="697" height="662" viewBox="0 0 697 662" fill="none" xmlns="http://www.w3.org/2000/svg">
<mask id="mask0" mask-type="alpha" maskUnits="userSpaceOnUse" x="48" y="2" width="320" height="320">
<rect x="48" y="2" width="320" height="320" fill="#C4C4C4"/>
</mask>
<g mask="url(#mask0)">
</g>
<path d="M175.858 79.1793C176.537 79.1793 177.087 78.6834 177.087 78.0716C177.087 77.4598 176.537 76.9639 175.858 76.9639C175.179 76.9639 174.629 77.4598 174.629 78.0716C174.629 78.6834 175.179 79.1793 175.858 79.1793Z" fill="white"/>
<path d="M194.733 79.1793C195.412 79.1793 195.962 78.6834 195.962 78.0716C195.962 77.4598 195.412 76.9639 194.733 76.9639C194.055 76.9639 193.504 77.4598 193.504 78.0716C193.504 78.6834 194.055 79.1793 194.733 79.1793Z" fill="white"/>
<path d="M189.196 84.6802V67.6089H198.684" stroke="white" stroke-width="1.5"/>
<path d="M173.543 67.6087H183.031" stroke="white" stroke-width="1.5"/>
<path d="M158.887 82.2838C155.339 82.2838 152.463 79.6915 152.463 76.4937" stroke="white" stroke-width="1.5"/>
<path d="M201.821 101.052L155.86 111.235" stroke="white" stroke-width="1.5"/>
<path d="M189.196 84.6935L185.046 85.6129" stroke="white" stroke-width="1.5" stroke-linecap="round"/>
<path d="M159.835 74.8797C159.835 74.8797 164.889 71.6688 164.023 64.8131C163.156 57.9574 164.01 51.6265 175.858 50.3661C184.484 49.5686 193.151 49.1914 201.821 49.236" stroke="white" stroke-width="1.5"/>
<path d="M201.821 64.8136C201.821 64.8136 224.711 27.628 180.828 19.8177C136.946 12.0074 122.669 37.2284 125.465 56.7213C128.498 77.8678 143.428 84.0573 155.675 87.572" stroke="white" stroke-width="1.5"/>
<path d="M164.386 76.9639C164.379 84.0054 158.044 89.7104 150.232 89.7104C142.421 89.7104 136.086 84.0054 136.079 76.9639" stroke="white" stroke-width="1.5"/>
<path d="M127.96 129.447C127.96 129.447 89.9398 153.373 83.0081 215.856C76.0764 278.338 162.723 333.01 254.568 242.41C254.568 242.41 281.429 224.447 282.295 209.607C283.162 194.768 249.377 212.857 249.377 212.857C249.377 212.857 258.916 208.045 249.377 207.264C239.838 206.483 238.105 215.335 238.105 215.335L155.86 227.961L168.229 181.1" stroke="white" stroke-width="1.5"/>
<path d="M148.86 89.7217C148.86 89.7217 136.729 154.154 171.965 149.468C207.201 144.782 259.182 133.587 254.279 180.709" stroke="white" stroke-width="1.5"/>
<path d="M200.16 122.204C200.16 122.204 276.808 145.823 287.783 149.989C287.783 149.989 287.238 93.4987 282.312 89.7216C277.385 85.9444 268.143 71.6621 277.963 67.6085C277.963 67.6085 269.876 48.9681 275.363 49.2323C280.851 49.4964 282.006 57.3067 290.093 58.8688C298.18 60.4308 383.672 171.337 339.193 204.211C307.809 227.407 275.363 223.933 275.363 223.933" stroke="white" stroke-width="1.5"/>
</svg>
