<svg width="450" height="450" viewBox="0 0 450 450" fill="none" xmlns="http://www.w3.org/2000/svg">
<mask id="mask0" mask-type="alpha" maskUnits="userSpaceOnUse" x="0" y="0" width="450" height="450">
<rect width="450" height="450" fill="#C4C4C4"/>
</mask>
<g mask="url(#mask0)">
<path d="M435.267 5V231.308" stroke="white" stroke-width="1.5"/>
<path d="M554.905 118.154H315.63" stroke="white" stroke-width="1.5"/>
<path d="M318.673 118.154C318.673 57.2503 370.874 7.87842 435.267 7.87842" stroke="white" stroke-width="1.5"/>
<path d="M172.779 216.731V316.882L322.786 351.754V240.212C322.786 200.662 294.238 166.221 253.63 156.781H253.63C234.155 152.254 213.562 156.445 197.78 168.148C181.998 179.85 172.779 197.764 172.779 216.731L172.779 216.731Z" fill="#9D1111"/>
<path d="M202.485 118.119C202.485 130.475 211.404 141.235 224.09 144.184L250.976 150.434" stroke="white" stroke-width="1.5"/>
<path d="M229.877 114.948C230.593 114.948 231.174 114.399 231.174 113.721C231.174 113.044 230.593 112.495 229.877 112.495C229.161 112.495 228.581 113.044 228.581 113.721C228.581 114.399 229.161 114.948 229.877 114.948Z" fill="white"/>
<path d="M209.963 114.948C210.679 114.948 211.26 114.399 211.26 113.721C211.26 113.044 210.679 112.495 209.963 112.495C209.247 112.495 208.666 113.044 208.666 113.721C208.666 114.399 209.247 114.948 209.963 114.948Z" fill="white"/>
<path d="M215.805 121.037V102.139H205.795" stroke="white" stroke-width="1.5"/>
<path d="M232.32 102.138H222.31" stroke="white" stroke-width="1.5"/>
<path d="M204.237 99.0438H204.237" stroke="white" stroke-width="1.5"/>
<path d="M247.783 118.384C251.526 118.384 254.56 115.514 254.56 111.974" stroke="white" stroke-width="1.5"/>
<path d="M221.278 123.245C223.031 124.903 225.872 124.903 227.625 123.245" stroke="#FF6498" stroke-width="1.5" stroke-linecap="round" stroke-linejoin="round"/>
<path d="M215.805 121.052L220.183 122.069" stroke="white" stroke-width="1.5" stroke-linecap="round"/>
<path d="M202.485 96.8857C202.485 96.8857 216.674 95.1704 220.183 88.6719C220.183 88.6719 224.628 95.4447 231.174 94.8683C231.174 94.8683 234.977 102.218 241.681 100.921C241.681 100.921 241.161 107.82 247.783 109.279" stroke="white" stroke-width="1.5"/>
<path d="M202.485 109.278C202.485 109.278 174.033 93.4266 200.544 76.4225C227.054 59.4184 244.728 75.2697 244.728 75.2697C244.728 75.2697 261.792 79.7942 262.097 88.9161C262.097 88.9161 269.715 96.8851 267.277 104.378C267.277 104.378 276.812 128.011 251.171 135.505" stroke="white" stroke-width="1.5"/>
<path d="M251.171 138.963C254.564 138.581 257.799 137.391 260.573 135.505" stroke="#FF6498" stroke-width="1.5" stroke-linecap="round" stroke-linejoin="round"/>
<path d="M250.976 144.583V165.732C250.894 173.653 256.906 180.458 265.162 181.789C268.255 182.415 271.478 181.601 273.829 179.6C281.904 172.395 277.942 155.247 270.934 151.068C271.262 146.238 268.417 141.715 263.773 139.684" stroke="white" stroke-width="1.5"/>
<path d="M172.779 316.883L54.2784 507.291C54.2784 507.291 198.205 557.994 322.786 536.101V329.18" fill="#9D1111"/>
<path d="M295.57 178.893C295.57 178.893 338.66 214.257 344.145 260.082C344.145 260.082 352.294 140.693 355.037 135.505C357.779 130.318 362.35 154.968 362.35 154.968C362.35 154.968 396.174 165.767 378.805 189.112C378.805 189.112 425.831 327.45 322.786 341.284" stroke="white" stroke-width="1.5"/>
<path d="M202.485 164.965C202.485 164.965 166.415 182.194 137.771 244.447C137.771 244.447 90.2353 171.718 56.7162 160.817C23.1971 149.915 16.4933 148.646 15.2744 150.434C14.0555 152.221 32.3387 164.902 32.3387 164.902C32.3387 164.902 23.1971 191.843 51.2313 197.106C51.2313 197.106 55.5517 312.463 108.85 328.603C162.149 344.742 209.963 278.455 209.963 278.455" stroke="white" stroke-width="1.5"/>
</g>
</svg>
