<svg width="855" height="815" viewBox="0 0 855 815" fill="none" xmlns="http://www.w3.org/2000/svg">
<path opacity="0.5" d="M689.644 197.189C757.879 251.812 777.337 325.716 768.873 390.461C760.398 455.288 723.974 510.719 680.712 528.524C634.201 547.665 606.165 545.614 587.123 535.379C571.425 526.94 561.697 512.907 552.702 499.932C550.723 497.078 548.78 494.275 546.817 491.593C541.413 484.215 535.828 477.743 528.897 473.948C521.908 470.12 513.652 469.067 503.045 472.3C492.483 475.52 479.571 482.991 463.161 496.205C446.741 509.427 426.761 528.445 402.063 554.828C346.781 613.88 294.348 641.179 249.519 645.757C204.728 650.33 167.395 632.239 142.174 600.203C91.6905 536.08 89.662 415.875 174.536 309.854C221.937 250.643 295.467 178.188 384.766 142.691C473.984 107.227 579.006 108.619 689.644 197.189Z" stroke="#CA4141" stroke-width="2"/>
</svg>
