<svg width="362" height="417" fill="none" xmlns="http://www.w3.org/2000/svg"><g clip-path="url(#clip0)"><path fill="#CA4141" d="M26.788 22.323h334.85V417H26.788z"/><path fill="#000" d="M0 0h337.373v397.514H0z"/><path fill="#EDEEEF" d="M34.807 41.012h267.759v315.49H34.807z"/><path d="M126.246 132.182v68.97l85.165 21V105.761l-85.165-21v47.421z" fill="#EDEEEF"/><path d="M174.355 156.044a2.28 2.28 0 002.277-2.284 2.28 2.28 0 00-2.277-2.284 2.28 2.28 0 00-2.277 2.284 2.28 2.28 0 002.277 2.284zm-34.975 0a2.28 2.28 0 002.277-2.284 2.28 2.28 0 00-2.277-2.284 2.28 2.28 0 00-2.277 2.284 2.28 2.28 0 002.277 2.284z" fill="#000"/><path d="M205.802 150.221v12.226c6.573 0 11.902-5.347 11.902-11.941 0-.367-.016-.729-.048-1.087-.667-7.415-11.854-6.643-11.854.802z" fill="#EDEEEF"/><path d="M205.802 162.447c6.573-.001 11.902-5.347 11.902-11.942m-68.063 16.883v-35.206H132.06m46.585 0h-17.58m-31.741-5.764h0m66.187 91.813l15.9 3.921m-61.77-54.736l7.689 1.896" stroke="#000" stroke-width="1.5" stroke-linecap="round" stroke-linejoin="round"/><path d="M155.946 176.973a12.01 12.01 0 009.214.356 12.064 12.064 0 006.765-6.285" stroke="#FF6498" stroke-width="1.5" stroke-linecap="round" stroke-linejoin="round"/><path d="M63.784 345.658v20.604l263.454 12.303v10.836c0-73.679-50.138-137.839-121.458-155.424-72.24-17.813-141.996 37.05-141.996 111.681z" fill="#000"/><path d="M126.246 151.476s-17.096 50.289 5.814 66.755c22.911 16.466 91.033 6.873 72.554-60.618" stroke="#000" stroke-width="1.5" stroke-linecap="round" stroke-linejoin="round"/><path d="M136.364 168.316s-2.238 4.167 2.686 5.27c4.924 1.103 12.368-8.622 18.81-3.327 0 0 1.443-7.473 17.483-3.003 16.041 4.469 10.534-6.155 10.534-6.155m-65.761-53.218s5.776 24.916 58.529 10.113c0 0 3.19 13.57 12.27 14.186 9.08.617 8.702 9.726 8.702 9.726" stroke="#000" stroke-width="1.5" stroke-linecap="round" stroke-linejoin="round"/><path d="M126.246 132.182s-55.066-47.655 9.611-50.07c64.676-2.417 99.693 17.703 75.896 62.139M92.893 269.068l-75.58 52.46" stroke="#000" stroke-width="1.5" stroke-linecap="round" stroke-linejoin="round"/></g><defs><clipPath id="clip0"><path fill="#fff" d="M0 0h361.638v417H0z"/></clipPath></defs></svg>