<svg width="390" height="733" fill="none" xmlns="http://www.w3.org/2000/svg"><g clip-path="url(#clip0)"><path d="M205.855 151.381s20.879 19.506 50.715 44.569" stroke="#000" stroke-width="1.5" stroke-linecap="round" stroke-linejoin="round"/><path d="M239.962 388.566s113.246 327.083 0 518.627l12.064 34.012-97.287-41.173 12.178-272.1S90.112 457.616 97.673 424.625c7.562-32.99 9.328-81.192 9.328-81.192" fill="#E2E2E2"/><path d="M208.115 348.259s24.093 393.235-43.955 579.418l14.214 20.884H57.344S44.12 448.388 44.12 340.431l163.994 7.828zM174.988 44.008v51.104l-63.308 15.561V24.43l63.308-15.559v35.137z" fill="#EFEFEF"/><path d="M139.225 61.69a1.693 1.693 0 100-3.386 1.693 1.693 0 000 3.385zm25.999 0a1.693 1.693 0 100-3.386 1.693 1.693 0 000 3.385z" fill="#000"/><path d="M157.598 70.094V44.008h13.067m-34.629 0h13.069" stroke="#000" stroke-width="1.5" stroke-linecap="round" stroke-linejoin="round"/><path d="M115.849 57.374v9.059a8.848 8.848 0 01-8.812-9.653c.496-5.495 8.812-4.922 8.812.594z" fill="#EFEFEF"/><path d="M115.849 66.433a8.848 8.848 0 01-8.848-8.848" stroke="#000" stroke-width="1.5" stroke-linecap="round" stroke-linejoin="round"/><path d="M151.881 76.525a8.955 8.955 0 01-8.955-8.955" stroke="#CA4141" stroke-width="1.5" stroke-linecap="round" stroke-linejoin="round"/><path d="M174.987 95.112l-63.308 15.561m45.918-40.558l-5.716 1.405" stroke="#000" stroke-width="1.5" stroke-linecap="round" stroke-linejoin="round"/><path d="M115.849 56.114s8.068-14.72 8.466-21.284l2.188 9.178s14.919-4.603 24.069-15.94v11.669s17.6-3.713 22.127-15.45v10.941s5.522-3.78 6.914-9.548" stroke="#CA4141" stroke-width="1.5" stroke-linecap="round" stroke-linejoin="round"/><path d="M174.987 45.174s32.166-34.125-11.456-43.562c-31.26-6.763-47.683 9.945-47.683 9.945s-10.828 5.172-15.204 13.924c-4.376 8.752-6.177 31.23 11.035 47.938" stroke="#CA4141" stroke-width="1.5" stroke-linecap="round" stroke-linejoin="round"/><path d="M44.121 202.187v138.244l195.841 48.135V234.599c0-54.594-37.27-102.134-90.286-115.164h-.001a85.215 85.215 0 00-105.554 82.752z" fill="#CA4141"/><path d="M174.987 306.57s.109-113.86 64.975-114.588c64.866-.728 42.293-75.051 42.293-75.051l106.314 24.079s17.476 101.944-72.09 132.51c-45.77 15.62-26.185 122.14-26.185 122.14l-117.595-13.624v-15.701" fill="#EFEFEF"/><path d="M388.568 141.01s17.477 101.945-72.089 132.511c-45.77 15.619-26.185 122.139-26.185 122.139M60.897 151.381S-.623 231.953.172 326.636c.795 94.683 147.196 85.931 202.891 10.343 0 0 36.6-25.46 31.031-31.03-5.57-5.57-29.951-.245-29.951-.245s4.49-12.883-2.273-9.701c-6.763 3.183-15.828 9.832-15.828 9.832l-88.893 5.906 20.268-82.97m90.698 119.488s24.093 393.235-43.955 579.418" stroke="#000" stroke-width="1.5" stroke-linecap="round" stroke-linejoin="round"/><path d="M60.897 151.381S-.623 231.953.172 326.636c.795 94.683 147.196 85.931 202.891 10.343 0 0 36.6-25.46 31.031-31.03-5.57-5.57-29.951-.245-29.951-.245s4.49-12.883-2.273-9.701c-6.763 3.183-15.828 9.832-15.828 9.832l-88.893 5.906 20.268-82.97" stroke="#000" stroke-width="1.5" stroke-linecap="round" stroke-linejoin="round"/><path d="M45.721 390.068v67.051c94.88-22.282 142.487-103.428 142.487-103.428l-.004-.001c-38.738 36.562-100.407 50.879-142.483 36.378z" fill="#000"/><path d="M272.086 374.972s68.625 19.096 82.35-12.531c13.725-31.628-10.741-118.752-10.741-118.752s7.161-15.515 3.58-19.692c-3.58-4.177-7.161 0-7.161 0s-5.669-27.45-14.321-25.362c-8.653 2.089-14.709 50.386-17.978 84.059" stroke="#000" stroke-width="1.5" stroke-linecap="round" stroke-linejoin="round"/></g><defs><clipPath id="clip0"><path fill="#fff" d="M.164 0h389.781v948.561H.164z"/></clipPath></defs></svg>