<svg width="389" height="222" fill="none" xmlns="http://www.w3.org/2000/svg"><path d="M124.938 46.352l-3.182 6.47-7.114 1.037 5.148 5.035-1.216 7.11 6.364-3.356 6.363 3.356-1.216-7.11 5.148-5.035-7.114-1.037-3.181-6.47z" fill="#EDEEEF"/><path d="M130.085 58.895l5.148-5.036m-10.295-7.507l-3.182 6.47-7.114 1.037 5.148 5.035-1.216 7.11 6.364-3.356 6.363 3.356" stroke="#000" stroke-width=".8"/><path d="M96.526 46.352l-3.181 6.47-7.115 1.037 5.148 5.035-1.215 7.11 6.363-3.356 6.364 3.356-1.216-7.11 5.148-5.035-7.114-1.037-3.182-6.47z" fill="#CA4141"/><path d="M101.674 58.895l5.148-5.036m-10.296-7.507l-3.181 6.47-7.115 1.037 5.148 5.035-1.215 7.11 6.363-3.356 6.364 3.356" stroke="#000" stroke-width=".8"/><path d="M68.116 46.352l-3.18 6.47-7.115 1.037 5.148 5.035-1.216 7.11 6.363-3.356 6.364 3.356-1.215-7.11 5.148-5.035-7.115-1.037-3.182-6.47z" fill="#CA4141"/><path d="M73.265 58.895l5.148-5.036m-10.296-7.507l-3.182 6.47-7.114 1.037 5.148 5.035-1.216 7.11 6.364-3.356 6.363 3.356" stroke="#000" stroke-width=".8"/><path d="M39.706 46.352l-3.182 6.47-7.114 1.037 5.148 5.035-1.215 7.11 6.363-3.356 6.363 3.356-1.215-7.11 5.148-5.035-7.115-1.037-3.181-6.47z" fill="#CA4141"/><path d="M44.854 58.895l5.148-5.036m-10.296-7.507l-3.182 6.47-7.114 1.037 5.148 5.035-1.215 7.11 6.363-3.356 6.363 3.356" stroke="#000" stroke-width=".8"/><path d="M11.296 46.352l-3.182 6.47L1 53.859l5.148 5.035-1.216 7.11 6.364-3.356 6.363 3.356-1.215-7.11 5.148-5.035-7.114-1.037-3.182-6.47z" fill="#CA4141"/><path d="M16.444 58.895l5.148-5.036m-10.296-7.507l-3.182 6.47L1 53.859l5.148 5.035-1.216 7.11 6.364-3.356 6.363 3.356" stroke="#000" stroke-width=".8"/><path d="M148.494 380.428h28.688v-12.179h29.311v-14.395l21.829-19.377h33.053V278.56h43.032v-69.205l54.258 48.167v91.903h28.688v40.71h11.85v-11.367h21.204v22.734H134.149v-8.34l14.345-12.734z" fill="#F4F4F4"/><path d="M128.422 165.877s-27.56 95.552-39.406 210.736l-8.614 5.75 37.599 17.989 48.045-132.384 7.757-106.912" fill="#E2E2E2"/><path d="M139.78 164.747l53.694-3.691 9.764 3.99 4.588 235.306h-49.872l5.273-9.483-23.447-226.122zm11.3-113.161v8.505c0 6.576 4.474 12.303 10.838 13.872l13.487 3.327V44.038l-11.215-2.766a10.555 10.555 0 00-9.056 1.955 10.632 10.632 0 00-4.054 8.359z" fill="#EDEEEF"/><path d="M151.08 60.09c0 6.577 4.474 12.303 10.838 13.873l13.487 3.327" stroke="#000" stroke-width=".8"/><path d="M164.82 58.403a.652.652 0 10-.001-1.303.652.652 0 00.001 1.303zm-9.989 0a.652.652 0 000-1.305.651.651 0 00-.65.653c0 .36.291.652.65.652z" fill="#000"/><path d="M157.762 61.644V51.586h-3.844m12.128 0h-5.022" stroke="#000" stroke-width=".8"/><path d="M173.803 56.74v3.492a3.406 3.406 0 003.386-3.722c-.19-2.118-3.386-1.898-3.386.23z" fill="#EDEEEF"/><path d="M173.803 60.232c1.878 0 3.4-1.527 3.4-3.411" stroke="#000" stroke-width=".8"/><path d="M160.507 62.82a2.246 2.246 0 003.184 0" stroke="#CA4141" stroke-width=".8" stroke-linecap="round" stroke-linejoin="round"/><path d="M157.762 61.652l2.196.541" stroke="#000" stroke-width=".8" stroke-linecap="round"/><path d="M128.421 112.575v53.302l75.249 18.559v-59.364c0-21.05-14.32-39.38-34.691-44.404a32.653 32.653 0 00-28.016 6.05 32.899 32.899 0 00-12.542 25.857z" fill="#CA4141"/><path d="M163.226 390.87l-23.447-226.123M150.564 57.75l-7.452-4.1s10.892-31.29 33.247-17.486c22.356 13.805-.954 29.566-.954 29.566" stroke="#000" stroke-width=".8"/><path d="M150.029 52.347s14.792-2.393 19.944-9.65c0 0-2.096 10.508 4.113 13.07m11.968 33.188s25.501 17.995 36.507 43.114c0 0-3.898-46.207 1.605-53.8 2.905-4.008 6.191 1.433 6.191 1.433s14.445-6.034 14.904-3.733c.458 2.3-8.025 11.044-8.025 11.044s12.381 57.198 2.751 73.534c-9.63 16.336-58.468-16.244-58.468-16.244" stroke="#000" stroke-width=".8"/><path d="M186.78 147.625s.102 22.433 16.89 31.976v-22.685l-16.89-9.291z" fill="#000"/><path d="M141.273 86.48s-22.656 16.848-26.936 33.808c0 0-7.031-45.902-11.006-44.842-3.974 1.06-4.891 4.257-4.891 4.257s-12.535-6.58-14.369-4.276C82.237 77.733 95.077 90.31 95.077 90.31s-7.768 54.855 1.223 62.276c18.954 15.646 32.122-6.749 32.122-6.749" stroke="#000" stroke-width=".8"/><path d="M305.059 80.872l-18.83 19.185V80.872h18.83z" fill="#E2E2E2"/><path d="M286.229 100.057V80.872" stroke="#000" stroke-width=".8"/><path fill="#EDEEEF" d="M379.901 83.92H255.318V0h124.583z"/><path d="M255.317 0v83.92h30.912" stroke="#000" stroke-width=".8"/><path fill="#CA4141" d="M346 45.803h-7.658v-7.685H346zm-24.562 0h-7.658v-7.685h7.658zm-24.562 0h-7.658v-7.685h7.658z"/></svg>