<svg width="328" height="240" fill="none" xmlns="http://www.w3.org/2000/svg"><path d="M161.095 39.49v41.126l-48.311 12.522V23.736l48.311-12.523V39.49z" fill="#CA4141"/><path d="M133.804 53.72c.714 0 1.292-.61 1.292-1.363 0-.752-.578-1.362-1.292-1.362-.713 0-1.291.61-1.291 1.362 0 .752.578 1.362 1.291 1.362zm19.841 0c.713 0 1.291-.61 1.291-1.363 0-.752-.578-1.362-1.291-1.362-.714 0-1.292.61-1.292 1.362 0 .752.578 1.362 1.292 1.362z" fill="#fff"/><path d="M147.824 60.483V39.49h9.972m-26.425 0h9.973" stroke="#fff" stroke-width="1.5" stroke-linecap="round" stroke-linejoin="round"/><path d="M115.966 50.246v7.29c-1.791 0-3.509-.75-4.775-2.085-1.266-1.336-1.977-3.147-1.977-5.035 0-.218.009-.435.027-.648.379-4.422 6.725-3.961 6.725.478z" fill="#CA4141"/><path d="M115.966 57.537c-3.729 0-6.752-3.188-6.752-7.12" stroke="#fff" stroke-width="1.5" stroke-linecap="round" stroke-linejoin="round"/><path d="M143.462 65.658c-3.774 0-6.833-3.226-6.833-7.206" stroke="#CA4141" stroke-width="1.5" stroke-linecap="round" stroke-linejoin="round"/><path d="M161.095 80.616l-48.311 12.522m35.04-32.638l-4.362 1.13m-26.045-15.649s7.59-7.363 9.26-15.847c0 0 12.599 3.361 19.581 1.92v-4.482s8.501 3.522 17.001 1.921v-4.802" stroke="#fff" stroke-width="1.5" stroke-linecap="round" stroke-linejoin="round"/><path d="M163.259 20.69h5.313S158.25-4.283 118.48 6.762L121.364 1s-11.84 2.081-12.295 13.126c0 0-2.277-1.44-6.224 2.561l3.339 2.081s-7.749 28.814 6.6 44.5" stroke="#fff" stroke-width="1.5" stroke-linecap="round" stroke-linejoin="round"/><path d="M65.32 166.784v111.251l149.45 38.736V192.867c0-43.934-28.442-82.192-68.899-92.678-19.402-5.029-39.919-.373-55.643 12.626-15.723 12.999-24.908 32.899-24.908 53.969z" fill="#CA4141"/><path d="M93.185 110.51S9.188 176.442 1.295 262.241c-7.894 85.8 145.164 119.736 173.98-26.252 0 0 14.852-9.604 9.994-24.331 0 0 11.858-8.964 8.358-12.166-3.5-3.201-121.293 54.425-121.293 54.425l43.632-49.943m81.556-67.147s40.418 39.802 50.74 86.543c0 0 7.44-76.854 16.548-86.543 9.107-9.689 13.358 0 13.358 0s31.573-14.931 31.573-4.306-20.644 22.15-20.644 22.15 41.394 208.737-74.326 154.312" stroke="#fff" stroke-width="1.5" stroke-linecap="round" stroke-linejoin="round"/><path d="M284.96 122.016c23.536 0 42.616-20.121 42.616-44.94 0-24.821-19.08-44.942-42.616-44.942s-42.616 20.121-42.616 44.941c0 24.82 19.08 44.941 42.616 44.941z" fill="#CA4141"/></svg>