<svg width="331" height="508" fill="none" xmlns="http://www.w3.org/2000/svg"><path d="M156.762 112.451S108.247 148.05 99.82 159.09c0 0-30.02-42.721-44.24-36.961-14.22 5.76-28.968 18.241-24.228 19.201 4.74.96 12.114-1.44 12.114-1.44s1.518 15.36 9.976 14.4" stroke="#000" stroke-width="1.5" stroke-linecap="round" stroke-linejoin="round"/><path d="M259.825 280.068s21.264 316.318-38.794 466.084l12.545 16.799h-106.82s-11.67-402.34-11.67-489.18l144.739 6.297z" fill="#CA4141"/><path d="M204.351 485.507l-5.045-226.077 88.627 14.341s86.239 239.096 10.401 298.135C222.496 630.945 88.2 639.585 88.2 639.585l-17.38 24.48-17.378-107.999 150.909-70.559z" fill="#CA4141"/><path d="M53.441 556.066l150.91-70.559m83.582-211.736s86.239 239.095 10.401 298.135C222.496 630.945 88.2 639.585 88.2 639.585" stroke="#000" stroke-width="1.5" stroke-linecap="round" stroke-linejoin="round"/><path d="M183.958 35.329v41.108l55.875 12.517V19.58L183.958 7.064V35.33z" fill="#ECECEC"/><path d="M215.521 49.551c-.825 0-1.494-.61-1.494-1.361 0-.752.669-1.362 1.494-1.362s1.494.61 1.494 1.362c0 .752-.669 1.361-1.494 1.361zm-22.947 0c-.825 0-1.494-.61-1.494-1.361 0-.752.669-1.362 1.494-1.362s1.494.61 1.494 1.362c0 .752-.669 1.361-1.494 1.361z" fill="#000"/><path d="M199.306 56.312V35.33h-11.533m30.562-.001h-11.534" stroke="#000" stroke-width="1.5" stroke-linecap="round" stroke-linejoin="round"/><path d="M236.153 46.08v7.287c4.313 0 7.809-3.186 7.809-7.117 0-.218-.011-.434-.032-.648-.437-4.42-7.777-3.96-7.777.478z" fill="#ECECEC"/><path d="M236.153 53.367c4.313 0 7.809-3.186 7.809-7.117" stroke="#000" stroke-width="1.5" stroke-linecap="round" stroke-linejoin="round"/><path d="M204.352 61.485c4.365 0 7.903-3.225 7.903-7.203" stroke="#CA4141" stroke-width="1.5" stroke-linecap="round" stroke-linejoin="round"/><path d="M183.958 76.437l55.875 12.517M199.306 56.33l5.045 1.13m31.801-11.38s-7.648-6.514-7.297-23.155h-44.898" stroke="#000" stroke-width="1.5" stroke-linecap="round" stroke-linejoin="round"/><path d="M183.957 30.445s-11.105-5.6-4.784-26.88c0 0 49.156-9.92 63.728 13.44l2.633-8.48s23.885 37.921-5.701 56.642" stroke="#000" stroke-width="1.5" stroke-linecap="round" stroke-linejoin="round"/><path d="M287.934 162.568v111.203l-172.848 38.72V188.64c0-43.915 32.895-82.157 79.686-92.638 22.44-5.027 46.169-.373 64.354 12.62 18.185 12.994 28.808 32.885 28.808 53.945v.001z" fill="#ECECEC"/><path d="M130.717 215.903l-24.577-89.134s-48.454 4.48-58.988 32.001c0 0-23.174-14.72-46.347-8.96l38.623 95.363 62.047 12.487" fill="#CA4141"/><path d="M268.411 116.484s60.338 46.766 23.119 147.25c-37.218 100.484-233.595-17.359-231.035-49.282 1.667-20.8 27.705-4.513 27.705-4.513s.647-12.62 5.563-5.247c4.915 7.373 6.234 11.034 6.234 11.034l112.258.646.313-46.081M53.442 217.172s-6.29 77.283 63.232 70.563" stroke="#000" stroke-width="1.5" stroke-linecap="round" stroke-linejoin="round"/></svg>