<svg width="234" height="497" fill="none" xmlns="http://www.w3.org/2000/svg"><path d="M183.244 53.113L159.91 48.61 234 12.934l-31.276 56.312-7.287-7.918-5.426 9.602-3.431-12.15" fill="#CA4141"/><path d="M88.857 495.597l-3.604-346.933-47.848 61.985s-10.946 181.216 0 272.434l-12.92 12.514h64.372z" fill="#E2E2E2"/><path d="M53.61 190.139S41.35 390.233 75.976 484.971l-7.233 10.626h61.586s6.728-254.508 6.728-309.441l-83.447 3.983zm46.791-154.815v26.003l-32.214 7.918V25.362l32.214-7.918v17.88z" fill="#EDEEEF"/><path d="M82.204 44.322a.861.861 0 100-1.723.861.861 0 000 1.723zm13.229 0a.861.861 0 100-1.723.861.861 0 000 1.723z" fill="#000"/><path d="M91.552 48.597V35.324h6.65m-17.621.001h6.65" stroke="#000" stroke-width="1.2" stroke-linecap="round" stroke-linejoin="round"/><path d="M70.309 42.126v4.61a4.502 4.502 0 01-4.484-4.913c.252-2.796 4.484-2.505 4.484.303z" fill="#EDEEEF"/><path d="M70.309 46.734a4.502 4.502 0 01-4.502-4.502" stroke="#000" stroke-width="1.2" stroke-linecap="round" stroke-linejoin="round"/><path d="M88.644 51.87a4.557 4.557 0 01-4.557-4.556" stroke="#CA4141" stroke-width="1.2" stroke-linecap="round" stroke-linejoin="round"/><path d="M100.401 61.328l-32.214 7.918m23.365-20.638l-2.909.715" stroke="#000" stroke-width="1.2" stroke-linecap="round" stroke-linejoin="round"/><path d="M137.057 115.812v70.344l-99.652 24.493v-78.345c0-27.779 18.965-51.97 45.942-58.6a43.362 43.362 0 0153.71 42.108z" fill="#CA4141"/><path d="M53.61 190.139S41.35 390.234 75.976 484.971l-7.233 10.626m31.658-463.736s11.533-4.453 4.448-23.684c-4.426-12.015-10.537-6.567-14.5-.787a16.263 16.263 0 01-11.48 6.884c-7.093.86-16.052 5.273-11.672 23.053" stroke="#000" stroke-width="1.2" stroke-linecap="round" stroke-linejoin="round"/><path d="M70.309 42.125s5.492-4.14 3.214-12.339c0 0 26.428-1.508 26.878-10.622m6.75 55.408s29.906 9.112 49.034 58.388c0 0 16.978-70.64 21.033-74.782 6.275-6.41 15.081-10.932 12.247-4.454-2.834 6.478-5.668 7.604-5.668 7.604s7.692 6.327 2.429 11.102" stroke="#000" stroke-width="1.2" stroke-linecap="round" stroke-linejoin="round"/><path d="M194.356 48.598c.777-.745 11.506 23.142-2.057 36.705 0 0 24.292 188.26-94.097 74.899M51.503 95.829s-11.027 7.287-23.577 57.49l-6.073-52.632s6.073-5.263 6.073-12.956c0 0 9.312-5.263 6.478-7.287-2.835-2.025-14.98 2.024-20.244 7.287-5.263 5.264-16.599 62.754-12.145 92.309 4.453 29.554 22.602 40.569 35.39 30.608" stroke="#000" stroke-width="1.2" stroke-linecap="round" stroke-linejoin="round"/><path d="M103.523 165.183s8.932 58.17 32.811 75.482V190.14s-30.69-23-32.811-24.957z" fill="#000"/></svg>