<svg width="450" height="450" fill="none" xmlns="http://www.w3.org/2000/svg"><mask id="a" maskUnits="userSpaceOnUse" x="0" y="0" width="450" height="450"><path fill="#C4C4C4" d="M0 0h450v450H0z"/></mask><g mask="url(#a)"><path d="M435.267 5v226.308m119.638-113.154H315.63m3.043 0c0-60.904 52.201-110.276 116.594-110.276" stroke="#fff" stroke-width="1.5"/><path d="M172.779 216.731v100.151l150.007 34.872V240.212c0-39.55-28.548-73.991-69.156-83.431-19.475-4.527-40.068-.336-55.85 11.367-15.782 11.702-25.001 29.616-25.001 48.583z" fill="#9D1111"/><path d="M202.485 118.119c0 12.356 8.919 23.116 21.605 26.065l26.886 6.25" stroke="#fff" stroke-width="1.5"/><path d="M229.877 114.948c.716 0 1.297-.549 1.297-1.227 0-.677-.581-1.226-1.297-1.226s-1.296.549-1.296 1.226c0 .678.58 1.227 1.296 1.227zm-19.914 0c.716 0 1.297-.549 1.297-1.227 0-.677-.581-1.226-1.297-1.226s-1.297.549-1.297 1.226c0 .678.581 1.227 1.297 1.227z" fill="#fff"/><path d="M215.805 121.037v-18.898h-10.01m26.525-.001h-10.01m-18.073-3.094h0m43.546 19.34c3.743 0 6.777-2.87 6.777-6.41" stroke="#fff" stroke-width="1.5"/><path d="M221.278 123.245c1.753 1.658 4.594 1.658 6.347 0" stroke="#FF6498" stroke-width="1.5" stroke-linecap="round" stroke-linejoin="round"/><path d="M215.805 121.052l4.378 1.017" stroke="#fff" stroke-width="1.5" stroke-linecap="round"/><path d="M202.485 96.886s14.189-1.716 17.698-8.214c0 0 4.445 6.773 10.991 6.196 0 0 3.803 7.35 10.507 6.053 0 0-.52 6.899 6.102 8.358" stroke="#fff" stroke-width="1.5"/><path d="M202.485 109.278s-28.452-15.851-1.941-32.856c26.51-17.004 44.184-1.152 44.184-1.152s17.064 4.524 17.369 13.646c0 0 7.618 7.97 5.18 15.462 0 0 9.535 23.633-16.106 31.127" stroke="#fff" stroke-width="1.5"/><path d="M251.171 138.963a20.887 20.887 0 009.402-3.458" stroke="#FF6498" stroke-width="1.5" stroke-linecap="round" stroke-linejoin="round"/><path d="M250.976 144.583v21.149c-.082 7.921 5.93 14.726 14.186 16.057 3.093.626 6.316-.188 8.667-2.189 8.075-7.205 4.113-24.353-2.895-28.532.328-4.83-2.517-9.353-7.161-11.384" stroke="#fff" stroke-width="1.5"/><path d="M172.779 316.883l-118.5 190.408s143.926 50.703 268.507 28.81V329.18" fill="#9D1111"/><path d="M295.57 178.893s43.09 35.364 48.575 81.189c0 0 8.149-119.389 10.892-124.577 2.742-5.187 7.313 19.463 7.313 19.463s33.824 10.799 16.455 34.144c0 0 47.026 138.338-56.019 152.172M202.485 164.965s-36.07 17.229-64.714 79.482c0 0-47.536-72.729-81.055-83.63-33.519-10.902-40.223-12.171-41.442-10.383-1.218 1.787 17.065 14.468 17.065 14.468s-9.142 26.941 18.892 32.204c0 0 4.32 115.357 57.619 131.497 53.299 16.139 101.113-50.148 101.113-50.148" stroke="#fff" stroke-width="1.5"/></g></svg>