<svg width="697" height="662" fill="none" xmlns="http://www.w3.org/2000/svg"><path d="M175.858 79.18c.679 0 1.229-.497 1.229-1.108 0-.612-.55-1.108-1.229-1.108s-1.229.496-1.229 1.108c0 .611.55 1.107 1.229 1.107zm18.875 0c.679 0 1.229-.497 1.229-1.108 0-.612-.55-1.108-1.229-1.108-.678 0-1.229.496-1.229 1.108 0 .611.551 1.107 1.229 1.107z" fill="#fff"/><path d="M189.196 84.68V67.61h9.488m-25.141-.001h9.488m-24.144 14.675c-3.548 0-6.424-2.593-6.424-5.79m49.358 24.558l-45.961 10.183" stroke="#fff" stroke-width="1.5"/><path d="M189.196 84.694l-4.15.919" stroke="#fff" stroke-width="1.5" stroke-linecap="round"/><path d="M159.835 74.88s5.054-3.211 4.188-10.067c-.867-6.856-.013-13.187 11.835-14.447a267.134 267.134 0 0125.963-1.13" stroke="#fff" stroke-width="1.5"/><path d="M201.821 64.814s22.89-37.186-20.993-44.996c-43.882-7.81-58.159 17.41-55.363 36.903 3.033 21.147 17.963 27.336 30.21 30.851" stroke="#fff" stroke-width="1.5"/><path d="M164.386 76.964c-.007 7.041-6.342 12.746-14.154 12.746-7.811 0-14.146-5.705-14.153-12.746m-8.119 52.483s-38.02 23.926-44.952 86.409c-6.932 62.482 79.715 117.154 171.56 26.554 0 0 26.861-17.963 27.727-32.803.867-14.839-32.918 3.25-32.918 3.25s9.539-4.812 0-5.593c-9.539-.781-11.272 8.071-11.272 8.071l-82.245 12.626 12.369-46.861" stroke="#fff" stroke-width="1.5"/><path d="M148.86 89.722s-12.131 64.432 23.105 59.746c35.236-4.686 87.217-15.881 82.314 31.241" stroke="#fff" stroke-width="1.5"/><path d="M200.16 122.204s76.648 23.619 87.623 27.785c0 0-.545-56.49-5.471-60.267-4.927-3.778-14.169-18.06-4.349-22.113 0 0-8.087-18.64-2.6-18.377 5.488.264 6.643 8.075 14.73 9.637 8.087 1.562 93.579 112.468 49.1 145.342-31.384 23.196-63.83 19.722-63.83 19.722" stroke="#fff" stroke-width="1.5"/></svg>