<svg width="855" height="815" fill="none" xmlns="http://www.w3.org/2000/svg"><path opacity=".5" d="M689.644 197.189c68.235 54.623 87.693 128.527 79.229 193.272-8.475 64.827-44.899 120.258-88.161 138.063-46.511 19.141-74.547 17.09-93.589 6.855-15.698-8.439-25.426-22.472-34.421-35.447-1.979-2.854-3.922-5.657-5.885-8.339-5.404-7.378-10.989-13.85-17.92-17.645-6.989-3.828-15.245-4.881-25.852-1.648-10.562 3.22-23.474 10.691-39.884 23.905-16.42 13.222-36.4 32.24-61.098 58.623-55.282 59.052-107.715 86.351-152.544 90.929-44.791 4.573-82.124-13.518-107.345-45.554-50.484-64.123-52.512-184.328 32.362-290.349 47.401-59.211 120.931-131.666 210.23-167.163 89.218-35.464 194.24-34.072 304.878 54.498z" stroke="#CA4141" stroke-width="2"/></svg>