<svg width="400" height="400" fill="none" xmlns="http://www.w3.org/2000/svg"><g clip-path="url(#clip0)"><mask id="a" maskUnits="userSpaceOnUse" x="0" y="0" width="521" height="427"><path fill="#C4C4C4" d="M0 0h521v427H0z"/></mask><g mask="url(#a)"><path d="M266.502 728.489l-29.733-455.025-74.387-7.883-22.236 91.318 5.77 165.532 42.102 225.649h88.906l-10.422-19.591z" fill="#CA4141"/><path d="M212.63 271.168l-114.394-7.502-20.8 8.11-9.776 478.217h106.251l-11.234-19.271 49.953-459.554z" fill="#CA4141"/><path d="M124.725 41.187v17.285c0 13.365 9.532 25.003 23.09 28.193l28.734 6.76V25.847l-23.892-5.62c-6.728-1.584-13.842-.118-19.295 3.974-5.452 4.091-8.637 10.355-8.637 16.987z" fill="#EDEEEF"/><path d="M124.725 58.472c0 13.365 9.532 25.003 23.09 28.193l28.734 6.76" stroke="#000" stroke-width="1.5" stroke-linecap="round" stroke-linejoin="round"/><path d="M154 55.042c.765 0 1.386-.594 1.386-1.326 0-.733-.621-1.327-1.386-1.327-.765 0-1.386.594-1.386 1.327 0 .732.621 1.326 1.386 1.326zm-21.283 0c.765 0 1.385-.594 1.385-1.326 0-.733-.62-1.327-1.385-1.327-.766 0-1.386.594-1.386 1.327 0 .732.62 1.326 1.386 1.326z" fill="#000"/><path d="M138.961 61.628v-20.44h-10.698m28.347-.001h-10.698" stroke="#000" stroke-width="1.5" stroke-linecap="round" stroke-linejoin="round"/><path d="M173.136 51.66v7.1c4 0 7.243-3.105 7.243-6.934 0-.213-.01-.423-.03-.631-.406-4.305-7.213-3.857-7.213.466z" fill="#EDEEEF"/><path d="M173.136 58.76c4 0 7.243-3.105 7.243-6.934" stroke="#000" stroke-width="1.5" stroke-linecap="round" stroke-linejoin="round"/><path d="M144.81 64.017a4.905 4.905 0 003.391 1.344 4.91 4.91 0 003.392-1.344" stroke="#CA4141" stroke-width="1.5" stroke-linecap="round" stroke-linejoin="round"/><path d="M138.961 61.645l4.679 1.1" stroke="#000" stroke-width="1.5" stroke-linecap="round" stroke-linejoin="round"/><path d="M236.768 165.136v108.328L76.453 311.182V190.534c0-42.78 30.509-80.032 73.908-90.243 20.813-4.897 42.822-.363 59.688 12.295 16.867 12.657 26.719 32.034 26.719 52.55z" fill="#EDEEEF"/><path d="M162.677 730.722l49.953-459.554" stroke="#000" stroke-width="1.5" stroke-linecap="round" stroke-linejoin="round"/><path d="M122.407 48.183S84.793 30.79 94.074 15.358C103.355-.073 184.69 3.995 214 31.77c29.309 27.776-19.296 30.976-19.296 30.976M144.81 7.197s31.147-21.714 45.283 10.291" stroke="#CA4141" stroke-width="1.5" stroke-linecap="round" stroke-linejoin="round"/><path d="M124.725 45.206c10.832-.252 20.517-6.524 24.793-16.054 0 0 6.203 19.484 23.618 20.107m13.345-8.072s10.258 16.021 9.118 33.634c-5.753 3.318-12.333 5.094-19.049 5.144m-64.99 39.038s-80.746 65.455-90.516 220.435c-9.77 154.981 9.77 134.347 15.632 130.626 5.862-3.72 21.493-28.971 21.493-28.971s1.708-7.038 9.49-2.806c25.08 13.642 8.33-17.873 6.773-19.59l14.841-75.32c5.174-21.389 12.967-42.118 23.218-61.757l40.123-76.864m74.086-74.239s88.462 120.102 14.677 213.478" stroke="#000" stroke-width="1.5" stroke-linecap="round" stroke-linejoin="round"/></g></g><defs><clipPath id="clip0"><path fill="#fff" d="M0 0h400v400H0z"/></clipPath></defs></svg>