<svg width="400" height="400" fill="none" xmlns="http://www.w3.org/2000/svg"><g clip-path="url(#clip0)"><path fill-rule="evenodd" clip-rule="evenodd" d="M42.03 246.243c-2.855-8.686-3.908-18.259-3.387-28.417.36-6.739 1.386-13.768 3.1-20.934 6.131-26.391 20.814-54.945 40.719-81.111a278.313 278.313 0 0114.131-17.182c36.775-41.513 85.897-73.57 131.908-74.983 83.993-2.594 126.149 55.219 161.543 119.013 14.37 25.871 3.023 52.526-23.18 76.707-6.117 5.655-13.036 11.152-20.621 16.492-28.539 20.026-66.522 37.567-106.727 50.473C160.58 311.626 64.35 314.416 42.03 246.243" fill="#ADC1D3"/><mask id="a" maskUnits="userSpaceOnUse" x="-36" y="6" width="589" height="371"><path fill="#C4C4C4" d="M-36 6.901h588.728v370.098H-36z"/></mask><g mask="url(#a)"><path d="M163.406 203.436l-50.53 3.339 58.277 106.624-43.726 124.394 56.096 36.829-.547-18.423s38.063-42.523 67.009-138.357c28.945-95.835-86.579-114.406-86.579-114.406z" fill="#E2E2E2"/><path d="M206.053 300.706l-34.489-6.347-8.703 3.869 8.292 15.171-9.009 25.629s36.867 15.442 57.556 57.367a473.415 473.415 0 005.181-11.066c-5.571-31.244-18.828-84.623-18.828-84.623z" fill="#8B8B8B"/><path d="M366.958 185.76H206.155l11.03-99.41h160.803l-11.03 99.41z" fill="#EDEEEF"/><path clip-rule="evenodd" d="M360.573 177.281H199.77l11.03-99.41h160.803l-11.03 99.41z" stroke="#8B8B8B" stroke-width="1.5" stroke-linecap="round" stroke-linejoin="round"/><path d="M291.172 214.969l4.182-37.688h-25.717l-4.182 37.688h25.717z" fill="#8B8B8B"/><path d="M294.327 435.255s-11.274-224.937-160.942-224.217l-71.038 17.994s-17.661 99.818 130.14 94.107l53.578 142.792 58.197-20.943-9.935-9.733z" fill="#EDEEEF"/><path d="M294.327 435.255s-11.274-224.937-160.942-224.217m-71.038 17.994s-17.661 99.818 130.14 94.107l53.578 142.792" stroke="#8B8B8B" stroke-width="1.5" stroke-linecap="round" stroke-linejoin="round"/><path d="M129.211 45.804v27.177l-32.669 8.274V35.394l32.669-8.275v18.685z" fill="#EDEEEF"/><path d="M110.757 55.207a.887.887 0 00.873-.9c0-.498-.391-.9-.873-.9a.887.887 0 00-.874.9c0 .497.391.9.874.9zm13.416 0a.888.888 0 00.874-.9c0-.498-.392-.9-.874-.9a.887.887 0 00-.873.9c0 .497.391.9.873.9z" fill="#8B8B8B"/><path d="M120.236 59.677V45.804h6.744m-17.869 0h6.744" stroke="#8B8B8B" stroke-width="1.5" stroke-linecap="round" stroke-linejoin="round"/><path d="M98.694 52.912v4.818c-2.522 0-4.566-2.107-4.566-4.706 0-.144.006-.287.019-.428.256-2.922 4.547-2.617 4.547.316z" fill="#EDEEEF"/><path d="M98.694 57.73c-2.522 0-4.566-2.107-4.566-4.706" stroke="#8B8B8B" stroke-width="1.5" stroke-linecap="round" stroke-linejoin="round"/><path d="M117.288 63.096c-2.553 0-4.621-2.132-4.621-4.762" stroke="#CA4141" stroke-width="1.5" stroke-linecap="round" stroke-linejoin="round"/><path d="M129.211 72.98l-32.669 8.275m23.695-21.567l-2.95.747" stroke="#8B8B8B" stroke-width="1.5" stroke-linecap="round" stroke-linejoin="round"/><path d="M163.406 129.92v73.515l-101.06 25.597v-81.876c0-29.031 19.233-54.312 46.591-61.242 13.12-3.323 26.994-.246 37.626 8.344 10.633 8.59 16.843 21.74 16.843 35.662z" fill="#CA4141"/><path d="M98.694 50.552a27.71 27.71 0 005.224-10.852s19.381 6.584 27.329-4.443c3.603-4.998 1.927-9.876.236-12.757a1.452 1.452 0 00-1.235-.753 1.448 1.448 0 00-1.263.703c-.787 1.42-2.639 2.583-6.976.907-7.308-2.824-22.519-1.904-24.942 7.616 0 0-10.778 3.094-1.52 19.715m58.33 164.282h220.048M86.556 96.912S44.9 132.166 34.43 189.145c-10.47 56.98 72.547 43.288 112.088 26.516M78.465 185.76s93.92-17.108 100.387 25.277M149.559 96.912s29.475 31.343 37.248 88.848c0 0 29.897 1.06 31.093 25.278" stroke="#8B8B8B" stroke-width="1.5" stroke-linecap="round" stroke-linejoin="round"/><path d="M69.167 115.487s-13.396-28.663-24.481-3.911C33.6 136.328-14.84 299.436 36.278 326.727c51.117 27.291 125.866 12.302 125.866 12.302" stroke="#8B8B8B" stroke-width="1.5" stroke-linecap="round" stroke-linejoin="round"/><path d="M105.654 343.136v183.688H44.686" stroke="#8B8B8B" stroke-width="1.5" stroke-linecap="round" stroke-linejoin="round"/></g></g><defs><clipPath id="clip0"><path fill="#fff" d="M0 0h400v400H0z"/></clipPath></defs></svg>