<?xml version="1.0" encoding="utf-8"?><svg width="304" height="1464" viewBox="0 0 304 1464" xmlns="http://www.w3.org/2000/svg" xmlns:xlink="http://www.w3.org/1999/xlink"><view id="icon_arrow_right" viewBox="0 0 17 18"/><svg width="17" height="18" fill="none" viewBox="-2 -2 17 18" id="icon_arrow_right-" xmlns="http://www.w3.org/2000/svg"><path d="M7.672 7.537L5.805 9.459l-.063.065.06.07.414.482.071.083.077-.078 2.812-2.897.068-.07-.068-.069L6.364 4.15l-.077-.079-.07.083-.416.483-.06.07.064.065 1.867 1.922h-4.92v.1h-.1v.744h5.02zm4.096 1.955c.303-.754.459-1.562.459-2.377A6.308 6.308 0 0010.46 2.72 5.951 5.951 0 006.19.9a5.952 5.952 0 00-4.27 1.821A6.309 6.309 0 00.151 7.115c0 .815.156 1.623.46 2.377a6.23 6.23 0 001.307 2.016 6.03 6.03 0 001.959 1.348 5.888 5.888 0 004.623 0 6.03 6.03 0 001.959-1.348 6.23 6.23 0 001.308-2.016zM9.874 3.316a5.455 5.455 0 011.528 3.799c0 1.425-.55 2.792-1.528 3.799a5.135 5.135 0 01-3.685 1.572 5.135 5.135 0 01-3.684-1.572 5.455 5.455 0 01-1.528-3.8c0-1.425.55-2.791 1.528-3.798a5.136 5.136 0 013.684-1.572c1.382 0 2.707.565 3.685 1.572z" fill="#CA4141" stroke="#CA4141" stroke-width=".2"/></svg><view id="icon_arrow_right_blue" viewBox="0 18 48 23"/><svg width="48" height="23" fill="none" viewBox="-2 -2 48 23" id="icon_arrow_right_blue-" y="18" xmlns="http://www.w3.org/2000/svg"><rect y="8.209" width="44" height="10.299" rx="4" fill="#18A0FB" fill-opacity=".05"/><path d="M8.752 6.693h-.1v.844h5.02l-1.867 1.922-.063.065.06.07.414.482.072.083.076-.078 2.812-2.897.068-.07-.068-.069-2.812-2.896-.077-.079-.07.083-.416.483-.06.07.064.065 1.867 1.922h-4.92zm9.016 2.8c.303-.755.459-1.563.459-2.378A6.308 6.308 0 0016.46 2.72 5.951 5.951 0 0012.19.9a5.952 5.952 0 00-4.27 1.821 6.309 6.309 0 00-1.768 4.394c0 .815.156 1.623.46 2.377a6.23 6.23 0 001.307 2.016 6.03 6.03 0 001.959 1.348 5.888 5.888 0 004.623 0 6.03 6.03 0 001.959-1.348 6.23 6.23 0 001.308-2.016zm-1.894-6.177a5.455 5.455 0 011.528 3.799c0 1.425-.55 2.792-1.528 3.799a5.135 5.135 0 01-3.684 1.572 5.136 5.136 0 01-3.685-1.572 5.455 5.455 0 01-1.528-3.8c0-1.425.55-2.791 1.528-3.798a5.136 5.136 0 013.684-1.572c1.382 0 2.707.565 3.685 1.572z" fill="#18A0FB" stroke="#18A0FB" stroke-width=".2"/></svg><view id="icon_arrow_right_red" viewBox="0 41 48 23"/><svg width="48" height="23" fill="none" viewBox="-2 -2 48 23" id="icon_arrow_right_red-" y="41" xmlns="http://www.w3.org/2000/svg"><rect y="8.209" width="44" height="10.299" rx="4" fill="#CA4141" fill-opacity=".05"/><path d="M8.752 6.693h-.1v.844h5.02l-1.867 1.922-.063.065.06.07.414.482.072.083.076-.078 2.812-2.897.068-.07-.068-.069-2.812-2.896-.077-.079-.07.083-.416.483-.06.07.064.065 1.867 1.922h-4.92zm9.016 2.8c.303-.755.459-1.563.459-2.378A6.308 6.308 0 0016.46 2.72 5.951 5.951 0 0012.19.9a5.952 5.952 0 00-4.27 1.821 6.309 6.309 0 00-1.768 4.394c0 .815.156 1.623.46 2.377a6.23 6.23 0 001.307 2.016 6.03 6.03 0 001.959 1.348 5.888 5.888 0 004.623 0 6.03 6.03 0 001.959-1.348 6.23 6.23 0 001.308-2.016zm-1.894-6.177a5.455 5.455 0 011.528 3.799c0 1.425-.55 2.792-1.528 3.799a5.135 5.135 0 01-3.684 1.572 5.136 5.136 0 01-3.685-1.572 5.455 5.455 0 01-1.528-3.8c0-1.425.55-2.791 1.528-3.798a5.136 5.136 0 013.684-1.572c1.382 0 2.707.565 3.685 1.572z" fill="#CA4141" stroke="#CA4141" stroke-width=".2"/></svg><view id="icon_avatar_1" viewBox="0 64 93 87"/><svg width="93" height="87" fill="none" viewBox="-2 -2 93 87" id="icon_avatar_1-" y="64" xmlns="http://www.w3.org/2000/svg"><circle cx="47.5" cy="41.5" r="41.5" fill="#CA4141"/><path d="M32.191 45.943a7.359 7.359 0 01-.295-.288c-1.741-1.836-2.76-4.752-1.8-7.572.895-2.716 3.56-4.916 6.202-4.805 1.488.046 5.483.96 5.456-.365l-.29-14.025c-.017-.883.67-1.638 1.557-1.655 1.943-.072 3.848-.313 5.897-.87l.673-.095c1.857-.301 12.275-1.579 18.245 5.768.544.608 1.022 1.32 1.488 2.14 1.074 1.875 1.621 4.026 1.61 6.229l-.039 9.803c-.049.986-.097 1.973-.255 2.948-1.895 12.199-6.95 20.815-11.538 21.326-.564.107-3.514.293-7.022-.515-.32-.088-.065.047-4.64-1.56l-.756 7.439a29.354 29.354 0 00-6.834-.94l-9.446-.244 1.193-11.316.518-4.904.076-6.5z" fill="#fff"/><path d="M47.033 66.48l-5.109-6.478 5.535 2.402-.426 4.077zM42.63 37.311a9.254 9.254 0 00-2.66-2.937c-.153-.127-1.347-.86-2.835-.907-2.642-.111-5.307 2.096-6.201 4.822-.961 2.83.003 5.75 1.745 7.592 1.344 1.422 2.977 1.984 3.976 2.226-.01 1.868.029 3.897.116 6.087-4.264-.279-8.021-2.137-11.272-5.575-1.344-1.413-4.914-5.326-6.026-11.58-.127-.795-.38-2.315-.403-4.196-8.46.139-15.303-3.64-17.82-9.002-2.344-5.05-.717-11.095-.485-11.95C3.085 3.276 10.9 3.375 11.569 3.358c0 0 11.267-3.914 20.172 14.106l.017.035c2.553-.2 5.65-.02 10.368-.305 1.724-.096 4.238-.517 7.326-.966.219.023 2.859-.245 3.084-.277 1.115 0 4.853-.353 9.686 1.812 4.833 2.164 6.617 5.419 6.545 5.555-.138.262-2.606 1.378-4.08 1.72-4.135.948-7.727.405-9.934-.16a22.942 22.942 0 01-2.5 4.327c-3.174 4.421-7.174 6.71-9.67 7.83l.047.275zM67.3 39.681a1.402 1.402 0 011.418-1.307c.462-.032.89.283 1.12 1.072.482 1.923-1.347 4.813-2.183 3.663-.514-.712-.399-2.389-.355-3.428zm-12.144-.253a1.402 1.402 0 011.418-1.307c.462-.033.89.283 1.12 1.072.483 1.923-1.347 4.813-2.182 3.663-.514-.712-.4-2.39-.356-3.428zM64.478 40.268l.866 5.284c.049.672-.418 1.326-1.06 1.371-.377.056-.62.073-1.598.124-.437.022-.736.04-1.09.064a.55.55 0 11-.076-1.097 55.94 55.94 0 011.11-.066c.938-.048 1.167-.064 1.537-.117.024-.004.09-.095.085-.152l-.86-5.233a.55.55 0 011.086-.178zM61.014 50.48c-.374-.095-1.292-.453-1.439-1.045-.008-.12-.073-.297-.025-.36.188-.315.885-.123 1.838-.008 1.694.183 3.105.084 3.105.084s-.4 1.053-.64 1.371c-.524.76-2.247.157-2.839-.043z" fill="#000"/><path d="M46.91 37.133a7.7 7.7 0 0114.963 2.175.82.82 0 01.215-.013l1.548.108a7.698 7.698 0 11.026 1.655l-1.689-.118a.823.823 0 01-.191-.036A7.698 7.698 0 0146.54 38.74l-4.004-.983a.825.825 0 01.394-1.602l3.98.978zm18.349 3.238c.002.056.006.112.01.169a6.048 6.048 0 10-.015-.382.827.827 0 01.005.213zm-10.654 5.324a6.048 6.048 0 10-.843-12.067 6.048 6.048 0 00.843 12.067z" fill="#000"/></svg><view id="icon_avatar_2" viewBox="0 151 87 87"/><svg width="87" height="87" fill="none" viewBox="-2 -2 87 87" id="icon_avatar_2-" y="151" xmlns="http://www.w3.org/2000/svg"><circle cx="41.5" cy="41.5" r="41.5" fill="#CA4141"/><path d="M47.036 63c-.26-.106-.837 11.601-.837 11.601a3.08 3.08 0 01-3.452 2.18c-3.466-.563-5.87-1.112-7.21-1.647-2.66-1.059-4.683-2.242-6.073-3.548a2.464 2.464 0 01-.675-2.492L31.535 56.5v-7l-.92-5.795a8.672 8.672 0 01-1.393-1.283c-1.851-2.206-2.253-10.966-1.06-14.138 1.19-2.987 12.85 1.822 12.889.344.026-.985.228-6.237.605-15.757a1.788 1.788 0 011.834-1.738c2.216.06 4.315-.07 6.67-.561.245.007.493-.048.74-.042 2.101-.252 13.828-.986 20.004 7.682.596.755 1.067 1.569 1.535 2.506a13.47 13.47 0 011.412 7.123l-.726 11.01a30.527 30.527 0 01-.458 3.315c-2.95 13.538-9.175 22.86-14.359 23.153-.617.045-3.945.08-7.796-1.071-.305-.132-2.674-.923-2.674-.923L47.036 63z" fill="#fff"/><path d="M73.027 39.719c.363 1.543.715 2.826 1.223 4.19.59 1.679 1.516 4.596 2.78 8.75.845 2.844.894 4.76.148 5.75-.795 1.087-10.768 2.186-11.682 2.1-.166-.017-.331-.032-.495-.046 3.101-4.071 5.946-10.546 7.67-18.462.148-.76.267-1.52.356-2.282zm2.086-4.01c-1.234.234-3.206.34-4.802-.168-2.764-.95.022-2.402 2.546-2.256a4.424 4.424 0 012.7 1.134c.427.435.173 1.172-.444 1.29zm-13.31-.753c-1.234.235-3.207.402-4.926-.168-2.764-.888.022-2.402 2.546-2.256a4.456 4.456 0 012.761 1.135c.49.435.236 1.172-.381 1.29zM34.697 46.463l.742 11.153a37.846 37.846 0 01-.155-.01l.002.019-.026-.021c-12.462-.849-20.775-5.167-26.452-7.816-.99-.46-2.135-1.13-2.753-2.406-.859-1.748-.192-3.703.66-6.067.525-1.416 1.393-3.466 2.967-5.658 1.496-1.994 3.5-4.986 6.09-9.044.21-3.346 1.164-7.59 4.28-11.117 1.84-2.046 3.902-3.1 4.776-3.508 4.805-2.275 8.406-1.008 17.772-1.004 1.91-.01 9.907-.563 10.154-.556 2.101-.252 12.336-.566 18.15 7.784.304.416.608.86.913 1.332-1.911.965-3.424 1.536-4.538 1.711-4.642.8-8.625-.045-11.068-.85a22.766 22.766 0 01-3.082 4.662c-3.676 4.58-8.087 6.864-10.967 8.006-.723-.78-1.967-2.058-3.248-3.084-.182-.128-1.452-1.024-3.111-1.192-2.949-.325-6.091 1.994-7.28 4.981-1.254 3.11-.358 6.46 1.433 8.603 1.59 1.902 3.746 2.605 4.723 2.882.004.394.01.795.018 1.2zM69.437 39.505c.13-.738.751-1.348 1.49-1.28.492.005.921.255 1.098 1.12.475 1.975-1.462 4.852-2.314 3.735-.546-.806-.469-2.53-.274-3.575zm-9.921-.534c.13-.738.751-1.348 1.49-1.28.492.004.921.255 1.098 1.119.474 1.975-1.462 4.852-2.314 3.736-.608-.807-.469-2.53-.274-3.575zM63.331 51.968c-.43-.128-1.474-.445-1.652-1.186.002-.123-.058-.308.004-.431.25-.429 1.05-.175 2.157-.042 1.97.142 3.572.033 3.572.033s-.504 1.228-.816 1.594c-.624.919-2.589.223-3.265.032zM66.657 46.32c-.01-.002-.074.002-.138.005-.614.034-1.069.036-2.717.021a.616.616 0 00-.012 1.232c1.678.015 2.146.013 2.798-.023l.207-.013c.725-.111 1.19-.731 1.197-1.404l-.004-.074-.735-6.555.094-3.59a.616.616 0 00-1.23-.033l-.096 3.633.004.085.734 6.55c-.01.09-.066.16-.102.165zM46.536 70.5l-3.5-9.5 4 2-.5 7.5z" fill="#333"/></svg><view id="icon_avatar_3" viewBox="0 238 87 98"/><svg width="87" height="98" fill="none" viewBox="-2 -2 87 98" id="icon_avatar_3-" y="238" xmlns="http://www.w3.org/2000/svg"><circle cx="41.5" cy="52.5" r="41.5" fill="#CA4141"/><path d="M28.86 56.803c-1.702-2.205-3.227-4.278-4.037-5.984-1.201-2.483-.576-9.725 1.695-12.614 2.27-2.889 20.274-16.25 20.5-16.267 1.92-.305 12.73-1.575 18.858 6.1A11.454 11.454 0 0167.4 30.27c.999 2.042 1.555 4.285 1.544 6.568l-.088 10.163a25.66 25.66 0 01-.301 3.046c-1.146 7.27-3.406 13.305-5.987 17.194-1.907 2.93-4.067 4.678-6.05 4.874-.564.096-3.634.254-7.287-.575-.238-.061-.176-.01-1.662-.537l.304 6.697c4.928 1.03 11.308 2.453 16.441 6.194-7.327 3.899-15.442 5.653-24.344 5.263-3.83-.167-7.867-.681-12.112-1.54C23 86 22 85.5 18.5 83.5c-.875-.5-3-2-3.628-2.772l.082-.069c1.872-1.542 7.255-2.5 13.13-3.02l.366-20.965.41.13z" fill="#fff"/><path d="M47.572 71.021l-7.918-2.677 8.186 9.34-.268-6.663zM56.606 22.204c3.181.814 6.523 2.458 9.062 5.637a11.448 11.448 0 011.525 2.233c.44.9.795 1.84 1.053 2.804L39.412 42.933l3.698-19.422c5.516-.804 10.015-1.24 13.496-1.307z" fill="#482D1F"/><path d="M58.837 23.425C48.741 33.312 42.312 39.771 39.55 42.803c-.102.148-.204.3-.307.457-.122-.516-.596-2.193-1.898-3.813-.121-.106-1.174-1.287-2.694-1.809-2.74-.835-6.177.603-7.937 3.18-1.87 2.641-1.635 5.992-.378 8.471 1.258 2.48 3.442 3.526 4.204 3.815l3.065.584.31-.14c-2.253 4.767-4.308 9.058-5.622 9.368-2.39.565-6.077-4.54-8.68-7.013-1.654-1.571-5.628-6.713-6.816-13.875-.353-2.369-1.666-10.403 3.27-16.733 1.721-2.2 3.767-3.35 4.607-3.85 2.86-1.524 13.841-2.396 22.277-2.857-1.607-2.49-2.584-7.65-2.93-15.48a1.138 1.138 0 011.806-.97c6.99 5.08 11.438 8.772 13.345 11.074 1.4-2.228 5.485-4.824 12.256-7.787a1.138 1.138 0 011.555 1.341c-2.808 10.332-4.945 15.76-6.41 16.284-.805.287-2.05.413-3.735.375z" fill="#750C0C"/><path d="M66.092 48.985c.123-.694.769-1.252 1.458-1.186.458.025.823.342 1.049 1.124.309 1.976-1.674 4.625-2.382 3.477-.506-.707-.28-2.377-.125-3.415zm-12.494-.688c.123-.694.768-1.252 1.458-1.186.458.025.822.341 1.048 1.125.31 1.975-1.673 4.624-2.381 3.476-.506-.707-.28-2.377-.125-3.415zM61.857 49.721l.454 5.675c.002.021-.079.114-.106.116-.31.021-.63.023-1.128.01a71.357 71.357 0 01-.725-.022c-.33-.01-.604-.017-.896-.022a.57.57 0 10-.019 1.138c.286.005.555.012.88.022l.38.012.35.01c.532.014.883.012 1.238-.013.654-.045 1.207-.682 1.162-1.336l-.455-5.68a.57.57 0 00-1.135.09zM58.573 59.874c-.41-.143-1.406-.53-1.503-1.093-.008-.114-.077-.28.033-.345.264-.304.965-.067 2.007.145 1.85.327 3.334.338 3.334.338s-.505.948-.83 1.199c-.633.729-2.453 0-3.04-.244z" fill="#482D1F"/><path d="M44.772 46.763l-3.399-.787a.854.854 0 01.386-1.664l3.655.847a8.083 8.083 0 0115.224 3.535l1.73.09a8.083 8.083 0 11-.058 1.707l-1.799-.093a8.083 8.083 0 11-15.739-3.634zm1.833-.106a6.375 6.375 0 10.154-.365.834.834 0 01-.154.365zm17.393 3.222a6.375 6.375 0 10.01-.341.855.855 0 01-.01.341z" fill="#482D1F"/></svg><view id="icon_avatar_4" viewBox="0 336 87 87"/><svg width="87" height="87" fill="none" viewBox="-2 -2 87 87" id="icon_avatar_4-" y="336" xmlns="http://www.w3.org/2000/svg"><circle cx="41.5" cy="41.5" r="41.5" fill="#18A0FB"/><path d="M55.502 47.535l-.393 20.953c-.02.368-.196.728-.52.87a18.523 18.523 0 01-5.857 2.011c-4.42.77-8.116-.165-10.187-.907a1.012 1.012 0 01-.686-.986l.283-9.233c-2.826.885-2.666.79-2.942.866-3.358.667-6.194.411-6.714.278-1.886-.257-3.802-1.941-5.449-4.719-2.23-3.705-4.093-9.396-4.898-16.138-.16-.958-.163-1.908-.165-2.858l.287-9.428c.058-2.107.693-4.131 1.795-6.025.465-.82.922-1.481 1.479-2.032 5.954-6.86 15.895-5.28 17.67-4.923.207.064.418.075.625.139 1.92.629 3.752.884 5.59 1.034.842.044 1.487.817 1.443 1.659l-.764 13.465c.49-.29 1.328-2 2.341-2.21.748-.172 4.46-1.113 6.755.38 2.345 1.548 4.08 5.408 4.232 6.524.431 2.819-.935 6.438-2.107 8.644-.478.888-1.104 1.76-1.818 2.636z" fill="#fff"/><path d="M38.155 60.284l7.57-2.895-7.74 8.465.17-5.57zM50.133 45.136l.19.098c1.412-.102 2.352-.245 2.819-.432.7-.28 2.75-1.12 4.03-3.374 1.279-2.254 1.6-5.35-.008-7.861-1.558-2.457-4.645-3.939-7.215-3.23-1.445.398-2.45 1.453-2.561 1.553a8.82 8.82 0 00-.859 1.15l-30.361-3.424c-.08-6.483 3.9-14.154 8.424-16.582 1.359-.73 5.655-1.243 9.123-1.278 5.355-.055 10.685 1.205 12.159 1.39 1.205.169 2.332-.327 4.44-.623 3.47.214 5.434.311 6.657 1.487 1.661 1 4.272 2.623 5.288 3.988.632.403 2.173 2.071 3.379 3.981 3.754 5.79 2.418 12.526 1.87 14.08-.188.532-2.056 5.766-4.926 10.465-2.995 4.905-6.993 9.273-6.993 9.273-2.865-.295-4.684-3.85-5.456-10.661zM19.797 34.864c-.52-.133-.642-.825-.254-1.174.495-.396 1.36-.772 2.412-.717 2.157.114 4.396 1.657 1.943 2.16-1.443.346-3.115.047-4.1-.27zm10.818.94c-.52-.132-.642-.825-.201-1.17.495-.397 1.36-.773 2.464-.715 2.157.114 4.394 1.71 1.943 2.16-1.55.393-3.164-.008-4.206-.274z" fill="#482D1F"/><path d="M23.704 38.816c-.1.891-.335 2.356-.89 2.854-.935.742-1.954-1.95-1.184-3.544.3-.67.673-.756 1.091-.681.626.139 1.016.74.983 1.37zm9.425.34c.006.897-.072 2.37-.631 2.973-.837.853-2.176-1.75-1.561-3.406.246-.673.623-.811 1.044-.789.631.033 1.13.587 1.148 1.221zM28.243 49.765c.373-.086 1.282-.301 1.47-.872.006-.105.067-.26.02-.368-.192-.38-.834-.202-1.784-.2-1.689.017-3.048-.213-3.048-.213s.313 1.071.559 1.4c.537.82 2.248.383 2.783.253zM25.224 39.002l.01-.073-.008.036-.002.037zm-1.077 5.515c-.13.588.299 1.195.893 1.326.13.02.13.02.216.03.884.116 1.437.17 2.39.22a.527.527 0 10.055-1.051 26.162 26.162 0 01-2.31-.213l-.169-.022c-.001-.003-.046-.066-.044-.076l1.09-5.6.008-.073.165-3.104a.527.527 0 00-1.053-.056l-.162 3.067-1.08 5.552z" fill="#482D1F"/></svg><view id="icon_methods_1" viewBox="0 423 164 151"/><svg width="164" height="151" fill="none" viewBox="-2 -2 164 151" id="icon_methods_1-" y="423" xmlns="http://www.w3.org/2000/svg"><path d="M30.055 53.153L14.569 48.28l-.492 97.154h17.901l-1.923-4.251c8.657-30.696 0-88.03 0-88.03z" fill="#CA4141"/><path d="M25.585 112.88c0-22.755-4.672-41.202-10.436-41.202a2.762 2.762 0 00-.699.095l-.373 73.661h7.469c2.457-7.538 4.039-19.316 4.039-32.554z" fill="#000"/><path d="M24.95 54.34s3.697 59.672-6.746 87.925l2.181 3.169H1.811S0 72.364 0 55.982l24.95-1.642z" fill="#CA4141"/><path d="M21.005 8.171v7.755l-9.715 2.362V5.2l9.715-2.362v5.332z" fill="#EDEEEF"/><path d="M14.57 12.23s2.365-.769 3.143.407c0 0 .988-1.094 2.26-.211" stroke="#CA4141" stroke-width=".5" stroke-linecap="round" stroke-linejoin="round"/><path d="M15.517 10.854c.143 0 .26-.115.26-.257a.258.258 0 00-.26-.256.258.258 0 00-.26.256c0 .142.116.257.26.257zM19.507 10.854c.143 0 .26-.115.26-.257a.258.258 0 00-.26-.256.258.258 0 00-.26.256c0 .142.116.257.26.257z" fill="#000"/><path d="M18.336 12.13V8.17h2.006M15.027 8.171h2.006" stroke="#000" stroke-width=".5"/><path d="M11.93 10.2v1.374a1.35 1.35 0 01-1.353-1.465c.076-.833 1.352-.747 1.352.09z" fill="#EDEEEF"/><path d="M11.93 11.574a1.35 1.35 0 01-1.359-1.342" stroke="#000" stroke-width=".5"/><path d="M17.156 13.105a.763.763 0 01-.768-.759" stroke="#CA4141" stroke-width=".5" stroke-linecap="round" stroke-linejoin="round"/><path d="M14.077 17.61l-2.788.677" stroke="#000" stroke-width=".5"/><path d="M18.336 12.133l-.877.213" stroke="#000" stroke-width=".5" stroke-linecap="round"/><path d="M30.055 32.175v20.978L0 60.457V37.093c0-8.285 5.72-15.499 13.856-17.476a13.193 13.193 0 0111.19 2.381 12.88 12.88 0 015.009 10.177z" fill="#EDEEEF"/><path d="M12.407 10.598s-1.465 4.756 1.954 7.231c3.183 2.305 8.2.956 7.013-4.435a15.916 15.916 0 01-.37-3.424v-.32M11.25 9.527S8.018 3.674 12.995 2.62c0 0 2.024-2.5 4.902-1.289 2.88 1.21 4.262.361 4.301 1.508.04 1.148.181 3.062-1.193 4.038" stroke="#CA4141" stroke-width=".5" stroke-linecap="round" stroke-linejoin="round"/><path d="M13.261 9.526l.816-3.288s5.94.091 6.928-1.509" stroke="#CA4141" stroke-width=".5" stroke-linecap="round" stroke-linejoin="round"/><path d="M24.95 54.34s3.697 59.672-6.746 87.925l2.181 3.169" stroke="#000" stroke-width=".5"/><path d="M6.16 23.597S1.111 43.305 7.217 50.67c6.105 7.365 34.677 3.018 42.98-4.95 0 0 2.93-.725 3.541-2.174 0 0 2.809 2.053 2.687.725-.122-1.328-1.1-5.467-6.106-4.424-5.006 1.043-29.315 1.526-29.315 1.526l.547-10.383M28.67 26.365s3.671 7.038 3.198 14.705M30.676 57.702s9.783 3.842 13.92-8.357" stroke="#000" stroke-width=".5"/><path d="M35.187 40.947s10.366-5.294 11.959-3.075l1.593 2.218M132.065 1H65.357v42.118l-21.45 21.21v81.106h-8.72M46.274 145.887H160" stroke="#000" stroke-width=".5"/><path d="M146.55 145.002s1.959-3.428-3.015-4.173a16.473 16.473 0 00-8.743 1.043s3.467-4.173-1.959-5.962c-5.427-1.789-11.004 2.385-11.004 2.385s5.426-9.987 1.206-10.732c-4.221-.745-6.482 3.577-6.482 3.577s.452-12.371-8.291-12.669c-8.742-.298-7.838 15.799-7.838 15.799s-3.769-7.154-10.1-7.452c-6.33-.298-3.165 11.984-3.165 11.984s-1.206-2.892-5.427-3.19c-4.22-.298-3.919 3.2-3.919 3.2s-5.426-7.523-11.456-7.075c-6.03.447-3.467 7.899-3.467 7.899-6.18-.447-7.537 6.251-7.537 6.251h95.568l-4.371-.885zM68.251 72.439h73.277v42.313H68.251z" fill="#000"/><path fill="#EDEEEF" d="M58.788 63.083h73.277v42.313H58.788z"/><path d="M132.065 63.105v42.313l-73.277-.046" stroke="#000" stroke-width=".5"/><path d="M95.427 97.557c7.438 0 13.469-5.963 13.469-13.318 0-7.356-6.031-13.319-13.47-13.319-7.438 0-13.469 5.963-13.469 13.319 0 7.355 6.03 13.318 13.47 13.318z" fill="#CA4141"/><path d="M67.049 99.977c1.518 0 2.748-1.217 2.748-2.718 0-1.5-1.23-2.717-2.748-2.717-1.518 0-2.748 1.216-2.748 2.717 0 1.5 1.23 2.718 2.748 2.718zM123.804 73.936c1.518 0 2.748-1.217 2.748-2.718 0-1.5-1.23-2.717-2.748-2.717-1.518 0-2.748 1.216-2.748 2.717 0 1.501 1.23 2.718 2.748 2.718zM123.804 99.977c1.518 0 2.748-1.217 2.748-2.718 0-1.5-1.23-2.717-2.748-2.717-1.518 0-2.748 1.216-2.748 2.717 0 1.5 1.23 2.718 2.748 2.718zM67.049 73.936c1.518 0 2.748-1.217 2.748-2.718 0-1.5-1.23-2.717-2.748-2.717-1.518 0-2.748 1.216-2.748 2.717 0 1.501 1.23 2.718 2.748 2.718z" fill="#D6D6D6"/><path d="M95.427 84.239c-2.11 0-3.821-1.692-3.821-3.778 0-2.087 1.71-3.778 3.82-3.778s3.821 1.691 3.821 3.778M95.427 84.239c1.545 0 2.938.92 3.53 2.332a3.747 3.747 0 01-.829 4.117 3.852 3.852 0 01-4.163.819 3.778 3.778 0 01-2.359-3.49M95.427 74.514v19.45" stroke="#fff" stroke-width=".5"/></svg><view id="icon_methods_2" viewBox="0 574 164 150"/><svg width="164" height="150" fill="none" viewBox="-2 -2 164 150" id="icon_methods_2-" y="574" xmlns="http://www.w3.org/2000/svg"><path fill="#E2E2E2" d="M3.263 4.572h79.143V82.82H3.263z"/><path d="M82.406 4.572V82.82H3.263" stroke="#000" stroke-width=".5"/><path fill="#C38282" d="M25.035 2.092h35.599v5.771H25.035z"/><path d="M42.835 4.447c1.334 0 2.415-.996 2.415-2.224C45.25.995 44.169 0 42.835 0S40.42.995 40.42 2.223c0 1.228 1.081 2.224 2.415 2.224z" fill="#C38282"/><path fill="#C38282" d="M25.035 2.092h35.599v5.771H25.035z"/><path d="M60.634 2.092v5.77H25.035" stroke="#000" stroke-width=".5"/><path d="M42.835 4.447c1.334 0 2.415-.996 2.415-2.224C45.25.995 44.169 0 42.835 0S40.42.995 40.42 2.223c0 1.228 1.081 2.224 2.415 2.224z" fill="#C38282"/><path d="M42.835 82.82v62.073M0 144.893h85.67" stroke="#000" stroke-width=".5"/><path d="M151.805 141.75v-4.78l-4.792 4.044-1.598-12.682-12.579 8.271-1.597-5.514-4.393 4.043v-6.617l-5.391 5.882-4.792-13.234-5.99 13.611-8.785-10.119-6.59 13.786v-6.617l-3.793 6.433-2.596-8.639-7.188 10.293-10.981-12.682-3.395 12.499-3.195-3.493-2.396 8.658h92.247l.799-3.327-2.995.184z" fill="#F4F4F4"/><path d="M56.554 144.893H160" stroke="#000" stroke-width=".5"/><path d="M127.821 56.605L105.08 55.23l-5.89 21.383-13.52 67.852h18.404l-2.144-3.536 25.891-84.323z" fill="#E2E2E2"/><path d="M130.779 140.72l1.119-38.61-17.895 3.089 4.155 39.265h15.293l-2.672-3.744z" fill="#E2E2E2"/><path d="M125.294 103.25l-11.291 1.949.498 4.71c9.396-1.167 15.867-3.49 15.867-3.49l-5.074-3.169zM102.864 89.24s-2.847.809-6.614 2.128l-3.638 18.26c6.633 1.114 13.092 1.11 18.74.615l4.045-13.175-12.533-7.827z" fill="#000"/><path d="M102.864 57.026l-22.395 42.75s26.561 12.87 52.982 5.921v-44.27l-30.587-4.4z" fill="#C38282"/><path d="M111.196 14.407v3.171c0 2.452 1.819 4.588 4.406 5.173l5.482 1.24v-12.4l-4.558-1.03c-1.284-.291-2.641-.022-3.682.729-1.04.75-1.648 1.9-1.648 3.117z" fill="#E2E2E2"/><path d="M111.196 17.578c0 2.452 1.819 4.588 4.406 5.173l5.482 1.24" stroke="#000" stroke-width=".5"/><path d="M116.782 16.949c.146 0 .264-.11.264-.244s-.118-.243-.264-.243c-.146 0-.264.109-.264.243 0 .135.118.244.264.244zM112.721 16.949c.146 0 .265-.11.265-.244s-.119-.243-.265-.243c-.146 0-.264.109-.264.243 0 .135.118.244.264.244z" fill="#000"/><path d="M113.913 18.157v-3.75h-2.041M117.28 14.407h-2.041" stroke="#000" stroke-width=".5"/><path d="M120.433 16.328v1.303c.367 0 .718-.134.977-.373a1.224 1.224 0 00.399-1.015c-.077-.79-1.376-.708-1.376.085z" fill="#E2E2E2"/><path d="M120.433 17.63c.367 0 .718-.133.977-.372.259-.238.405-.562.405-.9" stroke="#000" stroke-width=".5"/><path d="M115.029 18.596a.972.972 0 001.294 0" stroke="#C38282" stroke-width=".5" stroke-linecap="round" stroke-linejoin="round"/><path d="M113.913 18.16l.892.202" stroke="#000" stroke-width=".5" stroke-linecap="round"/><path d="M112.986 22.06l-.157.065a3.469 3.469 0 01-3.131-.23c-.93-.57-1.474-1.543-1.437-2.572.179-4.73 1.388-11.295 6.768-10.825 0 0 5.465-1.153 7.655 3.48 2.19 4.633-.496 6.864-1.6 7.379" stroke="#000" stroke-width=".5"/><path d="M111.08 15.69s4.127-.666 4.596-3.211c0 0 2.044 3.152 4.897 3.456" stroke="#000" stroke-width=".5"/><path d="M102.864 37.15v19.877l30.587 6.92V41.81c0-7.85-5.821-14.685-14.101-16.559-3.971-.898-8.17-.066-11.388 2.256-3.218 2.323-5.098 5.878-5.098 9.643z" fill="#E2E2E2"/><path d="M80.469 99.777s26.561 12.869 52.982 5.92M125.243 27.646s14.987 9.647 15.043 24.014c.082 20.878-35.142 2.06-36.282-1.372l-1.14-3.432s-4.705-1.784-3.587-2.437c1.119-.652 34.175 5.812 34.175 5.812" stroke="#000" stroke-width=".5"/><path d="M108.259 27.646s-8.61 5.653-12.15 20.41c0 0-5.78-7.369-7.83-10.205-2.05-2.836-3.728-.948-3.728-.948s-2.386-3.26-4.082-1.888c-1.696 1.373 2.84 24.916 19.399 27.73M101.278 46.215L66.594 30.496" stroke="#000" stroke-width=".5"/><path fill="#C38282" d="M13.261 17.248h40.412v37.203H13.261z"/><path fill="#E2E2E2" d="M32.557 26.575h1.82v18.549h-1.82z"/><path d="M43.541 35.011v1.676H23.392v-1.675h20.15z" fill="#E2E2E2"/></svg><view id="icon_methods_3" viewBox="0 724 165 150"/><svg width="165" height="150" fill="none" viewBox="-2 -2 165 150" id="icon_methods_3-" y="724" xmlns="http://www.w3.org/2000/svg"><path d="M38.938 31.816L1 44.657 38.938 57.5l37.937-12.842-37.938-12.841z" fill="#000"/><path d="M1 44.657L38.938 57.5l37.937-12.842" stroke="#000" stroke-width=".5"/><path d="M38.938 15.908L1 28.75l37.938 12.842L76.874 28.75 38.937 15.908z" fill="#EDEEEF"/><path d="M1 28.75l37.938 12.842L76.874 28.75" stroke="#000" stroke-width=".5"/><path d="M38.938 0L1 12.842l37.938 12.842 37.937-12.842L38.937 0z" fill="#C38282"/><path d="M1 12.842l37.938 12.842 37.937-12.842" stroke="#000" stroke-width=".5"/><path d="M18.8 129.934l5.381 4.474 14.35-17.569 6.456 5.175 34.08-42.906 30.132 50.826 8.251-8.73 15.066 23.687H6.246L18.8 129.934z" fill="#F4F4F4"/><path d="M137.041 144.891H1.72" stroke="#000" stroke-width=".5"/><path d="M101.652 55.559s-24.5 40.204-32.7 79.98l-3.021 1.702 14.45 4.584s32.01-46.23 33.923-52.098c1.913-5.869-1.367-34.168-1.367-34.168" fill="#C38282"/><path d="M107.998 73.744s-3.932 19.302-2.855 31.354c4.125-6.353 7.474-11.748 8.723-14.338l-5.868-17.016z" fill="#000"/><path d="M108.741 12.228v7.47l9.665 2.275V9.366l-9.665-2.275v5.137z" fill="#EDEEEF"/><path d="M114.201 14.813c.143 0 .258-.111.258-.248a.253.253 0 00-.258-.247.253.253 0 00-.259.247c0 .137.116.248.259.248zM110.232 14.813c.142 0 .258-.111.258-.248a.253.253 0 00-.258-.247.253.253 0 00-.259.247c0 .137.116.248.259.248z" fill="#000"/><path d="M111.396 16.041v-3.813h-1.995M114.688 12.228h-1.995" stroke="#000" stroke-width=".5"/><path d="M117.77 14.182v1.324c.358 0 .701-.136.955-.379a1.267 1.267 0 00.39-1.032c-.076-.803-1.345-.72-1.345.087z" fill="#EDEEEF"/><path d="M117.77 15.506c.358 0 .701-.136.955-.379.253-.243.395-.572.395-.915M116.602 21.548l1.804.425" stroke="#000" stroke-width=".5"/><path d="M111.396 16.044l.873.206" stroke="#000" stroke-width=".5" stroke-linecap="round"/><path d="M108.741 14.318s-1.94 5.447.66 7.23c2.6 1.784 10.331.745 8.234-6.566" stroke="#000" stroke-width=".5"/><path d="M109.889 16.142a.36.36 0 00-.017.368.392.392 0 00.322.202c.559.12 1.404-.934 2.135-.36 0 0 .164-.81 1.984-.325 1.82.484 1.195-.667 1.195-.667" stroke="#000" stroke-width=".5"/><path d="M112.112 17.08c.686.302 1.498.014 1.813-.643" stroke="#C38282" stroke-width=".5" stroke-linecap="round" stroke-linejoin="round"/><path d="M108.045 9.596s.656 2.699 6.643 1.095c0 0 .362 1.47 1.392 1.537 1.031.067.988 1.053.988 1.053" stroke="#000" stroke-width=".5"/><path d="M108.741 12.228s-6.249-5.162 1.091-5.424c7.34-.261 11.313 1.918 8.613 6.73" stroke="#000" stroke-width=".5"/><path d="M101.652 35.35V55.56l29.899 7.036V40.088c0-7.98-5.69-14.93-13.784-16.834-3.881-.914-7.986-.068-11.132 2.293-3.145 2.361-4.983 5.976-4.983 9.803z" fill="#EDEEEF"/><path d="M131.551 62.595l-23.506-5.532s-1.581 54.713 7.699 84.426l-1.543 2.966h15.407s3.066-69.89 1.943-81.86z" fill="#C38282"/><path d="M108.045 57.063s-1.581 54.713 7.699 84.426M122.177 24.9s17.983 10.167 17.436 27.09c-.546 16.923-13.301 23.727-13.301 23.727M121.575 66.383s2.642 9.247 7.106 11.166" stroke="#000" stroke-width=".5"/><path d="M119.12 41.988l9.561 11.165-6.866 13.995" stroke="#000" stroke-width=".5"/><path d="M122.42 65.914l6.261-12.76-7.332-8.563s4.467 12.8 1.071 21.323z" fill="#000"/><path d="M104.956 27.055L92.143 36.77s-14.77-18.02-18.033-18.975c-3.263-.956-7.235 1.046-7.235 1.046v1.184l3.778.657s-.556 4.211 1.848 6.185c0 0 7.454 26.087 18.646 26.169 7.652.056 10.505-1.977 10.505-1.977M80.474 144.891H161" stroke="#000" stroke-width=".5"/><path d="M151.476 144.284s1.388-2.35-2.135-2.861a12.009 12.009 0 00-6.19.715s2.455-2.861-1.388-4.088c-3.842-1.226-7.791 1.635-7.791 1.635s3.842-6.847.854-7.358c-2.989-.511-4.59 2.453-4.59 2.453s.32-8.482-5.87-8.687c-6.191-.204-5.55 10.833-5.55 10.833s-2.669-4.905-7.151-5.11c-4.483-.204-2.242 8.217-2.242 8.217s-.854-1.983-3.842-2.187c-2.989-.205-2.775 2.194-2.775 2.194s-3.843-5.158-8.112-4.851c-4.27.306-2.455 5.416-2.455 5.416-4.376-.306-5.336 4.286-5.336 4.286h67.668l-3.095-.607z" fill="#000"/></svg><view id="icon_methods_4" viewBox="0 874 164 150"/><svg width="164" height="150" fill="none" viewBox="-2 -2 164 150" id="icon_methods_4-" y="874" xmlns="http://www.w3.org/2000/svg"><path d="M16.22 131.216l5.11 4.094 13.626-16.075 6.131 4.735L73.45 84.713l28.614 46.503 7.835-7.987 14.307 21.672H4.297l11.923-13.685z" fill="#F4F4F4"/><path d="M128.502 144.901H0" stroke="#000" stroke-width=".5"/><path d="M112.591 63.565s-32.701 56.005 37.37 59.836l3.374 2.633v-18.436l-23.542-6.703-.692-44.534" fill="#E2E2E2"/><path d="M129.65 91.66c-5.604 2.144-9.824 11.521-9.824 22.765 0 .564.011 1.124.033 1.679 5.707 3.22 13.405 5.628 23.664 6.768.565-2.785.845-5.613.837-8.447a41.285 41.285 0 00-1.118-9.701l-13.449-3.83-.143-9.235z" fill="#000"/><path d="M125.803 141.611l-8.847-78.438 20.259-1.28 3.684 1.384 1.731 81.624M124.192 20.341a4.258 4.258 0 00-3.418.679c-.965.698-1.529 1.767-1.529 2.9v2.95c0 2.28 1.688 4.267 4.089 4.812l5.089 1.153V21.301l-4.231-.96" fill="#EDEEEF"/><path d="M119.245 26.87c0 2.28 1.688 4.267 4.089 4.811l5.089 1.154" stroke="#000" stroke-width=".5"/><path d="M124.429 26.284c.136 0 .246-.101.246-.226 0-.126-.11-.227-.246-.227-.135 0-.245.101-.245.227 0 .125.11.226.245.226zM120.66 26.284c.136 0 .246-.101.246-.226 0-.126-.11-.227-.246-.227-.135 0-.245.101-.245.227 0 .125.11.226.245.226z" fill="#000"/><path d="M121.766 27.408V23.92h-1.895M124.892 23.919h-1.895" stroke="#000" stroke-width=".5"/><path d="M127.818 25.707v1.211c.709 0 1.283-.53 1.283-1.183 0-.036-.002-.072-.005-.108-.072-.735-1.278-.658-1.278.08z" fill="#EDEEEF"/><path d="M127.818 26.919c.709 0 1.283-.53 1.283-1.184" stroke="#000" stroke-width=".5"/><path d="M122.802 27.816a.9.9 0 001.201 0" stroke="#CA4141" stroke-width=".5" stroke-linecap="round" stroke-linejoin="round"/><path d="M121.766 27.411l.829.187" stroke="#000" stroke-width=".5" stroke-linecap="round"/><path d="M112.591 45.075v18.49l28.392 6.438V49.41c0-7.301-5.403-13.66-13.089-15.403-3.686-.835-7.584-.062-10.571 2.099-2.987 2.16-4.732 5.468-4.732 8.97z" fill="#CA4141"/><path d="M125.803 141.611l-8.847-78.438M126.876 18.646c1.966.316 3.675 1.429 4.655 3.033 1.059 1.804 1.229 4.425-3.071 7.266M122.18 31.285s0 3.795-6.979 3.453l-1.598-1.474s.883-16.802 13.273-14.619" stroke="#000" stroke-width=".5"/><path d="M113.003 33.84c.065 0 1.6 1.476 1.6 1.476" stroke="#CA4141" stroke-width=".5" stroke-linecap="round" stroke-linejoin="round"/><path d="M119.245 25.473s4.183-.957 5.43-3.312c0 0 1.364 3.26 3.143 3.546M112.699 34.578s-4.412 2.295-3.662 7.882c.237 1.853 1.245 3.548 2.812 4.727.804.623 1.916.786 2.891.423.974-.363 1.651-1.194 1.759-2.158.13-1.087.38-2.203.843-3.045 1.903-3.458-3.828-7.09-3.828-7.09M135.101 37.464s28.323 29.313.812 44.317l-4.498-6.955 6.402-10.763-6.402-9.897M135.913 81.781l-7.02-10.854" stroke="#000" stroke-width=".5"/><path d="M102.06 37.722a4.717 4.717 0 01.324-3.135c1.33-2.88 4.967-10.013 8.466-10.237 4.388-.28 3.004 3.285 1.447 4.136a2.752 2.752 0 01-2.826-.053s-4.203 4.711-3.749 6.172c0 0 2.422 0 1.615 2.129-.707 1.862-4.372 4.58-5.277.988z" fill="#CA4141"/><path d="M105.548 31.908s3.287-2.564 0-3.442c-3.288-.878-10.641 8.54-9.43 18.916 1.211 10.375 9.242 17.24 16.473 11.573" stroke="#000" stroke-width=".5"/><path d="M105.667 38.759s.534 4.632 2.197 7.426l1.873-1.482" stroke="#000" stroke-width=".5"/><path d="M52.052 45.237l-7.786 7.294v-7.294h7.786z" fill="#000"/><path fill="#000" d="M83 46.396H31.482V14.491H83z"/><path fill="#000" d="M68.982 23.646h-3.167v-2.922h3.167zM58.825 23.646h-3.167v-2.922h3.167zM48.668 23.646h-3.167v-2.922h3.167z"/><path d="M76.45 30.746l7.787 7.293v-7.293H76.45z" fill="#E2E2E2"/><path d="M84.237 38.04v-7.294" stroke="#000" stroke-width=".5"/><path fill="#EDEEEF" d="M45.502 0H97.02v31.905H45.502z"/><path d="M97.02 0v31.905H84.237" stroke="#000" stroke-width=".5"/><path fill="#CA4141" d="M59.521 14.492h3.167v2.921h-3.167zM69.677 14.492h3.167v2.921h-3.167zM79.834 14.492h3.167v2.921h-3.167z"/><path d="M83.532 144.901H160" stroke="#000" stroke-width=".5"/><path d="M150.956 144.346s1.318-2.151-2.027-2.618a11.813 11.813 0 00-5.879.654s2.332-2.618-1.317-3.74c-3.649-1.122-7.399 1.496-7.399 1.496s3.649-6.265.811-6.732c-2.838-.468-4.358 2.244-4.358 2.244s.304-7.761-5.575-7.948c-5.879-.187-5.27 9.911-5.27 9.911s-2.534-4.488-6.791-4.675c-4.257-.187-2.129 7.518-2.129 7.518s-.81-1.814-3.648-2.001c-2.838-.187-2.636 2.007-2.636 2.007s-3.648-4.719-7.703-4.438c-4.054.28-2.33 4.956-2.33 4.956-4.156-.281-5.068 3.921-5.068 3.921h64.258l-2.939-.555z" fill="#000"/><path fill="#EDEEEF" d="M23.158 56.983h37.946V91.99H23.158z"/><path d="M61.104 56.983v35.008H23.158" stroke="#000" stroke-width=".5"/><path d="M38.374 74.976h7.515c1.762 0 3.451.646 4.697 1.795 1.246 1.15 1.946 2.709 1.946 4.334v3.467H31.73v-3.467c0-1.625.7-3.184 1.945-4.334 1.246-1.149 2.936-1.795 4.698-1.795zM42.132 64.402c2.834 0 5.132 2.12 5.132 4.735v3.507H37v-3.507c0-1.256.54-2.46 1.503-3.348.963-.888 2.268-1.387 3.63-1.387z" fill="#CA4141"/></svg><view id="img_about_teacher" viewBox="0 1024 304 144.35"/><svg width="304" height="144.35" fill="none" viewBox="-2.69 -2.69 409.39 194.39" id="img_about_teacher-" y="1024" xmlns="http://www.w3.org/2000/svg"><mask id="la" maskUnits="userSpaceOnUse" x="0" y="0" width="404" height="189"><path fill="#fff" d="M0 0h404v189H0z"/></mask><g mask="url(#la)"><path d="M126.453 42.877V57.19c0 11.07 6.675 20.708 16.17 23.35l20.124 5.599V30.172l-16.733-4.656c-4.712-1.31-9.694-.097-13.513 3.292-3.818 3.388-6.048 8.576-6.048 14.069z" fill="#EDEEEF"/><path d="M126.453 57.191c0 11.07 6.675 20.708 16.17 23.35l20.124 5.599" stroke="#000" stroke-width=".8" stroke-linecap="round" stroke-linejoin="round"/><path d="M146.955 54.351c.536 0 .97-.492.97-1.098 0-.607-.434-1.099-.97-1.099s-.971.492-.971 1.099c0 .606.435 1.098.971 1.098zM132.05 54.351c.536 0 .97-.492.97-1.098 0-.607-.434-1.099-.97-1.099s-.971.492-.971 1.099c0 .606.435 1.098.971 1.098z" fill="#000"/><path d="M136.423 59.806v-16.93h-5.735M148.783 42.877h-7.492" stroke="#000" stroke-width=".8" stroke-linecap="round" stroke-linejoin="round"/><path d="M160.356 51.55v5.88c2.802 0 5.073-2.571 5.073-5.742 0-.177-.007-.35-.021-.523-.284-3.566-5.052-3.194-5.052.386z" fill="#EDEEEF"/><path d="M160.356 57.43c2.802 0 5.073-2.571 5.073-5.742" stroke="#000" stroke-width=".8" stroke-linecap="round" stroke-linejoin="round"/><path d="M140.519 61.784c.63.713 1.484 1.113 2.375 1.113s1.745-.4 2.375-1.113" stroke="#18A0FB" stroke-width=".8" stroke-linecap="round" stroke-linejoin="round"/><path d="M136.423 59.82l3.276.91" stroke="#000" stroke-width=".8" stroke-linecap="round" stroke-linejoin="round"/><path d="M92.646 145.53v89.716l112.274 31.238v-99.92c0-35.43-21.367-66.282-51.761-74.738-14.576-4.055-29.989-.301-41.801 10.182-11.812 10.483-18.712 26.531-18.712 43.522z" fill="#18A0FB"/><path d="M125.684 53.252l-11.118-6.9s16.25-52.668 49.605-29.433c33.355 23.236-1.424 49.764-1.424 49.764" stroke="#000" stroke-width=".8" stroke-linecap="round" stroke-linejoin="round"/><path d="M124.886 44.157s22.07-4.027 29.756-16.24c0 0-3.127 17.684 6.137 21.996M178.635 105.774s38.049 30.29 54.47 72.568c0 0-5.816-77.773 2.395-90.553 4.334-6.746 9.236 2.412 9.236 2.412s21.553-10.157 22.237-6.285C267.657 87.79 255 102.505 255 102.505s18.473 96.273 4.105 123.769c-14.369 27.496-87.237-27.34-87.237-27.34M111.82 101.609s-33.803 28.358-40.188 56.904c0 0-10.492-77.261-16.422-75.477-5.93 1.784-7.298 7.165-7.298 7.165s-18.701-11.075-21.438-7.195c-2.737 3.88 16.42 25.05 16.42 25.05s-11.589 92.329 1.825 104.82c28.28 26.334 47.927-11.36 47.927-11.36" stroke="#000" stroke-width=".8" stroke-linecap="round" stroke-linejoin="round"/><path d="M239.511 39.2V56h-1.752v-7.752h-10.512V56h-1.776V39.2h1.776v7.488h10.512V39.2h1.752zm8.243 4.176h1.704V56h-1.704V43.376zm.864-2.76c-.352 0-.648-.12-.888-.36s-.36-.528-.36-.864c0-.32.12-.6.36-.84s.536-.36.888-.36.648.12.888.36c.24.224.36.496.36.816 0 .352-.12.648-.36.888s-.536.36-.888.36zm8.893 12.888c.368 0 .672.128.912.384.24.24.36.544.36.912 0 .192-.032.4-.096.624-.048.224-.128.48-.24.768l-1.008 3.312h-1.152l.816-3.48a1.23 1.23 0 01-.624-.432 1.327 1.327 0 01-.24-.792c0-.368.12-.672.36-.912.24-.256.544-.384.912-.384zM275.286 39.2h1.776V56h-1.776V39.2zm10.195-1.128c.368 0 .672.128.912.384.24.24.36.544.36.912 0 .192-.032.4-.096.624a8.35 8.35 0 01-.216.744l-1.032 3.312h-1.152l.84-3.456a1.23 1.23 0 01-.648-.432 1.327 1.327 0 01-.24-.792c0-.384.12-.696.36-.936.24-.24.544-.36.912-.36zm23.758 5.208c1.584 0 2.824.456 3.72 1.368.912.912 1.368 2.256 1.368 4.032V56h-1.704v-7.152c0-1.312-.32-2.312-.96-3-.624-.688-1.512-1.032-2.664-1.032-1.312 0-2.344.408-3.096 1.224-.752.8-1.128 1.912-1.128 3.336V56h-1.704v-7.152c0-1.312-.32-2.312-.96-3-.624-.688-1.52-1.032-2.688-1.032-1.296 0-2.328.408-3.096 1.224-.752.8-1.128 1.912-1.128 3.336V56h-1.704V43.376h1.632v2.304a4.553 4.553 0 011.872-1.776c.8-.416 1.72-.624 2.76-.624 1.056 0 1.968.224 2.736.672.784.448 1.368 1.112 1.752 1.992A4.86 4.86 0 01306.239 44c.88-.48 1.88-.72 3-.72z" fill="#000"/><path d="M347.009 39.2V56h-3.888v-6.888h-7.632V56h-3.888V39.2h3.888v6.624h7.632V39.2h3.888zm19.838 3.888V56h-3.552v-1.536a5.096 5.096 0 01-1.776 1.296 5.722 5.722 0 01-2.232.432c-1.696 0-3.04-.488-4.032-1.464s-1.488-2.424-1.488-4.344v-7.296h3.744v6.744c0 2.08.872 3.12 2.616 3.12.896 0 1.616-.288 2.16-.864.544-.592.816-1.464.816-2.616v-6.384h3.744zm6.589-4.896h3.744V56h-3.744V38.192zm10.339 4.896h3.744V56h-3.744V43.088zm1.872-1.8c-.688 0-1.248-.2-1.68-.6a1.946 1.946 0 01-.648-1.488c0-.592.216-1.088.648-1.488.432-.4.992-.6 1.68-.6s1.248.192 1.68.576c.432.384.648.864.648 1.44 0 .624-.216 1.144-.648 1.56-.432.4-.992.6-1.68.6z" fill="#18A0FB"/></g></svg><view id="img_about_teacher_left" viewBox="0 1169 91 196"/><svg width="91" height="196" fill="none" viewBox="-2 -2 91 196" id="img_about_teacher_left-" y="1169" xmlns="http://www.w3.org/2000/svg"><g clip-path="url(#mclip0)"><path d="M43.113 70.227l1.005 44.528-41.707 3.617L0 145.614l5.786-5.786s62.44 13.019 76.905 0c14.465-13.018-20.131-61.46-20.131-61.46" fill="#CA4141"/><path d="M43.567 90.315l.551 24.441-26 2.254a74.693 74.693 0 00-1.483 14.983 76.88 76.88 0 00.635 9.914c11.468 1.868 29.446 4.23 44.092 3.604a75.378 75.378 0 001.198-13.518c0-20.873-8.203-38.213-18.993-41.678z" fill="#000"/><path d="M56.126 70.227s4.867 79.433-8.878 117.042l2.87 4.219H25.672S23 90.453 23 68.645l33.126 1.582z" fill="#CA4141"/><path d="M56.126 70.227s4.867 79.433-8.878 117.042l2.87 4.219" stroke="#000" stroke-width=".5" stroke-linecap="round" stroke-linejoin="round"/><path d="M48.008 8.768V19.09l-12.789 3.143V4.814L48.008 1.67v7.098z" fill="#EDEEEF"/><path d="M40.784 12.34a.342.342 0 100-.684.342.342 0 000 .684zM46.036 12.34a.342.342 0 100-.684.342.342 0 000 .684z" fill="#000"/><path d="M44.495 14.037V8.768h2.64M40.14 8.768h2.64" stroke="#000" stroke-width=".5" stroke-linecap="round" stroke-linejoin="round"/><path d="M36.062 11.468v1.83a1.787 1.787 0 01-1.78-1.95c.1-1.11 1.78-.994 1.78.12z" fill="#EDEEEF"/><path d="M36.062 13.298c-.987 0-1.787-.8-1.787-1.787" stroke="#000" stroke-width=".5" stroke-linecap="round" stroke-linejoin="round"/><path d="M43.34 15.336a1.81 1.81 0 01-1.809-1.809" stroke="#CA4141" stroke-width=".5" stroke-linecap="round" stroke-linejoin="round"/><path d="M48.008 19.091L35.22 22.234M44.495 14.041l-1.154.284" stroke="#000" stroke-width=".5" stroke-linecap="round" stroke-linejoin="round"/><path d="M23 40.72v27.925l39.56 9.724V47.266a23.956 23.956 0 00-18.238-23.263A17.213 17.213 0 0023 40.72z" fill="#EDEEEF"/><path d="M36.062 10.571s2.405-1.434 2.35-3.981l4.368 1.315V6.188l4.355 1.717V6.188l1.805.723" stroke="#000" stroke-width=".5" stroke-linecap="round" stroke-linejoin="round"/><path d="M48.008 8.768s2.94-1.616 2.218-6.196c0 0-6.108-3.536-13.501 0L37.368 0s-3.317 1.366-2.732 3.295l-2.17.16 1.809 1.286s-2.672 2.982.893 5.83M32.466 25.346S8.438 38.332 6.509 58.583c-1.928 20.251 46.182 9.644 50.454 7.956 4.272-1.688 3.549-5.063 3.549-5.063s7.232-2.893 6.509-3.134c-.723-.24-40.502-3.134-40.502-3.134L38.332 44.36" stroke="#000" stroke-width=".5" stroke-linecap="round" stroke-linejoin="round"/><path d="M52.639 27.852s9.925 5.474 18.283 21.225c0 0-.847-23.939 6.707-25.579 7.554-1.64 8.679-1.413 7.232 0-1.446 1.414-3.696 1.848-3.696 1.848s3.214 5.191-1.447 6.155c0 0 16.471 51.466-17.158 37.144" stroke="#000" stroke-width=".5" stroke-linecap="round" stroke-linejoin="round"/></g><defs><clipPath id="mclip0"><path fill="#fff" d="M0 0h86.227v191.488H0z"/></clipPath></defs></svg><view id="logo_lidemy" viewBox="0 1365 56 56"/><svg width="56" height="56" fill="none" viewBox="-2 -2 56 56" id="logo_lidemy-" y="1365" xmlns="http://www.w3.org/2000/svg"><path fill="#EB1E28" d="M0 0h52v52H0z"/><path fill="#fff" d="M13.827 11.267h3.585v28.679h-3.585zM33.8 19.461h3.585v20.485H33.8z"/><path fill="#fff" d="M13.827 36.873h15.876v3.073H13.827z"/><circle cx="35.593" cy="13.571" r="2.305" fill="#fff"/></svg><view id="logo_mtr" viewBox="0 1421 114 43"/><svg width="114" height="43" fill="none" viewBox="-2 -2 114 43" id="logo_mtr-" y="1421" xmlns="http://www.w3.org/2000/svg"><g clip-path="url(#oclip0)"><path d="M49.257 6.567V16H51.2V9.381h.026L53.538 16h1.598l2.312-6.685h.027V16h1.942V6.567h-2.92l-2.087 6.487h-.027l-2.206-6.487h-2.92zm17.034 5.285H63.24c.01-.133.036-.282.08-.45.052-.167.136-.325.25-.475.124-.15.282-.273.476-.37.203-.106.454-.159.753-.159.458 0 .797.124 1.017.37.23.247.388.608.476 1.084zM63.24 13.04h4.928a4.82 4.82 0 00-.132-1.52 3.653 3.653 0 00-.608-1.294 2.911 2.911 0 00-1.057-.899c-.431-.229-.938-.343-1.519-.343-.52 0-.995.092-1.427.277-.422.185-.788.44-1.096.766a3.28 3.28 0 00-.714 1.137c-.167.44-.25.916-.25 1.427 0 .528.079 1.012.237 1.453.167.44.4.819.7 1.136.3.317.665.564 1.097.74a3.99 3.99 0 001.453.25c.775 0 1.436-.175 1.982-.528.546-.352.951-.938 1.215-1.757h-1.651c-.062.212-.23.414-.502.608-.273.185-.6.277-.978.277-.528 0-.933-.136-1.215-.41-.282-.272-.436-.713-.463-1.32zm6.684-3.871V16h1.876v-3.58c0-.696.114-1.194.343-1.493.23-.308.6-.463 1.11-.463.45 0 .762.141.938.423.176.273.264.692.264 1.255V16h1.876v-4.201c0-.423-.04-.806-.119-1.15a2.085 2.085 0 00-.383-.885 1.755 1.755 0 00-.766-.568c-.317-.14-.727-.211-1.229-.211-.396 0-.784.092-1.162.277a2.11 2.11 0 00-.925.859h-.04V9.17h-1.783zm10.86 0V7.122h-1.875V9.17h-1.136v1.255h1.136v4.03c0 .343.057.62.171.832.115.211.27.374.463.488.202.115.431.19.687.225.264.044.541.066.832.066.185 0 .374-.004.568-.013.194-.009.37-.027.529-.053v-1.453a2.6 2.6 0 01-.278.04 3.362 3.362 0 01-.304.013c-.317 0-.528-.053-.634-.159-.105-.106-.158-.317-.158-.634v-3.382h1.374V9.17h-1.374zm4.584 3.421c0-.273.026-.541.08-.805.052-.265.14-.498.263-.7.132-.203.304-.366.516-.49.21-.132.475-.198.792-.198.317 0 .582.066.793.199.22.123.392.286.515.488.132.203.225.436.278.7a4.102 4.102 0 010 1.612 2.119 2.119 0 01-.278.7 1.377 1.377 0 01-.515.49c-.212.123-.476.184-.793.184-.317 0-.581-.061-.792-.185a1.522 1.522 0 01-.516-.488 2.306 2.306 0 01-.264-.7 4.096 4.096 0 01-.08-.806zm-1.876 0c0 .546.084 1.04.25 1.48.168.44.406.82.714 1.136.308.309.678.546 1.11.714.432.167.916.25 1.453.25s1.022-.083 1.454-.25c.44-.168.814-.405 1.123-.714a3.28 3.28 0 00.713-1.136 4.14 4.14 0 00.25-1.48 4.14 4.14 0 00-.25-1.48 3.124 3.124 0 00-.714-1.135 3.056 3.056 0 00-1.122-.727 3.815 3.815 0 00-1.454-.264c-.537 0-1.021.088-1.453.264a3.124 3.124 0 00-1.823 1.863 4.14 4.14 0 00-.251 1.48zm8.935-3.421V16h1.876v-3.078c0-.309.031-.595.093-.859s.163-.493.304-.687a1.54 1.54 0 01.581-.476c.238-.114.528-.171.872-.171.114 0 .233.009.357.026.123.009.229.022.317.04V9.05a1.463 1.463 0 00-.41-.066 2.24 2.24 0 00-.687.105c-.22.07-.427.172-.62.304a2.134 2.134 0 00-.516.463c-.15.176-.269.37-.357.581h-.026V9.17h-1.784zM51.332 28.006V25.18h1.611c.238 0 .467.018.687.053.22.035.414.105.582.211.167.097.3.238.396.423.106.185.159.427.159.727 0 .299-.053.541-.159.726-.097.185-.229.33-.396.436a1.68 1.68 0 01-.582.198c-.22.035-.449.053-.687.053h-1.611zm-2.075-4.439V33h2.075v-3.382h2.18c.59 0 1.092-.084 1.505-.251a2.82 2.82 0 001.005-.687 2.5 2.5 0 00.568-.965 3.53 3.53 0 00.185-1.122c0-.388-.062-.762-.185-1.123a2.5 2.5 0 00-.568-.965 2.686 2.686 0 00-1.005-.674c-.413-.176-.915-.264-1.506-.264h-4.254zm9.263 2.603V33h1.876v-3.078c0-.309.03-.595.092-.859a1.88 1.88 0 01.304-.687 1.54 1.54 0 01.581-.476c.238-.114.529-.171.872-.171.115 0 .234.009.357.026.123.009.23.022.317.04V26.05a1.464 1.464 0 00-.41-.066c-.237 0-.466.035-.686.105a2.39 2.39 0 00-.621.304 2.136 2.136 0 00-.516.463 2.2 2.2 0 00-.356.581h-.027V26.17H58.52zm7.215 3.421c0-.273.026-.541.079-.805.053-.265.141-.498.264-.7.132-.203.304-.366.516-.49.21-.132.475-.198.792-.198.317 0 .582.066.793.198.22.124.392.287.515.49.132.202.225.435.278.7a4.102 4.102 0 010 1.611 2.121 2.121 0 01-.278.7 1.377 1.377 0 01-.515.49c-.212.123-.476.184-.793.184-.317 0-.581-.061-.792-.185a1.522 1.522 0 01-.516-.488 2.308 2.308 0 01-.264-.7 4.103 4.103 0 01-.08-.806zm-1.876 0c0 .546.083 1.04.25 1.48.168.44.406.82.714 1.136.309.309.678.546 1.11.714a3.99 3.99 0 001.453.25c.538 0 1.022-.083 1.454-.25.44-.168.814-.405 1.122-.714.309-.317.546-.695.714-1.136.167-.44.25-.934.25-1.48 0-.546-.083-1.039-.25-1.48a3.122 3.122 0 00-.714-1.135 3.055 3.055 0 00-1.123-.727 3.814 3.814 0 00-1.453-.264c-.537 0-1.021.088-1.453.264a3.122 3.122 0 00-1.823 1.863c-.168.44-.251.933-.251 1.48zm12.12 1.797c-.291 0-.534-.061-.727-.185a1.533 1.533 0 01-.476-.475 2.2 2.2 0 01-.25-.648 4.195 4.195 0 01-.067-.74c0-.255.026-.497.08-.726.06-.238.153-.445.277-.621.132-.185.29-.33.475-.436.194-.106.423-.159.687-.159.309 0 .564.058.767.172.202.115.365.269.488.462.124.194.212.419.265.674.052.247.079.511.079.793 0 .247-.035.484-.106.713a1.78 1.78 0 01-.29.595c-.133.176-.3.317-.502.423a1.492 1.492 0 01-.7.158zm3.381 1.176V26.17h-1.783v.911h-.026c-.23-.396-.516-.678-.86-.845-.334-.168-.726-.251-1.175-.251-.476 0-.898.092-1.268.277a2.7 2.7 0 00-.912.753c-.247.308-.436.67-.568 1.084a4.332 4.332 0 00-.185 1.268c0 .467.053.912.159 1.334.114.414.29.78.528 1.097a2.6 2.6 0 00.912.74c.37.176.81.264 1.32.264.415 0 .807-.084 1.177-.251.378-.176.669-.445.871-.806h.027v.898c.009.485-.11.886-.357 1.203-.238.317-.62.475-1.15.475-.334 0-.629-.07-.884-.211-.256-.132-.428-.375-.516-.727h-1.862c.026.388.132.718.317.991.193.282.431.51.713.687.29.176.608.304.951.383a4.24 4.24 0 001.03.132c.785 0 1.41-.105 1.877-.317.467-.211.823-.471 1.07-.78.246-.299.405-.625.475-.977.08-.352.12-.665.12-.938zm2.159-6.394V33h1.876v-3.078c0-.309.03-.595.092-.859a1.88 1.88 0 01.304-.687 1.54 1.54 0 01.581-.476c.238-.114.529-.171.872-.171.115 0 .234.009.357.026.123.009.229.022.317.04V26.05a1.465 1.465 0 00-.41-.066c-.237 0-.466.035-.687.105-.22.07-.427.172-.62.304a2.136 2.136 0 00-.516.463 2.2 2.2 0 00-.356.581h-.027V26.17H81.52zm5.712 2.1c.026-.44.136-.806.33-1.096.194-.29.44-.524.74-.7.3-.177.634-.3 1.004-.37a5.53 5.53 0 011.136-.12c.344 0 .692.027 1.044.08.352.044.674.137.964.277.291.141.529.34.714.595.185.247.277.577.277.99v3.555c0 .308.018.603.053.885.035.282.097.493.185.634h-1.902a4.306 4.306 0 01-.093-.317 4.51 4.51 0 01-.04-.344c-.299.309-.651.525-1.056.648-.406.123-.82.185-1.242.185-.326 0-.63-.04-.912-.12a2.086 2.086 0 01-.74-.37 1.785 1.785 0 01-.502-.633 2.215 2.215 0 01-.172-.912c0-.387.067-.704.199-.951.14-.255.317-.458.528-.608.22-.15.467-.26.74-.33.282-.08.564-.141.846-.185.281-.044.559-.08.832-.106.273-.026.515-.066.727-.119.21-.052.378-.127.501-.224.124-.106.181-.256.172-.45 0-.202-.035-.36-.105-.475a.62.62 0 00-.265-.277.861.861 0 00-.383-.133 2.507 2.507 0 00-.462-.04c-.37 0-.66.08-.872.239-.212.158-.335.422-.37.792H87.23zm4.333 1.387a.916.916 0 01-.304.172 5.308 5.308 0 01-.806.159c-.15.017-.299.04-.449.066-.14.026-.281.062-.422.106a1.245 1.245 0 00-.357.184.815.815 0 00-.238.278.914.914 0 00-.092.436c0 .167.03.308.092.423a.762.762 0 00.251.277c.106.062.229.106.37.132.14.027.286.04.436.04.37 0 .656-.062.859-.185.202-.123.352-.269.449-.436.097-.176.154-.352.172-.529.026-.176.04-.317.04-.422v-.7zm4.028-3.487V33h1.876v-3.963c0-.335.049-.604.145-.806.097-.212.212-.37.344-.476a1.1 1.1 0 01.423-.224 1.35 1.35 0 01.356-.067c.3 0 .524.053.674.159a.764.764 0 01.33.396c.071.168.11.353.12.555.008.194.013.392.013.595V33h1.876v-3.805c0-.211.013-.418.039-.62.036-.212.097-.397.185-.556.097-.167.225-.3.383-.396.168-.106.383-.159.648-.159.264 0 .471.045.621.133a.87.87 0 01.356.356c.08.15.128.326.146.529.017.202.026.418.026.647V33h1.876v-4.571c0-.44-.062-.815-.185-1.123a1.929 1.929 0 00-.515-.766 2.016 2.016 0 00-.793-.423 3.64 3.64 0 00-1.004-.132c-.475 0-.889.114-1.242.343a2.95 2.95 0 00-.819.793c-.185-.423-.458-.718-.819-.885a2.703 2.703 0 00-1.176-.251c-.449 0-.85.097-1.202.29a2.694 2.694 0 00-.885.82h-.026v-.925h-1.77z" fill="#4D4D4D"/><path fill="#EB1E28" d="M0 0h40v40H0z"/><path fill="#fff" d="M10.636 8.667h2.758v22.061h-2.758zM26 14.97h2.758v15.758H26z"/><path fill="#fff" d="M10.636 28.364h12.212v2.364H10.636z"/><circle cx="27.379" cy="10.439" r="1.773" fill="#fff"/></g><defs><clipPath id="oclip0"><path fill="#fff" d="M0 0h110v39H0z"/></clipPath></defs></svg></svg>