<svg width="83" height="94" viewBox="0 0 83 94" fill="none" xmlns="http://www.w3.org/2000/svg">
<circle cx="41.5" cy="52.5" r="41.5" fill="#CA4141"/>
<path d="M28.86 56.8032C27.1577 54.5983 25.6325 52.5249 24.8227 50.8193C23.6219 48.3356 24.2474 41.0939 26.5178 38.2051C28.7883 35.3162 46.7917 21.9542 47.0188 21.9383C48.9375 21.6329 59.7472 20.3635 65.8757 28.0375C66.4344 28.6832 66.9403 29.3896 67.4013 30.2703C68.4 32.3117 68.9563 34.5552 68.9448 36.8384L68.8566 47.0013C68.8145 48.0314 68.7156 49.0653 68.556 50.0465C67.4096 57.3163 65.1498 63.3515 62.5687 67.2409C60.6623 70.1702 58.5022 71.9189 56.5188 72.1147C55.9549 72.2112 52.8847 72.3688 49.232 71.5401C48.9938 71.4788 49.0564 71.5296 47.5704 71.0031L47.8743 77.7C52.8023 78.7306 59.1824 80.1529 64.3151 83.8945C56.9876 87.793 48.8728 89.5474 39.9707 89.1574C36.1417 88.9897 32.1043 88.476 27.8586 87.6165C23 85.9998 22 85.4998 18.5 83.4998C17.625 82.9998 15.5 81.4998 14.8723 80.7283C14.8993 80.7052 14.9264 80.6821 14.9536 80.6591C16.8261 79.1168 22.2086 78.1593 28.0836 77.6382L28.4496 56.6741L28.86 56.8032Z" fill="white"/>
<path d="M47.5721 71.0214L39.6536 68.3438L47.8402 77.6839L47.5721 71.0214Z" fill="#482D1F"/>
<path d="M56.6065 22.2041C59.787 23.0179 63.129 24.6622 65.6677 27.8411C66.2264 28.4867 66.7323 29.1931 67.1933 30.0739C67.6336 30.9739 67.9879 31.9133 68.2455 32.8781L39.4119 42.9333L43.1099 23.5106C48.6261 22.707 53.125 22.2715 56.6065 22.2041Z" fill="#482D1F"/>
<path d="M58.8374 23.4254C48.7411 33.312 42.3118 39.7713 39.5494 42.8034C39.4475 42.9506 39.3451 43.1029 39.2422 43.2599C39.12 42.7443 38.6457 41.0667 37.3445 39.4469C37.223 39.3413 36.1703 38.1596 34.6503 37.6382C31.91 36.8027 28.4729 38.2413 26.713 40.818C24.8435 43.4594 25.0778 46.8095 26.3354 49.2893C27.5929 51.7691 29.7772 52.8146 30.5392 53.1037L33.6043 53.6882L33.9138 53.5475C31.6606 58.3152 29.6065 62.6056 28.2918 62.9163C25.9012 63.4813 22.2148 58.3763 19.612 55.9033C17.9579 54.3318 13.9844 49.1897 12.7958 42.0284C12.4426 39.6592 11.1304 31.6246 16.0652 25.295C17.7873 23.0957 19.8327 21.9448 20.6732 21.445C23.5334 19.9208 34.5141 19.0493 42.9505 18.5878C41.3435 16.098 40.3665 10.9383 40.0194 3.10867C40.0079 2.85114 40.0843 2.59735 40.2358 2.38884C40.6056 1.88029 41.3175 1.76773 41.8261 2.13743C48.8155 7.21856 53.2637 10.9101 55.1707 13.2121C56.5708 10.9838 60.6563 8.38795 67.4273 5.42467C67.6652 5.32053 67.9316 5.3009 68.1823 5.36902C68.789 5.53393 69.1472 6.15946 68.9823 6.76619C66.174 17.0982 64.0373 22.5261 62.5721 23.0496C61.7668 23.3374 60.5219 23.4627 58.8374 23.4254Z" fill="#750C0C"/>
<path d="M66.0921 48.9847C66.2148 48.2914 66.8605 47.7327 67.5498 47.7986C68.008 47.8236 68.3726 48.1405 68.5985 48.9235C68.9078 50.899 66.9248 53.5483 66.2168 52.3996C65.7109 51.6932 65.9365 50.0227 66.0921 48.9847ZM53.5979 48.2966C53.7206 47.6033 54.3663 47.0446 55.0556 47.1105C55.5138 47.1355 55.8783 47.4524 56.1043 48.2355C56.4136 50.2109 54.4306 52.8603 53.7226 51.7115C53.2167 51.0051 53.4422 49.3346 53.5979 48.2966Z" fill="#482D1F"/>
<path d="M61.8574 49.7215L62.3113 55.3958C62.3127 55.4172 62.2323 55.5097 62.2052 55.5116C61.8946 55.5334 61.5757 55.5352 61.0769 55.5219C60.98 55.5193 60.8787 55.5163 60.7328 55.5117C60.5489 55.5058 60.4482 55.5026 60.3518 55.4997C60.0216 55.4896 59.7483 55.4827 59.4563 55.4778C59.142 55.4724 58.8829 55.7229 58.8775 56.0373C58.8722 56.3516 59.1227 56.6107 59.437 56.616C59.7232 56.6209 59.9916 56.6276 60.317 56.6376C60.4127 56.6405 60.5126 56.6437 60.6969 56.6495C60.8445 56.6542 60.9474 56.6572 61.0465 56.6599C61.5788 56.6741 61.93 56.6721 62.2846 56.6473C62.9389 56.6015 63.4922 55.965 63.4465 55.3107L62.9922 49.6308C62.9671 49.3174 62.6928 49.0837 62.3794 49.1087C62.0661 49.1338 61.8323 49.4082 61.8574 49.7215Z" fill="#482D1F"/>
<path d="M58.5731 59.874C58.1637 59.7314 57.1667 59.3446 57.0702 58.7808C57.0622 58.6672 56.9935 58.5008 57.1031 58.4361C57.3672 58.1324 58.0684 58.3686 59.1104 58.5811C60.9592 58.9083 62.4435 58.9186 62.4435 58.9186C62.4435 58.9186 61.9392 59.8668 61.6144 60.1178C60.9806 60.8468 59.1608 60.1182 58.5731 59.874Z" fill="#482D1F"/>
<path d="M44.7723 46.7634L41.3733 45.9756C40.9139 45.8691 40.6278 45.4104 40.7343 44.951C40.8407 44.4917 41.2994 44.2056 41.7588 44.312L45.4136 45.1591C46.6775 42.7758 49.1057 41.0789 51.995 40.8768C56.4481 40.5654 60.3106 43.923 60.6219 48.3761C60.6294 48.4825 60.6347 48.5885 60.638 48.6941L62.3686 48.7849C62.8891 45.087 65.9344 42.1274 69.8092 41.8565C74.2624 41.5451 78.1248 44.9026 78.4362 49.3558C78.7476 53.8089 75.39 57.6713 70.9369 57.9827C66.4866 58.2939 62.6262 54.9408 62.3105 50.4918L60.5111 50.3975C59.8638 53.9435 56.8841 56.74 53.1227 57.0031C48.6695 57.3145 44.8071 53.9569 44.4957 49.5038C44.4293 48.5538 44.5298 47.6308 44.7723 46.7634ZM46.6048 46.6571C46.2811 47.4997 46.132 48.4248 46.1992 49.3847C46.4448 52.897 49.4912 55.5452 53.0035 55.2996C56.5159 55.054 59.1641 52.0076 58.9185 48.4952C58.6729 44.9829 55.6264 42.3347 52.1141 42.5803C49.7025 42.7489 47.6983 44.238 46.7584 46.2916C46.7555 46.3093 46.7519 46.3271 46.7478 46.3448C46.7209 46.4612 46.6713 46.5665 46.6048 46.6571ZM63.9977 49.879C63.9969 50.0396 64.002 50.2015 64.0134 50.3643C64.259 53.8766 67.3054 56.5249 70.8178 56.2792C74.3301 56.0336 76.9783 52.9872 76.7327 49.4749C76.4871 45.9625 73.4407 43.3143 69.9284 43.5599C66.6949 43.7861 64.1937 46.3859 64.0086 49.5377C64.019 49.5988 64.0229 49.662 64.0195 49.7264C64.0167 49.7788 64.0093 49.8297 63.9977 49.879Z" fill="#482D1F"/>
</svg>
