<svg width="83" height="83" viewBox="0 0 83 83" fill="none" xmlns="http://www.w3.org/2000/svg">
<circle cx="41.5" cy="41.5" r="41.5" fill="#CA4141"/>
<path d="M47.0362 63C46.7764 62.8937 46.199 74.6011 46.199 74.6011C45.7648 76.0959 44.2835 77.0317 42.7471 76.7818C39.2806 76.2179 36.8769 75.6688 35.5362 75.1345C32.8779 74.0752 30.8539 72.8923 29.4641 71.5857C28.787 70.9491 28.5257 69.9856 28.7885 69.0941L31.5362 56.5L31.5362 49.5L30.6151 43.7045C30.1376 43.3514 29.662 42.9274 29.2228 42.4219C27.3717 40.2159 26.9695 31.4559 28.1633 28.2838C29.3522 25.2965 41.0122 30.1058 41.0517 28.6281C41.078 27.643 41.28 22.3906 41.6575 12.871C41.6839 11.8858 42.5057 11.1068 43.4908 11.1331C45.7073 11.1923 47.8057 11.0636 50.1602 10.5719C50.4065 10.5785 50.6544 10.5235 50.9007 10.5301C53.0023 10.2782 64.7287 9.54402 70.9051 18.2119C71.501 18.9672 71.9722 19.7807 72.4401 20.7175C73.5524 22.9037 74.0407 25.3813 73.8518 27.8409L73.1263 38.8505C73.0351 39.9571 72.8824 41.0621 72.6681 42.1655C69.7186 55.7035 63.4929 65.0259 58.3094 65.3187C57.6921 65.3638 54.3639 65.3981 50.5129 64.2478C50.2084 64.1164 47.8387 63.3253 47.8387 63.3253C47.8387 63.3253 47.296 63.1063 47.0362 63Z" fill="white"/>
<path d="M73.027 39.7188C73.3903 41.2623 73.7424 42.5455 74.2499 43.9083C74.8396 45.5877 75.7664 48.5045 77.0304 52.6589C77.8749 55.503 77.9241 57.4196 77.1779 58.4088C76.3832 59.4957 66.4099 60.5951 65.4958 60.5082C65.3299 60.4925 65.1649 60.4773 65.0009 60.4626C68.1024 56.3917 70.9471 49.9171 72.6717 42.0013C72.8194 41.2412 72.9378 40.4804 73.027 39.7188ZM75.1134 35.7085C73.8793 35.9434 71.9073 36.0484 70.3105 35.5408C67.5475 34.5913 70.3327 33.1388 72.8568 33.2854C74.088 33.3584 75.0067 33.9212 75.5565 34.4191C75.9836 34.8542 75.7304 35.591 75.1134 35.7085ZM61.803 34.9565C60.5689 35.1914 58.5963 35.3579 56.8769 34.7877C54.1133 33.8997 56.8991 32.3857 59.4232 32.5322C60.716 32.6058 61.6347 33.1686 62.1845 33.6665C62.6732 34.1022 62.42 34.839 61.803 34.9565ZM34.6967 46.4629L35.4395 57.6159C35.3877 57.6126 35.336 57.6091 35.2844 57.6056C35.2854 57.6184 35.2859 57.6249 35.2859 57.6249C35.2859 57.6249 35.277 57.6178 35.2595 57.6039C22.7981 56.7554 14.4852 52.437 8.80813 49.7879C7.81832 49.3281 6.67318 48.6581 6.05492 47.382C5.19606 45.6338 5.86303 43.6786 6.71577 41.3152C7.2396 39.899 8.10757 37.8493 9.68212 35.6565C11.1782 33.6629 13.1822 30.6708 15.7718 26.6131C15.9828 23.2674 16.9365 19.0223 20.0513 15.4957C21.8928 13.45 23.9542 12.396 24.8277 11.988C29.6328 9.7134 33.2342 10.9803 42.5996 10.9841C44.5099 10.9735 52.5073 10.421 52.7536 10.4276C54.8552 10.1757 65.0897 9.86179 70.9049 18.2119C71.208 18.6282 71.5121 19.0722 71.8172 19.5438C69.9056 20.5092 68.3929 21.0797 67.2791 21.2553C62.6366 22.0555 58.6543 21.2097 56.2112 20.4051C55.4944 21.8647 54.4649 23.5008 53.1291 25.0671C49.4533 29.6476 45.0419 31.9314 42.1621 33.0734C41.4388 32.2931 40.1951 31.0152 38.9135 29.9892C38.7321 29.8612 37.4622 28.9646 35.803 28.7971C32.8542 28.4718 29.7115 30.7908 28.5226 33.7782C27.2689 36.8871 28.1652 40.2382 29.9564 42.3809C31.5461 44.2826 33.7015 44.9861 34.6795 45.2633C34.6827 45.6571 34.6886 46.0579 34.6967 46.4629Z" fill="#333333"/>
<path d="M69.4366 39.5051C69.5667 38.7671 70.1883 38.1569 70.9268 38.2254C71.4195 38.2299 71.8484 38.4803 72.0251 39.3442C72.4996 41.3197 70.5635 44.1967 69.7115 43.0801C69.1646 42.2743 69.2422 40.5504 69.4366 39.5051ZM59.5155 38.9706C59.6455 38.2327 60.2671 37.6225 61.0056 37.6909C61.4984 37.6954 61.9272 37.9458 62.104 38.8098C62.5785 40.7852 60.6424 43.6623 59.7904 42.5457C59.1819 41.7393 59.321 40.0159 59.5155 38.9706Z" fill="#333333"/>
<path d="M63.3314 51.9677C62.9014 51.8405 61.8573 51.5229 61.6793 50.7821C61.6805 50.6589 61.6206 50.4736 61.6833 50.351C61.9337 49.9221 62.7321 50.1759 63.8395 50.3093C65.8093 50.4508 67.4118 50.3424 67.4118 50.3424C67.4118 50.3424 66.9076 51.5697 66.5963 51.9363C65.9718 52.8545 64.0072 52.1588 63.3314 51.9677Z" fill="#333333"/>
<path d="M66.6573 46.3193C66.6471 46.3176 66.5832 46.3215 66.5192 46.3251C65.9046 46.3594 65.45 46.3613 63.8017 46.3461C63.4616 46.3429 63.1833 46.6161 63.1801 46.9563C63.177 47.2964 63.4502 47.5747 63.7903 47.5779C65.4683 47.5934 65.936 47.5914 66.5878 47.555C66.6566 47.5512 66.7254 47.5469 66.7945 47.5423C67.5201 47.4307 67.9859 46.8106 67.9921 46.1385L67.9883 46.0642L67.2534 39.5089L67.3475 35.9181C67.3564 35.5781 67.088 35.2952 66.7479 35.2863C66.4079 35.2774 66.125 35.5458 66.1161 35.8858L66.0208 39.5191L66.0245 39.6039L66.7587 46.1532C66.7486 46.2432 66.6929 46.3137 66.6573 46.3193Z" fill="#333333"/>
<path d="M46.5363 70.5L43.0363 61L47.0363 63L46.5363 70.5Z" fill="#333333"/>
</svg>
