<svg width="44" height="19" viewBox="0 0 44 19" fill="none" xmlns="http://www.w3.org/2000/svg">
<rect y="8.20898" width="44" height="10.2985" rx="4" fill="#18A0FB" fill-opacity="0.05"/>
<path d="M8.75195 6.69291H8.65195V6.79291V7.43657V7.53657H8.75195H13.6717L11.8052 9.45879L11.7416 9.52435L11.8011 9.59364L12.2161 10.0764L12.2875 10.1594L12.3637 10.0809L15.1762 7.1844L15.2438 7.11474L15.1762 7.04508L12.3637 4.14862L12.2875 4.07011L12.2161 4.15309L11.8011 4.63584L11.7416 4.70513L11.8052 4.77069L13.6717 6.69291H8.75195ZM17.7678 9.49206C18.0709 8.73828 18.227 7.93047 18.227 7.11474C18.227 5.46742 17.5916 3.887 16.4596 2.7213C15.3276 1.5555 13.7917 0.9 12.1895 0.9C10.5872 0.9 9.05127 1.5555 7.91926 2.7213C6.78735 3.887 6.15195 5.46742 6.15195 7.11474C6.15195 7.93047 6.30796 8.73828 6.61114 9.49206C6.91432 10.2459 7.35878 10.931 7.91926 11.5082C8.47976 12.0854 9.14532 12.5434 9.87803 12.856C10.6108 13.1686 11.3962 13.3295 12.1895 13.3295C12.9827 13.3295 13.7682 13.1686 14.5009 12.856C15.2336 12.5434 15.8991 12.0854 16.4596 11.5082C17.0201 10.931 17.4646 10.2459 17.7678 9.49206ZM15.8742 3.31576C16.8521 4.32283 17.402 5.68931 17.402 7.11474C17.402 8.54017 16.8521 9.90665 15.8742 10.9137C14.8964 11.9207 13.5709 12.4858 12.1895 12.4858C10.808 12.4858 9.48247 11.9207 8.50469 10.9137C7.52682 9.90665 6.97695 8.54017 6.97695 7.11474C6.97695 5.68931 7.52682 4.32283 8.50469 3.31576C9.48247 2.3088 10.808 1.74366 12.1895 1.74366C13.5709 1.74366 14.8964 2.3088 15.8742 3.31576Z" fill="#18A0FB" stroke="#18A0FB" stroke-width="0.2"/>
</svg>
