<svg width="83" height="83" viewBox="0 0 83 83" fill="none" xmlns="http://www.w3.org/2000/svg">
<circle cx="41.5" cy="41.5" r="41.5" fill="#18A0FB"/>
<path d="M55.5016 47.5354L55.1094 68.4878C55.0899 68.8561 54.9126 69.216 54.5886 69.3572C53.1763 70.1267 51.1798 70.9708 48.7319 71.3691C44.3126 72.1381 40.6162 71.2042 38.5451 70.4618C38.1298 70.3343 37.8364 69.8968 37.8586 69.4759L38.1423 60.2435C35.3156 61.1281 35.4761 61.0331 35.2005 61.109C31.8417 61.7757 29.0063 61.5204 28.4858 61.3874C26.6002 61.1296 24.6844 59.4457 23.0374 56.6681C20.8063 52.9629 18.9438 47.2723 18.1393 40.5298C17.9789 39.5717 17.9763 38.622 17.9737 37.6722L18.2606 28.244C18.3192 26.1368 18.9536 24.1128 20.056 22.2191C20.5214 21.3996 20.9784 20.7379 21.535 20.187C27.4895 13.3266 37.4298 14.9067 39.2046 15.2642C39.4123 15.328 39.6227 15.3391 39.8303 15.4028C41.7491 16.0317 43.5821 16.2868 45.4207 16.4367C46.2624 16.4811 46.9074 17.2538 46.863 18.0955L46.099 31.5608C46.5892 31.2701 47.4266 29.5607 48.4401 29.3504C49.1877 29.1789 52.8996 28.2376 55.1948 29.7305C57.5398 31.2788 59.275 35.1388 59.4271 36.2547C59.8585 39.0736 58.492 42.6926 57.3204 44.8993C56.8423 45.787 56.2157 46.6589 55.5016 47.5354Z" fill="white"/>
<path d="M38.1552 60.2839L45.7243 57.3887L37.9849 65.8539L38.1552 60.2839Z" fill="#482D1F"/>
<path d="M50.1331 45.1355L50.323 45.2337C51.7352 45.1325 52.6749 44.9887 53.1419 44.8023C53.8425 44.5228 55.8917 43.6814 57.1714 41.4277C58.451 39.174 58.7728 36.0784 57.1645 33.5667C55.606 31.1103 52.5189 29.6284 49.9492 30.3367C48.5038 30.7352 47.4984 31.79 47.3876 31.8896C47.0493 32.2724 46.7657 32.6634 46.5294 33.0397L16.1677 29.6162C16.0883 23.1333 20.0677 15.462 24.5917 13.0341C25.9508 12.3048 30.2465 11.7911 33.7153 11.7557C39.0696 11.7011 44.4 12.9607 45.874 13.1456C47.0786 13.3148 48.2061 12.8189 50.3143 12.5235C53.7834 12.7373 55.7482 12.8343 56.9711 14.0103C58.6324 15.0096 61.2428 16.633 62.2589 17.9982C62.891 18.4009 64.4316 20.0692 65.6375 21.9793C69.3922 27.7698 68.0563 34.5048 67.5076 36.0585C67.3196 36.5907 65.452 41.8247 62.5824 46.5244C59.5874 51.4294 55.5893 55.7967 55.5893 55.7967C52.724 55.5017 50.9052 51.9479 50.1331 45.1355ZM19.7973 34.8639C19.2767 34.7309 19.155 34.0387 19.5428 33.6899C20.0385 33.294 20.9025 32.9176 21.9546 32.9732C24.1116 33.0871 26.3514 34.6298 23.8981 35.1333C22.4554 35.4791 20.783 35.1798 19.7973 34.8639ZM30.6154 35.8046C30.0949 35.6716 29.9732 34.9793 30.4135 34.6333C30.9092 34.2374 31.7732 33.861 32.878 33.9194C35.035 34.0333 37.272 35.6286 34.8214 36.0795C33.2707 36.4724 31.6565 36.0706 30.6154 35.8046Z" fill="#482D1F"/>
<path d="M23.7041 38.8158C23.6042 39.7074 23.3686 41.1721 22.8147 41.6704C21.8787 42.4123 20.8602 39.7207 21.6303 38.1259C21.9294 37.4559 22.3033 37.3701 22.7214 37.445C23.3471 37.5835 23.7374 38.1845 23.7041 38.8158ZM33.1295 39.1553C33.1349 40.0525 33.0571 41.5255 32.4977 42.1291C31.6613 42.9817 30.3216 40.3787 30.9366 38.723C31.1832 38.0502 31.5598 37.9118 31.9806 37.934C32.612 37.9673 33.1103 38.5212 33.1295 39.1553Z" fill="#482D1F"/>
<path d="M28.2426 49.7652C28.6164 49.6795 29.5247 49.4637 29.7131 48.8933C29.7186 48.7881 29.7796 48.633 29.7325 48.525C29.5415 48.1456 28.8991 48.3227 27.9494 48.3253C26.2603 48.3416 24.9008 48.1116 24.9008 48.1116C24.9008 48.1116 25.2135 49.1832 25.4599 49.5128C25.9969 50.3325 27.7082 49.8953 28.2426 49.7652Z" fill="#482D1F"/>
<path d="M25.2243 39.002L25.2333 38.9292L25.2263 38.9653L25.2243 39.002ZM24.1468 44.5168C24.0164 45.1049 24.4456 45.7118 25.04 45.8434C25.1707 45.8625 25.1707 45.8625 25.2555 45.8736C26.1395 45.9887 26.6932 46.0434 27.6458 46.0937C27.9364 46.1091 28.1844 45.886 28.1997 45.5954C28.2151 45.3049 27.992 45.0569 27.7014 45.0416C26.7786 44.9928 26.2507 44.9406 25.3915 44.8288L25.222 44.8066C25.2207 44.8042 25.1761 44.7412 25.1783 44.7312L26.2676 39.1304L26.2765 39.0576L26.4405 35.9536C26.4558 35.6631 26.2327 35.4151 25.9421 35.3997C25.6516 35.3844 25.4036 35.6075 25.3883 35.8981L25.2263 38.9653L24.1468 44.5168Z" fill="#482D1F"/>
</svg>
