<svg width="13" height="14" viewBox="0 0 13 14" fill="none" xmlns="http://www.w3.org/2000/svg">
<path d="M7.67171 7.53657L5.80521 9.45879L5.74155 9.52435L5.80112 9.59364L6.21612 10.0764L6.28746 10.1594L6.3637 10.0809L9.1762 7.1844L9.24384 7.11474L9.1762 7.04508L6.3637 4.14862L6.28746 4.07011L6.21612 4.15309L5.80112 4.63584L5.74155 4.70513L5.80521 4.77069L7.67171 6.69291H2.75195V6.79291H2.65195V7.43657V7.53657H2.75195H7.67171ZM11.7678 9.49206C12.0709 8.73828 12.227 7.93047 12.227 7.11474C12.227 5.46742 11.5916 3.887 10.4596 2.7213C9.32763 1.5555 7.79166 0.9 6.18945 0.9C4.58724 0.9 3.05127 1.5555 1.91926 2.7213C0.787352 3.887 0.151953 5.46742 0.151953 7.11474C0.151953 7.93047 0.307962 8.73828 0.611141 9.49206C0.914322 10.2459 1.35878 10.931 1.91926 11.5082C2.47976 12.0854 3.14532 12.5434 3.87803 12.856C4.61075 13.1686 5.39618 13.3295 6.18945 13.3295C6.98272 13.3295 7.76815 13.1686 8.50087 12.856C9.23358 12.5434 9.89915 12.0854 10.4596 11.5082C11.0201 10.931 11.4646 10.2459 11.7678 9.49206ZM9.87421 3.31576C10.8521 4.32283 11.402 5.68931 11.402 7.11474C11.402 8.54017 10.8521 9.90665 9.87421 10.9137C8.89644 11.9207 7.57093 12.4858 6.18945 12.4858C4.80798 12.4858 3.48247 11.9207 2.50469 10.9137C1.52682 9.90665 0.976953 8.54017 0.976953 7.11474C0.976953 5.68931 1.52682 4.32283 2.50469 3.31576C3.48247 2.3088 4.80798 1.74366 6.18945 1.74366C7.57093 1.74366 8.89644 2.3088 9.87421 3.31576Z" fill="#CA4141" stroke="#CA4141" stroke-width="0.2"/>
</svg>
