<svg width="161" height="146" viewBox="0 0 161 146" fill="none" xmlns="http://www.w3.org/2000/svg">
<path d="M38.9375 31.8158L1 44.6575L38.9375 57.4994L76.8752 44.6575L38.9375 31.8158V31.8158Z" fill="black"/>
<path d="M1 44.6575L38.9375 57.4994L76.8752 44.6575" stroke="black" stroke-width="0.5"/>
<path d="M38.9375 15.9078L1 28.7498L38.9375 41.5915L76.8752 28.7498L38.9375 15.9078V15.9078Z" fill="#EDEEEF"/>
<path d="M1 28.7499L38.9375 41.5916L76.8752 28.7499" stroke="black" stroke-width="0.5"/>
<path d="M38.9375 0L1 12.8419L38.9375 25.6839L76.8752 12.8419L38.9375 0V0Z" fill="#C38282"/>
<path d="M1 12.8419L38.9375 25.6839L76.8752 12.8419" stroke="black" stroke-width="0.5"/>
<path d="M18.8007 129.934L24.1815 134.408L38.5304 116.839L44.9875 122.014L79.0661 79.1079L109.199 129.934L117.45 121.204L132.516 144.891H6.24536L18.8007 129.934V129.934Z" fill="#F4F4F4"/>
<path d="M137.041 144.891H1.71973" stroke="black" stroke-width="0.5"/>
<path d="M101.652 55.5588C101.652 55.5588 77.1513 95.7635 68.9524 135.539L65.9307 137.241L80.3808 141.825C80.3808 141.825 112.391 95.5959 114.304 89.727C116.217 83.8581 112.937 55.5588 112.937 55.5588" fill="#C38282"/>
<path d="M107.998 73.7441C107.998 73.7441 104.066 93.0458 105.143 105.098C109.268 98.7451 112.617 93.3499 113.866 90.7604L107.998 73.7441Z" fill="black"/>
<path d="M108.741 12.2278V19.6983L118.406 21.9728V9.36598L108.741 7.09143V12.2278V12.2278Z" fill="#EDEEEF"/>
<path d="M114.201 14.8125C114.344 14.8125 114.459 14.7017 114.459 14.5651C114.459 14.4284 114.344 14.3176 114.201 14.3176C114.058 14.3176 113.942 14.4284 113.942 14.5651C113.942 14.7017 114.058 14.8125 114.201 14.8125Z" fill="black"/>
<path d="M110.232 14.8125C110.374 14.8125 110.49 14.7017 110.49 14.5651C110.49 14.4284 110.374 14.3176 110.232 14.3176C110.089 14.3176 109.973 14.4284 109.973 14.5651C109.973 14.7017 110.089 14.8125 110.232 14.8125Z" fill="black"/>
<path d="M111.396 16.0412V12.2279H109.401" stroke="black" stroke-width="0.5"/>
<path d="M114.688 12.2278H112.693" stroke="black" stroke-width="0.5"/>
<path d="M117.77 14.1817V15.5059C118.128 15.5059 118.471 15.3696 118.725 15.1271C118.978 14.8845 119.12 14.5555 119.12 14.2125C119.12 14.1728 119.118 14.1336 119.115 14.0948C119.039 13.2916 117.77 13.3753 117.77 14.1817Z" fill="#EDEEEF"/>
<path d="M117.77 15.5058C118.128 15.5058 118.471 15.3695 118.725 15.127C118.978 14.8844 119.12 14.5554 119.12 14.2124" stroke="black" stroke-width="0.5"/>
<path d="M116.602 21.5482L118.406 21.9729" stroke="black" stroke-width="0.5"/>
<path d="M111.396 16.0442L112.269 16.2496" stroke="black" stroke-width="0.5" stroke-linecap="round"/>
<path d="M108.741 14.3176C108.741 14.3176 106.801 19.7646 109.401 21.5482C112.001 23.3317 119.732 22.2926 117.635 14.9824" stroke="black" stroke-width="0.5"/>
<path d="M109.889 16.1416C109.816 16.2529 109.81 16.3928 109.872 16.5099C109.935 16.6269 110.057 16.7039 110.194 16.7124C110.753 16.8319 111.598 15.7785 112.329 16.352C112.329 16.352 112.493 15.5426 114.313 16.0267C116.133 16.5108 115.508 15.3601 115.508 15.3601" stroke="black" stroke-width="0.5"/>
<path d="M112.112 17.0793C112.798 17.3815 113.61 17.0939 113.925 16.4371" stroke="#C38282" stroke-width="0.5" stroke-linecap="round" stroke-linejoin="round"/>
<path d="M108.045 9.59583C108.045 9.59583 108.701 12.2946 114.688 10.6912C114.688 10.6912 115.05 12.1611 116.08 12.2278C117.111 12.2946 117.068 13.2813 117.068 13.2813" stroke="black" stroke-width="0.5"/>
<path d="M108.741 12.2277C108.741 12.2277 102.492 7.06603 109.832 6.80434C117.172 6.54264 121.145 8.7219 118.445 13.5349" stroke="black" stroke-width="0.5"/>
<path d="M101.652 35.3502V55.5587L131.551 62.595V40.0883C131.551 32.1078 125.861 25.1583 117.767 23.2536H117.767C113.886 22.3401 109.781 23.1858 106.635 25.5471C103.49 27.9083 101.652 31.5231 101.652 35.3502L101.652 35.3502Z" fill="#EDEEEF"/>
<path d="M131.551 62.5951L108.045 57.0634C108.045 57.0634 106.464 111.776 115.744 141.489L114.201 144.455H129.608C129.608 144.455 132.674 74.5654 131.551 62.5951Z" fill="#C38282"/>
<path d="M108.045 57.0634C108.045 57.0634 106.464 111.776 115.744 141.489" stroke="black" stroke-width="0.5"/>
<path d="M122.177 24.9004C122.177 24.9004 140.16 35.0673 139.613 51.9901C139.067 68.9129 126.312 75.7169 126.312 75.7169" stroke="black" stroke-width="0.5"/>
<path d="M121.575 66.3832C121.575 66.3832 124.217 75.6297 128.681 77.5488" stroke="black" stroke-width="0.5"/>
<path d="M119.12 41.9877L128.681 53.1532L121.815 67.1481" stroke="black" stroke-width="0.5"/>
<path d="M122.42 65.9139L128.681 53.1531L121.349 44.5908V44.5908C121.349 44.5908 125.816 57.3903 122.42 65.9139Z" fill="black"/>
<path d="M104.956 27.0545L92.1429 36.7711C92.1429 36.7711 77.3736 18.7516 74.1104 17.7956C70.8472 16.8395 66.8748 18.8423 66.8748 18.8423V20.0257L70.6532 20.6835C70.6532 20.6835 70.0965 24.8942 72.5009 26.8676C72.5009 26.8676 79.9549 52.9549 91.1466 53.0369C98.7993 53.093 101.652 51.0597 101.652 51.0597" stroke="black" stroke-width="0.5"/>
<path d="M80.474 144.891H161" stroke="black" stroke-width="0.5"/>
<path d="M151.476 144.284C151.476 144.284 152.864 141.934 149.341 141.423C147.248 141.113 145.107 141.36 143.151 142.138C143.151 142.138 145.606 139.277 141.763 138.05C137.921 136.824 133.972 139.685 133.972 139.685C133.972 139.685 137.814 132.838 134.826 132.327C131.837 131.816 130.236 134.78 130.236 134.78C130.236 134.78 130.556 126.298 124.366 126.093C118.175 125.889 118.816 136.926 118.816 136.926C118.816 136.926 116.147 132.021 111.665 131.816C107.182 131.612 109.423 140.033 109.423 140.033C109.423 140.033 108.569 138.05 105.581 137.846C102.592 137.641 102.806 140.04 102.806 140.04C102.806 140.04 98.9634 134.882 94.6941 135.189C90.4248 135.495 92.2392 140.605 92.2392 140.605C87.8632 140.299 86.9026 144.891 86.9026 144.891H154.571L151.476 144.284Z" fill="black"/>
</svg>
