<svg width="160" height="147" viewBox="0 0 160 147" fill="none" xmlns="http://www.w3.org/2000/svg">
<path d="M30.0547 53.1525L14.569 48.2799L14.0774 145.434H31.9784L30.0547 141.183C38.7115 110.487 30.0547 53.1525 30.0547 53.1525Z" fill="#CA4141"/>
<path d="M25.5848 112.88C25.5848 90.125 20.9127 71.6783 15.1495 71.6783C14.9133 71.6797 14.6782 71.7114 14.4501 71.7726L14.0774 145.434H21.5458C24.0032 137.896 25.5848 126.118 25.5848 112.88Z" fill="black"/>
<path d="M24.9492 54.3403C24.9492 54.3403 28.6466 114.012 18.2037 142.265L20.3851 145.434H1.81119C1.81119 145.434 0 72.3643 0 55.9823L24.9492 54.3403Z" fill="#CA4141"/>
<path d="M21.0051 8.17147V15.9264L11.2896 18.2876V5.20065L21.0051 2.83948V8.17147V8.17147Z" fill="#EDEEEF"/>
<path d="M14.5691 12.2298C14.5691 12.2298 16.9349 11.461 17.7133 12.6368C17.7133 12.6368 18.7005 11.543 19.9722 12.4258" stroke="#CA4141" stroke-width="0.5" stroke-linecap="round" stroke-linejoin="round"/>
<path d="M15.5169 10.8539C15.6603 10.8539 15.7766 10.739 15.7766 10.5974C15.7766 10.4557 15.6603 10.3408 15.5169 10.3408C15.3734 10.3408 15.2571 10.4557 15.2571 10.5974C15.2571 10.739 15.3734 10.8539 15.5169 10.8539Z" fill="black"/>
<path d="M19.5066 10.8539C19.6501 10.8539 19.7664 10.739 19.7664 10.5974C19.7664 10.4557 19.6501 10.3408 19.5066 10.3408C19.3631 10.3408 19.2468 10.4557 19.2468 10.5974C19.2468 10.739 19.3631 10.8539 19.5066 10.8539Z" fill="black"/>
<path d="M18.3362 12.1299V8.17139H20.3417" stroke="black" stroke-width="0.5"/>
<path d="M15.0273 8.17128H17.0329" stroke="black" stroke-width="0.5"/>
<path d="M11.9291 10.1995V11.5742C11.1792 11.5742 10.5713 10.9731 10.5713 10.2316C10.5713 10.1904 10.5731 10.1496 10.5768 10.1094C10.6529 9.27562 11.9291 9.36242 11.9291 10.1995Z" fill="#EDEEEF"/>
<path d="M11.9291 11.5743C11.1792 11.5743 10.5713 10.9732 10.5713 10.2317" stroke="black" stroke-width="0.5"/>
<path d="M17.1558 13.1048C16.7316 13.1048 16.3877 12.7651 16.3877 12.3462" stroke="#CA4141" stroke-width="0.5" stroke-linecap="round" stroke-linejoin="round"/>
<path d="M14.0773 17.61L11.2893 18.2867" stroke="black" stroke-width="0.5"/>
<path d="M18.3362 12.1331L17.459 12.346" stroke="black" stroke-width="0.5" stroke-linecap="round"/>
<path d="M30.0546 32.1745V53.1526L0 60.4568V37.093C1.88317e-06 28.8085 5.71973 21.5945 13.8558 19.6171H13.8558C17.7576 18.6689 21.8837 19.5468 25.0457 21.998C28.2077 24.4492 30.0547 28.2016 30.0547 32.1745L30.0546 32.1745Z" fill="#EDEEEF"/>
<path d="M12.4069 10.5976C12.4069 10.5976 10.9416 15.3541 14.3605 17.8293C17.5437 20.1337 22.5613 18.7845 21.3741 13.3942C21.1275 12.2693 21.0038 11.1215 21.0049 9.97047V9.64929" stroke="#CA4141" stroke-width="0.5" stroke-linecap="round" stroke-linejoin="round"/>
<path d="M11.2503 9.52711C11.2503 9.52711 8.01822 3.67443 12.995 2.61992C12.995 2.61992 15.0187 0.120336 17.8974 1.33107C20.7761 2.54181 22.1586 1.69195 22.198 2.83942C22.2375 3.98688 22.3791 5.90062 21.0049 6.87702" stroke="#CA4141" stroke-width="0.5" stroke-linecap="round" stroke-linejoin="round"/>
<path d="M13.2615 9.52625L14.0772 6.23847C14.0772 6.23847 20.0177 6.32902 21.0048 4.72925" stroke="#CA4141" stroke-width="0.5" stroke-linecap="round" stroke-linejoin="round"/>
<path d="M24.9494 54.3403C24.9494 54.3403 28.6468 114.012 18.2039 142.265L20.3852 145.434" stroke="black" stroke-width="0.5"/>
<path d="M6.15933 23.5972C6.15933 23.5972 1.11232 43.3048 7.21755 50.6698C13.3228 58.0348 41.8952 53.6883 50.1983 45.7196C50.1983 45.7196 53.1288 44.9952 53.7394 43.5463C53.7394 43.5463 56.5478 45.5988 56.4257 44.2707C56.3036 42.9426 55.3267 38.8038 50.3204 39.8469C45.3142 40.8901 21.0051 41.373 21.0051 41.373L21.5524 30.9896" stroke="black" stroke-width="0.5"/>
<path d="M28.6692 26.3649C28.6692 26.3649 32.3412 33.4025 31.8677 41.0703" stroke="black" stroke-width="0.5"/>
<path d="M30.6763 57.7015C30.6763 57.7015 40.4594 61.5435 44.5961 49.3453" stroke="black" stroke-width="0.5"/>
<path d="M35.1865 40.9471C35.1865 40.9471 45.5525 35.6531 47.1455 37.8718L48.7385 40.0905" stroke="black" stroke-width="0.5"/>
<path d="M132.065 1H65.3568V43.1185L43.9071 64.3281V145.434H35.1865" stroke="black" stroke-width="0.5"/>
<path d="M46.2744 145.887H160" stroke="black" stroke-width="0.5"/>
<path d="M146.55 145.002C146.55 145.002 148.509 141.574 143.535 140.829C140.579 140.377 137.554 140.738 134.792 141.872C134.792 141.872 138.259 137.699 132.833 135.91C127.406 134.121 121.829 138.295 121.829 138.295C121.829 138.295 127.255 128.308 123.035 127.563C118.814 126.818 116.553 131.14 116.553 131.14C116.553 131.14 117.005 118.769 108.262 118.471C99.5196 118.173 100.424 134.27 100.424 134.27C100.424 134.27 96.6555 127.116 90.3246 126.818C83.9936 126.52 87.1591 138.802 87.1591 138.802C87.1591 138.802 85.9532 135.91 81.7325 135.612C77.5119 135.314 77.8134 138.812 77.8134 138.812C77.8134 138.812 72.3868 131.289 66.3573 131.737C60.3278 132.184 62.8904 139.636 62.8904 139.636C56.7102 139.189 55.3535 145.887 55.3535 145.887H150.921L146.55 145.002Z" fill="black"/>
<rect x="68.251" y="72.4393" width="73.2769" height="42.3125" fill="black"/>
<rect x="58.7881" y="63.0825" width="73.2769" height="42.3125" fill="#EDEEEF"/>
<path d="M132.065 63.1055V105.418L58.7881 105.372" stroke="black" stroke-width="0.5"/>
<path d="M95.4265 97.557C102.865 97.557 108.896 91.5942 108.896 84.2387C108.896 76.8833 102.865 70.9205 95.4265 70.9205C87.9878 70.9205 81.9575 76.8833 81.9575 84.2387C81.9575 91.5942 87.9878 97.557 95.4265 97.557Z" fill="#CA4141"/>
<path d="M67.0489 99.9765C68.5667 99.9765 69.7971 98.7599 69.7971 97.2591C69.7971 95.7584 68.5667 94.5417 67.0489 94.5417C65.5312 94.5417 64.3008 95.7584 64.3008 97.2591C64.3008 98.7599 65.5312 99.9765 67.0489 99.9765Z" fill="#D6D6D6"/>
<path d="M123.804 73.9356C125.322 73.9356 126.552 72.719 126.552 71.2182C126.552 69.7175 125.322 68.5009 123.804 68.5009C122.286 68.5009 121.056 69.7175 121.056 71.2182C121.056 72.719 122.286 73.9356 123.804 73.9356Z" fill="#D6D6D6"/>
<path d="M123.804 99.9765C125.322 99.9765 126.552 98.7599 126.552 97.2591C126.552 95.7584 125.322 94.5417 123.804 94.5417C122.286 94.5417 121.056 95.7584 121.056 97.2591C121.056 98.7599 122.286 99.9765 123.804 99.9765Z" fill="#D6D6D6"/>
<path d="M67.0489 73.9356C68.5667 73.9356 69.7971 72.719 69.7971 71.2182C69.7971 69.7175 68.5667 68.5009 67.0489 68.5009C65.5312 68.5009 64.3008 69.7175 64.3008 71.2182C64.3008 72.719 65.5312 73.9356 67.0489 73.9356Z" fill="#D6D6D6"/>
<path d="M95.4265 84.2387C93.3165 84.2387 91.606 82.5473 91.606 80.4609C91.606 78.3745 93.3165 76.6831 95.4265 76.6831C97.5366 76.6831 99.2471 78.3745 99.2471 80.4609" stroke="white" stroke-width="0.5"/>
<path d="M95.4265 84.2386C96.9718 84.2386 98.3649 85.1591 98.9562 86.5707C99.5476 87.9824 99.2207 89.6073 98.1281 90.6878C97.0354 91.7682 95.3921 92.0914 93.9645 91.5067C92.5368 90.922 91.606 89.5444 91.606 88.0165" stroke="white" stroke-width="0.5"/>
<path d="M95.4265 74.5138V93.9637" stroke="white" stroke-width="0.5"/>
</svg>
