<svg width="89" height="83" viewBox="0 0 89 83" fill="none" xmlns="http://www.w3.org/2000/svg">
<circle cx="47.5" cy="41.5" r="41.5" fill="#CA4141"/>
<path d="M32.191 45.9425C32.0916 45.8506 31.9933 45.7548 31.8965 45.6547C30.155 43.8194 29.1357 40.9027 30.0965 38.0832C30.9912 35.367 33.6558 33.1668 36.2978 33.2782C37.7858 33.3239 41.7805 34.2382 41.7544 32.9131L41.4644 18.8882C41.447 18.0048 42.1347 17.2504 43.0211 17.2331C44.9638 17.1611 46.869 16.9198 48.918 16.3631C49.1425 16.3315 49.3669 16.2999 49.5914 16.2683C51.4477 15.9669 61.8658 14.689 67.8359 22.0361C68.3799 22.644 68.8578 23.3553 69.3241 24.1755C70.3979 26.051 70.9451 28.202 70.9339 30.4047L70.8951 40.2078C70.8464 41.1945 70.7976 42.1811 70.6395 43.1563C68.7448 55.3546 63.6895 63.9711 59.1021 64.4824C58.5381 64.5886 55.5882 64.7755 52.0798 63.9672C51.76 63.8791 52.0152 64.0138 47.4402 62.407L46.6844 69.846C44.5013 69.2767 42.2131 68.9525 39.8501 68.9058L30.4039 68.6621L31.5973 57.3462L32.1146 52.4416L32.191 45.9425Z" fill="white"/>
<path d="M47.0329 66.4805L41.9241 60.0022L47.4588 62.4045L47.0329 66.4805Z" fill="black"/>
<path d="M42.6299 37.3111C42.4048 36.9043 41.5427 35.4772 39.9697 34.3736C39.8172 34.247 38.6227 33.5133 37.1348 33.4675C34.4927 33.3557 31.8281 35.5635 30.9335 38.2891C29.9727 41.1183 30.9372 44.0393 32.6787 45.8809C34.0234 47.3029 35.6561 47.8652 36.655 48.1072C36.6452 49.9749 36.6839 52.0039 36.7712 54.1942C32.5071 53.9153 28.7496 52.0569 25.4989 48.6192C24.1546 47.2063 20.5853 43.2928 19.4734 37.0391C19.3457 36.2438 19.0921 34.7244 19.0699 32.8427C10.6093 32.9818 3.76693 29.2026 1.25065 23.8407C-1.09358 18.7917 0.533407 12.7461 0.764741 11.8902C3.08573 3.27706 10.9007 3.37595 11.5694 3.35888C11.5694 3.35888 22.8356 -0.554652 31.741 17.4652C31.7467 17.4767 31.7523 17.4883 31.758 17.4998C34.311 17.3 37.4077 17.4802 42.1258 17.1948C43.8497 17.0995 46.3643 16.6783 49.4523 16.2289C49.671 16.2519 52.311 15.9835 52.5355 15.9518C53.6509 15.9518 57.3886 15.5994 62.2217 17.7638C67.0548 19.9281 68.8386 23.1829 68.7667 23.3191C68.6286 23.5811 66.161 24.6968 64.6875 25.0395C60.552 25.987 56.9602 25.4436 54.7527 24.8799C54.1716 26.201 53.3487 27.7178 52.2524 29.2059C49.0787 33.627 45.0787 35.9156 42.5836 37.0355C42.5989 37.1274 42.6143 37.2192 42.6299 37.3111Z" fill="black"/>
<path d="M67.2996 39.6813C67.3631 38.9289 67.9625 38.3691 68.7175 38.3738C69.1797 38.3415 69.6081 38.6568 69.8375 39.4463C70.3203 41.3689 68.4905 44.2588 67.6553 43.1089C67.1411 42.3968 67.2561 40.7201 67.2996 39.6813ZM55.1559 39.4281C55.2194 38.6757 55.8188 38.1159 56.5739 38.1206C57.036 38.0883 57.4645 38.4036 57.6938 39.1931C58.1766 41.1158 56.3468 44.0056 55.5117 42.8557C54.9975 42.1436 55.1124 40.4669 55.1559 39.4281Z" fill="black"/>
<path d="M64.4779 40.2682L65.3435 45.5521C65.3928 46.2238 64.9256 46.8783 64.2842 46.9231C63.907 46.9794 63.6639 46.9964 62.6863 47.0466C62.2491 47.0691 61.9497 47.0863 61.5966 47.111C61.2936 47.1322 61.0309 46.9038 61.0097 46.6009C60.9885 46.298 61.2169 46.0352 61.5199 46.014C61.8811 45.9888 62.1865 45.9711 62.6299 45.9484C63.5683 45.9002 63.7966 45.8843 64.1668 45.8305C64.1914 45.8272 64.2563 45.7363 64.2524 45.6794L63.3927 40.446C63.3436 40.1463 63.5468 39.8636 63.8464 39.8145C64.1461 39.7654 64.4288 39.9685 64.4779 40.2682Z" fill="black"/>
<path d="M61.0141 50.4794C60.6398 50.385 59.7219 50.0272 59.5754 49.4345C59.567 49.3145 59.5021 49.1382 59.5502 49.0745C59.7383 48.7599 60.4346 48.9524 61.388 49.0666C63.0816 49.2496 64.4928 49.1509 64.4928 49.1509C64.4928 49.1509 64.0937 50.2038 63.8534 50.522C63.3287 51.2822 61.6058 50.6792 61.0141 50.4794Z" fill="black"/>
<path d="M46.9106 37.1331C47.8926 34.3124 50.4784 32.2037 53.6465 31.9822C57.8875 31.6856 61.5659 34.8832 61.8624 39.1242C61.8667 39.1855 61.8703 39.2468 61.8731 39.3079C61.9424 39.2944 62.0145 39.2897 62.0881 39.2949L63.6363 39.4032C63.9758 35.7124 66.9477 32.7056 70.765 32.4387C75.006 32.1421 78.6844 35.3397 78.9809 39.5807C79.2775 43.8217 76.0799 47.5001 71.8389 47.7967C67.7337 48.0837 64.1555 45.0967 63.6618 41.0585L61.9731 40.9404C61.9067 40.9358 61.8427 40.9234 61.7819 40.9042C61.2213 44.3499 58.3538 47.0861 54.7204 47.3402C50.4794 47.6367 46.801 44.4391 46.5045 40.1981C46.4699 39.7031 46.4829 39.2157 46.5396 38.7405L42.5362 37.7574C42.0939 37.6487 41.8233 37.2021 41.9319 36.7597C42.0406 36.3174 42.4872 36.0468 42.9296 36.1554L46.9106 37.1331ZM65.259 40.3715C65.2614 40.4274 65.2646 40.4834 65.2685 40.5396C65.5015 43.8718 68.3917 46.3842 71.7239 46.1512C75.0561 45.9182 77.5685 43.028 77.3355 39.6958C77.1024 36.3636 74.2123 33.8512 70.8801 34.0842C67.6757 34.3083 65.2295 36.9895 65.2537 40.1582C65.2631 40.2183 65.2659 40.2803 65.2615 40.3436C65.2608 40.3529 65.26 40.3623 65.259 40.3715ZM54.6054 45.6947C57.9376 45.4617 60.4499 42.5715 60.2169 39.2393C59.9839 35.9071 57.0938 33.3947 53.7616 33.6277C50.4294 33.8607 47.917 36.7509 48.15 40.0831C48.383 43.4153 51.2732 45.9277 54.6054 45.6947Z" fill="black"/>
</svg>
