<svg width="160" height="146" viewBox="0 0 160 146" fill="none" xmlns="http://www.w3.org/2000/svg">
<path d="M16.22 131.216L21.3298 135.31L34.9556 119.235L41.0872 123.97L73.4486 84.7126L102.063 131.216L109.898 123.229L124.205 144.901H4.29736L16.22 131.216V131.216Z" fill="#F4F4F4"/>
<path d="M128.502 144.901H0" stroke="black" stroke-width="0.5"/>
<path d="M112.591 63.5654C112.591 63.5654 79.8897 119.57 149.961 123.401L153.335 126.034V107.598L129.793 100.895L129.101 56.3613" fill="#E2E2E2"/>
<path d="M129.65 91.6592C124.046 93.8043 119.826 103.181 119.826 114.425C119.826 114.989 119.837 115.549 119.859 116.104C125.566 119.324 133.264 121.732 143.523 122.872C144.088 120.087 144.368 117.259 144.36 114.425C144.373 111.163 143.998 107.91 143.242 104.724L129.793 100.894L129.65 91.6592Z" fill="black"/>
<path d="M125.803 141.611L116.956 63.173L137.215 61.8926L140.899 63.2767L142.63 144.901" fill="#EDEEEF"/>
<path d="M124.192 20.3414C123 20.0712 121.74 20.3213 120.774 21.0197C119.809 21.7181 119.245 22.7873 119.245 23.9192V26.8694C119.245 29.1506 120.933 31.1371 123.334 31.6816L128.423 32.8354V21.3008L124.192 20.3414" fill="#EDEEEF"/>
<path d="M119.245 26.8694C119.245 29.1506 120.933 31.137 123.334 31.6815L128.423 32.8354" stroke="black" stroke-width="0.5"/>
<path d="M124.429 26.2839C124.565 26.2839 124.675 26.1825 124.675 26.0575C124.675 25.9324 124.565 25.8311 124.429 25.8311C124.294 25.8311 124.184 25.9324 124.184 26.0575C124.184 26.1825 124.294 26.2839 124.429 26.2839Z" fill="black"/>
<path d="M120.66 26.2839C120.796 26.2839 120.906 26.1825 120.906 26.0575C120.906 25.9324 120.796 25.8311 120.66 25.8311C120.525 25.8311 120.415 25.9324 120.415 26.0575C120.415 26.1825 120.525 26.2839 120.66 26.2839Z" fill="black"/>
<path d="M121.766 27.4082V23.9192H119.871" stroke="black" stroke-width="0.5"/>
<path d="M124.892 23.9186H122.997" stroke="black" stroke-width="0.5"/>
<path d="M127.818 25.7068V26.9184C128.527 26.9184 129.101 26.3886 129.101 25.735C129.101 25.6987 129.099 25.6628 129.096 25.6273C129.024 24.8925 127.818 24.969 127.818 25.7068Z" fill="#EDEEEF"/>
<path d="M127.818 26.9185C128.527 26.9185 129.101 26.3887 129.101 25.7351" stroke="black" stroke-width="0.5"/>
<path d="M122.802 27.8159C123.134 28.1219 123.671 28.1219 124.003 27.8159" stroke="#CA4141" stroke-width="0.5" stroke-linecap="round" stroke-linejoin="round"/>
<path d="M121.766 27.4111L122.595 27.598" stroke="black" stroke-width="0.5" stroke-linecap="round"/>
<path d="M112.591 45.0752V63.5651L140.983 70.003V49.4103C140.983 42.1085 135.58 35.75 127.894 34.0072H127.894C124.208 33.1715 120.31 33.9452 117.323 36.1057C114.336 38.2661 112.591 41.5735 112.591 45.0752L112.591 45.0752Z" fill="#CA4141"/>
<path d="M125.803 141.611L116.956 63.1729" stroke="black" stroke-width="0.5"/>
<path d="M126.876 18.6458C128.842 18.9618 130.551 20.075 131.531 21.6786C132.59 23.4834 132.76 26.1035 128.46 28.9453" stroke="black" stroke-width="0.5"/>
<path d="M122.18 31.2848C122.18 31.2848 122.18 35.0795 115.201 34.7378L113.603 33.2637C113.603 33.2637 114.486 16.4618 126.876 18.6452" stroke="black" stroke-width="0.5"/>
<path d="M113.003 33.8394C113.068 33.8394 114.603 35.3159 114.603 35.3159" stroke="#CA4141" stroke-width="0.5" stroke-linecap="round" stroke-linejoin="round"/>
<path d="M119.245 25.4734C119.245 25.4734 123.428 24.5156 124.675 22.1611C124.675 22.1611 126.039 25.4215 127.818 25.7068" stroke="black" stroke-width="0.5"/>
<path d="M112.699 34.5781C112.699 34.5781 108.287 36.8733 109.037 42.4602C109.274 44.3127 110.282 46.0077 111.849 47.1868C112.653 47.8105 113.765 47.9734 114.74 47.61C115.714 47.2466 116.391 46.4164 116.499 45.4522C116.629 44.3649 116.879 43.2487 117.342 42.407C119.245 38.9485 113.514 35.3164 113.514 35.3164" stroke="black" stroke-width="0.5"/>
<path d="M135.101 37.4644C135.101 37.4644 163.424 66.7765 135.913 81.7813L131.415 74.8259L137.817 64.0629L131.415 54.1661" stroke="black" stroke-width="0.5"/>
<path d="M135.913 81.7812L128.893 70.9268" stroke="black" stroke-width="0.5"/>
<path d="M102.06 37.7223C101.805 36.672 101.919 35.5742 102.384 34.5873C103.714 31.7071 107.351 24.5739 110.85 24.3504C115.238 24.0701 113.854 27.6351 112.297 28.4864C111.428 28.991 110.317 28.9701 109.471 28.4332C109.471 28.4332 105.268 33.1444 105.722 34.6053C105.722 34.6053 108.144 34.6053 107.337 36.7337C106.63 38.596 102.965 41.3137 102.06 37.7223Z" fill="#CA4141"/>
<path d="M105.548 31.9084C105.548 31.9084 108.835 29.344 105.548 28.4661C102.26 27.5881 94.9069 37.006 96.1181 47.3817C97.3292 57.7573 105.36 64.6212 112.591 58.9545" stroke="black" stroke-width="0.5"/>
<path d="M105.667 38.759C105.667 38.759 106.201 43.3913 107.864 46.1847L109.737 44.7029" stroke="black" stroke-width="0.5"/>
<path d="M52.0519 45.2373L44.2656 52.5312V45.2373H52.0519V45.2373Z" fill="black"/>
<rect x="83.0007" y="46.3967" width="51.5177" height="31.9047" transform="rotate(-180 83.0007 46.3967)" fill="black"/>
<rect x="68.9819" y="23.6453" width="3.16675" height="2.92151" transform="rotate(-180 68.9819 23.6453)" fill="black"/>
<rect x="58.8252" y="23.6453" width="3.16675" height="2.92151" transform="rotate(-180 58.8252 23.6453)" fill="black"/>
<rect x="48.6685" y="23.6453" width="3.16675" height="2.92151" transform="rotate(-180 48.6685 23.6453)" fill="black"/>
<path d="M76.4504 30.7456L84.237 38.0395V30.7456H76.4504V30.7456Z" fill="#E2E2E2"/>
<path d="M84.237 38.0395V30.7456" stroke="black" stroke-width="0.5"/>
<rect x="45.5017" width="51.5177" height="31.9047" fill="#EDEEEF"/>
<path d="M97.0196 0V31.9047H84.2371" stroke="black" stroke-width="0.5"/>
<rect x="59.5206" y="14.4915" width="3.16671" height="2.92149" fill="#CA4141"/>
<rect x="69.6772" y="14.4915" width="3.16672" height="2.92149" fill="#CA4141"/>
<rect x="79.834" y="14.4915" width="3.16677" height="2.92149" fill="#CA4141"/>
<path d="M83.5319 144.901H160" stroke="black" stroke-width="0.5"/>
<path d="M150.956 144.346C150.956 144.346 152.274 142.195 148.929 141.728C146.941 141.444 144.908 141.671 143.05 142.382C143.05 142.382 145.382 139.764 141.733 138.642C138.084 137.52 134.334 140.138 134.334 140.138C134.334 140.138 137.983 133.873 135.145 133.406C132.307 132.938 130.787 135.65 130.787 135.65C130.787 135.65 131.091 127.889 125.212 127.702C119.333 127.515 119.942 137.613 119.942 137.613C119.942 137.613 117.408 133.125 113.151 132.938C108.894 132.751 111.022 140.456 111.022 140.456C111.022 140.456 110.212 138.642 107.374 138.455C104.536 138.268 104.738 140.462 104.738 140.462C104.738 140.462 101.09 135.743 97.0355 136.024C92.9813 136.304 94.7043 140.98 94.7043 140.98C90.5488 140.699 89.6366 144.901 89.6366 144.901H153.895L150.956 144.346Z" fill="black"/>
<rect x="23.1582" y="56.9834" width="37.9456" height="35.0072" fill="#EDEEEF"/>
<path d="M61.1038 56.9834V91.9906H23.1582" stroke="black" stroke-width="0.5"/>
<path d="M38.3737 74.9763H45.8887C47.6506 74.9763 49.3403 75.622 50.5862 76.7714C51.832 77.9208 52.5319 79.4797 52.5319 81.1051V84.5716H31.7305V81.1051C31.7305 79.4797 32.4304 77.9208 33.6762 76.7714C34.9221 75.622 36.6118 74.9763 38.3737 74.9763Z" fill="#CA4141"/>
<path d="M42.1315 64.4021V64.4021C44.9661 64.4021 47.2641 66.5221 47.2641 69.1373V72.6439H36.9988V69.1373C36.9988 67.8814 37.5395 66.677 38.5021 65.789C39.4647 64.901 40.7702 64.4021 42.1315 64.4021V64.4021Z" fill="#CA4141"/>
</svg>
