<svg width="160" height="146" viewBox="0 0 160 146" fill="none" xmlns="http://www.w3.org/2000/svg">
<rect x="3.26318" y="4.57227" width="79.1429" height="78.2478" fill="#E2E2E2"/>
<path d="M82.4062 4.57227V82.8201H3.26343" stroke="black" stroke-width="0.5"/>
<rect x="25.0354" y="2.09167" width="35.599" height="5.77112" fill="#C38282"/>
<path d="M42.8348 4.44659C44.1686 4.44659 45.2499 3.45118 45.2499 2.22329C45.2499 0.995402 44.1686 0 42.8348 0C41.501 0 40.4197 0.995402 40.4197 2.22329C40.4197 3.45118 41.501 4.44659 42.8348 4.44659Z" fill="#C38282"/>
<rect x="25.0354" y="2.09167" width="35.599" height="5.77112" fill="#C38282"/>
<path d="M60.6343 2.09155V7.86265H25.0354" stroke="black" stroke-width="0.5"/>
<path d="M42.8348 4.44659C44.1686 4.44659 45.2499 3.45118 45.2499 2.22329C45.2499 0.995402 44.1686 0 42.8348 0C41.501 0 40.4197 0.995402 40.4197 2.22329C40.4197 3.45118 41.501 4.44659 42.8348 4.44659Z" fill="#C38282"/>
<path d="M42.8348 82.8201V144.893" stroke="black" stroke-width="0.5"/>
<path d="M0 144.893H85.6697" stroke="black" stroke-width="0.5"/>
<path d="M151.805 141.75V136.97L147.013 141.014L145.415 128.332L132.836 136.603L131.239 131.089L126.846 135.132V128.515L121.455 134.397L116.663 121.163L110.673 134.774L101.888 124.655L95.2987 138.441V131.824L91.5051 138.257L88.9092 129.618L81.7213 139.911L70.7395 127.229L67.3451 139.728L64.1504 136.235L61.7544 144.893H154.001L154.8 141.566L151.805 141.75V141.75Z" fill="#F4F4F4"/>
<path d="M56.5542 144.893H160" stroke="black" stroke-width="0.5"/>
<path d="M127.821 56.6052L105.08 55.2288L99.1908 76.612L85.6698 144.464H104.074L101.93 140.928L127.821 56.6052V56.6052Z" fill="#E2E2E2"/>
<path d="M130.779 140.72L131.898 102.11L114.003 105.199L118.158 144.464H133.451L130.779 140.72V140.72Z" fill="#E2E2E2"/>
<path d="M125.294 103.25L114.003 105.199L114.501 109.909C123.897 108.742 130.368 106.419 130.368 106.419L125.294 103.25Z" fill="black"/>
<path d="M102.864 89.2407C102.864 89.2407 100.017 90.049 96.2503 91.3677L92.6116 109.628C99.2447 110.742 105.704 110.738 111.352 110.243L115.397 97.0684L102.864 89.2407Z" fill="black"/>
<path d="M102.864 57.0265L80.4688 99.7768C80.4688 99.7768 107.03 112.646 133.451 105.697V61.4262L102.864 57.0265Z" fill="#C38282"/>
<path d="M111.196 14.4066V17.5781C111.196 20.0304 113.015 22.1659 115.602 22.7512L121.084 23.9916V11.5917L116.526 10.5603C115.242 10.2699 113.885 10.5388 112.844 11.2895C111.804 12.0403 111.196 13.1897 111.196 14.4066L111.196 14.4066Z" fill="#E2E2E2"/>
<path d="M111.196 17.578C111.196 20.0303 113.015 22.1658 115.602 22.7511L121.084 23.9916" stroke="black" stroke-width="0.5"/>
<path d="M116.782 16.9487C116.928 16.9487 117.046 16.8397 117.046 16.7053C117.046 16.5709 116.928 16.4619 116.782 16.4619C116.636 16.4619 116.518 16.5709 116.518 16.7053C116.518 16.8397 116.636 16.9487 116.782 16.9487Z" fill="black"/>
<path d="M112.721 16.9487C112.867 16.9487 112.986 16.8397 112.986 16.7053C112.986 16.5709 112.867 16.4619 112.721 16.4619C112.575 16.4619 112.457 16.5709 112.457 16.7053C112.457 16.8397 112.575 16.9487 112.721 16.9487Z" fill="black"/>
<path d="M113.913 18.1572V14.4065H111.872" stroke="black" stroke-width="0.5"/>
<path d="M117.28 14.4066H115.239" stroke="black" stroke-width="0.5"/>
<path d="M120.433 16.3284V17.6309C120.8 17.6309 121.151 17.4968 121.41 17.2583C121.669 17.0197 121.815 16.6961 121.815 16.3587C121.815 16.3197 121.813 16.2811 121.809 16.2429C121.732 15.453 120.433 15.5352 120.433 16.3284Z" fill="#E2E2E2"/>
<path d="M120.433 17.6308C120.8 17.6308 121.151 17.4968 121.41 17.2582C121.669 17.0196 121.815 16.696 121.815 16.3586" stroke="black" stroke-width="0.5"/>
<path d="M115.029 18.5955C115.386 18.9244 115.965 18.9244 116.323 18.5955" stroke="#C38282" stroke-width="0.5" stroke-linecap="round" stroke-linejoin="round"/>
<path d="M113.913 18.1602L114.805 18.3622" stroke="black" stroke-width="0.5" stroke-linecap="round"/>
<path d="M112.986 22.0596L112.829 22.1254C111.812 22.5525 110.628 22.4653 109.698 21.8948C108.768 21.3243 108.224 20.3516 108.261 19.3234C108.44 14.5921 109.649 8.02817 115.029 8.49794C115.029 8.49794 120.494 7.34493 122.684 11.9781C124.874 16.6113 122.188 18.8421 121.084 19.3569" stroke="black" stroke-width="0.5"/>
<path d="M111.08 15.6903C111.08 15.6903 115.207 15.024 115.676 12.4786C115.676 12.4786 117.72 15.6312 120.573 15.9353" stroke="black" stroke-width="0.5"/>
<path d="M102.864 37.1496V57.0265L133.451 63.9473V41.8099C133.451 33.9604 127.63 27.125 119.35 25.2514H119.35C115.379 24.353 111.18 25.1848 107.962 27.5073C104.744 29.8298 102.864 33.3852 102.864 37.1496L102.864 37.1496Z" fill="#E2E2E2"/>
<path d="M80.4688 99.7767C80.4688 99.7767 107.03 112.646 133.451 105.697" stroke="black" stroke-width="0.5"/>
<path d="M125.243 27.6458C125.243 27.6458 140.23 37.2933 140.286 51.6605C140.368 72.5384 105.144 53.7197 104.004 50.2877L102.864 46.8557C102.864 46.8557 98.1587 45.0719 99.2771 44.4194C100.396 43.7669 133.452 50.2305 133.452 50.2305" stroke="black" stroke-width="0.5"/>
<path d="M108.259 27.6458C108.259 27.6458 99.6499 33.2994 96.1082 48.0569C96.1082 48.0569 90.3297 40.6873 88.2793 37.8513C86.2288 35.0154 84.5512 36.903 84.5512 36.903C84.5512 36.903 82.1649 33.6426 80.4688 35.0154C78.7727 36.3882 83.3096 59.9314 99.8679 62.7457" stroke="black" stroke-width="0.5"/>
<path d="M101.278 46.2148L66.5944 30.4965" stroke="black" stroke-width="0.5"/>
<rect x="13.2607" y="17.2479" width="40.4123" height="37.2027" fill="#C38282"/>
<rect x="32.5571" y="26.575" width="1.8199" height="18.5487" fill="#E2E2E2"/>
<path d="M43.5414 35.0115V36.6868H23.3924V35.0115H43.5414Z" fill="#E2E2E2"/>
</svg>
