<svg width="404" height="189" viewBox="0 0 404 189" fill="none" xmlns="http://www.w3.org/2000/svg">
<mask id="mask0" mask-type="alpha" maskUnits="userSpaceOnUse" x="0" y="0" width="404" height="189">
<rect width="404" height="189" fill="white"/>
</mask>
<g mask="url(#mask0)">
<path d="M126.453 42.8766V57.1915C126.453 68.2603 133.128 77.899 142.623 80.5409L162.747 86.1398V30.1715L146.014 25.5161C141.302 24.2052 136.32 25.4188 132.501 28.8076C128.683 32.1964 126.453 37.384 126.453 42.8766V42.8766Z" fill="#EDEEEF"/>
<path d="M126.453 57.1914C126.453 68.2602 133.128 77.899 142.623 80.5408L162.747 86.1397" stroke="black" stroke-width="0.8" stroke-linecap="round" stroke-linejoin="round"/>
<path d="M146.955 54.3511C147.491 54.3511 147.925 53.8593 147.925 53.2526C147.925 52.6459 147.491 52.1541 146.955 52.1541C146.419 52.1541 145.984 52.6459 145.984 53.2526C145.984 53.8593 146.419 54.3511 146.955 54.3511Z" fill="black"/>
<path d="M132.05 54.3511C132.586 54.3511 133.02 53.8593 133.02 53.2526C133.02 52.6459 132.586 52.1541 132.05 52.1541C131.514 52.1541 131.079 52.6459 131.079 53.2526C131.079 53.8593 131.514 54.3511 132.05 54.3511Z" fill="black"/>
<path d="M136.423 59.8056V42.8767H130.688" stroke="black" stroke-width="0.8" stroke-linecap="round" stroke-linejoin="round"/>
<path d="M148.783 42.8765H141.291" stroke="black" stroke-width="0.8" stroke-linecap="round" stroke-linejoin="round"/>
<path d="M160.356 51.5507V57.4296C163.158 57.4296 165.429 54.8588 165.429 51.6876C165.429 51.5114 165.422 51.3372 165.408 51.1649C165.124 47.5993 160.356 47.9706 160.356 51.5507Z" fill="#EDEEEF"/>
<path d="M160.356 57.4298C163.158 57.4298 165.429 54.859 165.429 51.6877" stroke="black" stroke-width="0.8" stroke-linecap="round" stroke-linejoin="round"/>
<path d="M140.519 61.7837C141.149 62.4967 142.003 62.8973 142.894 62.8973C143.785 62.8973 144.639 62.4967 145.269 61.7837" stroke="#18A0FB" stroke-width="0.8" stroke-linecap="round" stroke-linejoin="round"/>
<path d="M136.423 59.8191L139.699 60.7308" stroke="black" stroke-width="0.8" stroke-linecap="round" stroke-linejoin="round"/>
<path d="M92.646 145.53V235.246L204.92 266.484V166.564C204.92 131.134 183.553 100.282 153.159 91.8259H153.159C138.583 87.7705 123.17 91.5249 111.358 102.008C99.5456 112.491 92.646 128.539 92.646 145.53V145.53Z" fill="#18A0FB"/>
<path d="M125.684 53.2525L114.566 46.3516C114.566 46.3516 130.816 -6.31649 164.171 16.9194C197.526 40.1554 162.747 66.6831 162.747 66.6831" stroke="black" stroke-width="0.8" stroke-linecap="round" stroke-linejoin="round"/>
<path d="M124.886 44.1572C124.886 44.1572 146.956 40.13 154.642 27.9165C154.642 27.9165 151.515 45.6007 160.779 49.9134" stroke="black" stroke-width="0.8" stroke-linecap="round" stroke-linejoin="round"/>
<path d="M178.635 105.774C178.635 105.774 216.684 136.064 233.105 178.342C233.105 178.342 227.289 100.569 235.5 87.789C239.834 81.0425 244.736 90.201 244.736 90.201C244.736 90.201 266.289 80.0437 266.973 83.9163C267.657 87.789 255 102.505 255 102.505C255 102.505 273.473 198.778 259.105 226.274C244.736 253.77 171.868 198.934 171.868 198.934" stroke="black" stroke-width="0.8" stroke-linecap="round" stroke-linejoin="round"/>
<path d="M111.82 101.609C111.82 101.609 78.0174 129.967 71.6315 158.513C71.6315 158.513 61.1403 81.2519 55.2104 83.036C49.2806 84.8201 47.9122 90.2011 47.9122 90.2011C47.9122 90.2011 29.2105 79.1256 26.4737 83.0055C23.7368 86.8854 42.8947 108.056 42.8947 108.056C42.8947 108.056 31.3051 200.385 44.7192 212.876C72.9999 239.21 92.646 201.516 92.646 201.516" stroke="black" stroke-width="0.8" stroke-linecap="round" stroke-linejoin="round"/>
<path d="M239.511 39.2V56H237.759V48.248H227.247V56H225.471V39.2H227.247V46.688H237.759V39.2H239.511ZM247.754 43.376H249.458V56H247.754V43.376ZM248.618 40.616C248.266 40.616 247.97 40.496 247.73 40.256C247.49 40.016 247.37 39.728 247.37 39.392C247.37 39.072 247.49 38.792 247.73 38.552C247.97 38.312 248.266 38.192 248.618 38.192C248.97 38.192 249.266 38.312 249.506 38.552C249.746 38.776 249.866 39.048 249.866 39.368C249.866 39.72 249.746 40.016 249.506 40.256C249.266 40.496 248.97 40.616 248.618 40.616ZM257.511 53.504C257.879 53.504 258.183 53.632 258.423 53.888C258.663 54.128 258.783 54.432 258.783 54.8C258.783 54.992 258.751 55.2 258.687 55.424C258.639 55.648 258.559 55.904 258.447 56.192L257.439 59.504H256.287L257.103 56.024C256.847 55.944 256.639 55.8 256.479 55.592C256.319 55.368 256.239 55.104 256.239 54.8C256.239 54.432 256.359 54.128 256.599 53.888C256.839 53.632 257.143 53.504 257.511 53.504ZM275.286 39.2H277.062V56H275.286V39.2ZM285.481 38.072C285.849 38.072 286.153 38.2 286.393 38.456C286.633 38.696 286.753 39 286.753 39.368C286.753 39.56 286.721 39.768 286.657 39.992C286.609 40.2 286.537 40.448 286.441 40.736L285.409 44.048H284.257L285.097 40.592C284.825 40.512 284.609 40.368 284.449 40.16C284.289 39.936 284.209 39.672 284.209 39.368C284.209 38.984 284.329 38.672 284.569 38.432C284.809 38.192 285.113 38.072 285.481 38.072ZM309.239 43.28C310.823 43.28 312.063 43.736 312.959 44.648C313.871 45.56 314.327 46.904 314.327 48.68V56H312.623V48.848C312.623 47.536 312.303 46.536 311.663 45.848C311.039 45.16 310.151 44.816 308.999 44.816C307.687 44.816 306.655 45.224 305.903 46.04C305.151 46.84 304.775 47.952 304.775 49.376V56H303.071V48.848C303.071 47.536 302.751 46.536 302.111 45.848C301.487 45.16 300.591 44.816 299.423 44.816C298.127 44.816 297.095 45.224 296.327 46.04C295.575 46.84 295.199 47.952 295.199 49.376V56H293.495V43.376H295.127V45.68C295.575 44.912 296.199 44.32 296.999 43.904C297.799 43.488 298.719 43.28 299.759 43.28C300.815 43.28 301.727 43.504 302.495 43.952C303.279 44.4 303.863 45.064 304.247 45.944C304.711 45.112 305.375 44.464 306.239 44C307.119 43.52 308.119 43.28 309.239 43.28Z" fill="black"/>
<path d="M347.009 39.2V56H343.121V49.112H335.489V56H331.601V39.2H335.489V45.824H343.121V39.2H347.009ZM366.847 43.088V56H363.295V54.464C362.799 55.024 362.207 55.456 361.519 55.76C360.831 56.048 360.087 56.192 359.287 56.192C357.591 56.192 356.247 55.704 355.255 54.728C354.263 53.752 353.767 52.304 353.767 50.384V43.088H357.511V49.832C357.511 51.912 358.383 52.952 360.127 52.952C361.023 52.952 361.743 52.664 362.287 52.088C362.831 51.496 363.103 50.624 363.103 49.472V43.088H366.847ZM373.436 38.192H377.18V56H373.436V38.192ZM383.775 43.088H387.519V56H383.775V43.088ZM385.647 41.288C384.959 41.288 384.399 41.088 383.967 40.688C383.535 40.288 383.319 39.792 383.319 39.2C383.319 38.608 383.535 38.112 383.967 37.712C384.399 37.312 384.959 37.112 385.647 37.112C386.335 37.112 386.895 37.304 387.327 37.688C387.759 38.072 387.975 38.552 387.975 39.128C387.975 39.752 387.759 40.272 387.327 40.688C386.895 41.088 386.335 41.288 385.647 41.288Z" fill="#18A0FB"/>
</g>
</svg>
