<svg width="87" height="192" viewBox="0 0 87 192" fill="none" xmlns="http://www.w3.org/2000/svg">
<g clip-path="url(#clip0)">
<path d="M43.1134 70.2266L44.1182 114.755L2.41083 118.372L0 145.614L5.78599 139.828C5.78599 139.828 68.2265 152.847 82.6914 139.828C97.1564 126.81 62.5596 78.3686 62.5596 78.3686" fill="#CA4141"/>
<path d="M43.5667 90.3147L44.1182 114.756L18.118 117.01C17.1201 121.942 16.6231 126.961 16.6345 131.993C16.6325 135.308 16.8447 138.619 17.2702 141.907C28.738 143.775 46.7158 146.137 61.3623 145.511C62.1671 141.05 62.5678 136.526 62.5597 131.993C62.5597 111.12 54.3566 93.7796 43.5667 90.3147Z" fill="black"/>
<path d="M56.1264 70.2267C56.1264 70.2267 60.9932 149.66 47.2475 187.269L50.1188 191.488H25.6706C25.6706 191.488 22.9997 90.4527 22.9997 68.6455L56.1264 70.2267Z" fill="#CA4141"/>
<path d="M56.1264 70.2266C56.1264 70.2266 60.9932 149.66 47.2476 187.269L50.1188 191.488" stroke="black" stroke-width="0.5" stroke-linecap="round" stroke-linejoin="round"/>
<path d="M48.008 8.76789V19.0911L35.2195 22.2341V4.81316L48.008 1.67017V8.76789Z" fill="#EDEEEF"/>
<path d="M40.784 12.3396C40.9728 12.3396 41.1259 12.1865 41.1259 11.9977C41.1259 11.8088 40.9728 11.6558 40.784 11.6558C40.5951 11.6558 40.442 11.8088 40.442 11.9977C40.442 12.1865 40.5951 12.3396 40.784 12.3396Z" fill="black"/>
<path d="M46.0358 12.3396C46.2247 12.3396 46.3777 12.1865 46.3777 11.9977C46.3777 11.8088 46.2247 11.6558 46.0358 11.6558C45.8469 11.6558 45.6938 11.8088 45.6938 11.9977C45.6938 12.1865 45.8469 12.3396 46.0358 12.3396Z" fill="black"/>
<path d="M44.495 14.0374V8.76807H47.1348" stroke="black" stroke-width="0.5" stroke-linecap="round" stroke-linejoin="round"/>
<path d="M40.1398 8.768H42.7797" stroke="black" stroke-width="0.5" stroke-linecap="round" stroke-linejoin="round"/>
<path d="M36.062 11.468V13.2979C35.0749 13.2979 34.2747 12.4977 34.2747 11.5106C34.2747 11.4558 34.2771 11.4015 34.282 11.3479C34.3821 10.2381 36.062 10.3536 36.062 11.468Z" fill="#EDEEEF"/>
<path d="M36.062 13.2978C35.0749 13.2978 34.2747 12.4976 34.2747 11.5105" stroke="black" stroke-width="0.5" stroke-linecap="round" stroke-linejoin="round"/>
<path d="M43.3404 15.3363C42.8607 15.3363 42.4006 15.1457 42.0613 14.8065C41.7221 14.4672 41.5315 14.0071 41.5315 13.5273" stroke="#CA4141" stroke-width="0.5" stroke-linecap="round" stroke-linejoin="round"/>
<path d="M48.008 19.0911L35.2197 22.2342" stroke="black" stroke-width="0.5" stroke-linecap="round" stroke-linejoin="round"/>
<path d="M44.495 14.0415L43.3405 14.3253" stroke="black" stroke-width="0.5" stroke-linecap="round" stroke-linejoin="round"/>
<path d="M22.9997 40.72V68.6453L62.5596 78.3685V47.2673C62.5596 36.2393 55.0309 26.6361 44.3217 24.004H44.3217C39.1859 22.7417 33.7549 23.9103 29.5929 27.1733C25.4308 30.4363 22.9997 35.4313 22.9997 40.72V40.72Z" fill="#EDEEEF"/>
<path d="M36.062 10.5714C36.062 10.5714 38.4673 9.13715 38.4125 6.58955L42.7797 7.90506V6.18774L47.1349 7.90506V6.18774L48.9398 6.91099" stroke="black" stroke-width="0.5" stroke-linecap="round" stroke-linejoin="round"/>
<path d="M48.008 8.76793C48.008 8.76793 50.9488 7.15213 50.2256 2.57155C50.2256 2.57155 44.1182 -0.964332 36.725 2.57155L37.3678 0C37.3678 0 34.0515 1.36614 34.6356 3.2948L32.4658 3.45552L34.2747 4.7413C34.2747 4.7413 31.6026 7.72255 35.1683 10.5714" stroke="black" stroke-width="0.5" stroke-linecap="round" stroke-linejoin="round"/>
<path d="M32.4658 25.3459C32.4658 25.3459 8.43787 38.3323 6.5092 58.5832C4.58054 78.8342 52.6906 68.2265 56.9628 66.539C61.235 64.8514 60.5118 61.4762 60.5118 61.4762C60.5118 61.4762 67.7443 58.5832 67.021 58.3422C66.2978 58.1011 26.5191 55.2081 26.5191 55.2081L38.3322 44.3593" stroke="black" stroke-width="0.5" stroke-linecap="round" stroke-linejoin="round"/>
<path d="M52.6386 27.8523C52.6386 27.8523 62.5645 33.3257 70.922 49.0765C70.922 49.0765 70.0748 25.1384 77.6287 23.4983C85.1826 21.8582 86.3077 22.0847 84.8612 23.4983C83.4147 24.9119 81.1646 25.3459 81.1646 25.3459C81.1646 25.3459 84.379 30.5372 79.7181 31.5015C79.7181 31.5015 96.1893 82.9668 62.5596 68.6454" stroke="black" stroke-width="0.5" stroke-linecap="round" stroke-linejoin="round"/>
</g>
<defs>
<clipPath id="clip0">
<rect width="86.2268" height="191.488" fill="white"/>
</clipPath>
</defs>
</svg>
