<svg width="110" height="39" viewBox="0 0 110 39" fill="none" xmlns="http://www.w3.org/2000/svg">
<g clip-path="url(#clip0)">
<path d="M49.2574 6.56707V16H51.1995V9.3811H51.2259L53.5379 16H55.1364L57.4484 9.31504H57.4749V16H59.4169V6.56707H56.4972L54.4098 13.0539H54.3834L52.1771 6.56707H49.2574ZM66.2911 11.8516H63.2393C63.2481 11.7195 63.2745 11.5698 63.3186 11.4024C63.3714 11.2351 63.4551 11.0766 63.5696 10.9268C63.6929 10.7771 63.8514 10.6538 64.0452 10.5569C64.2478 10.4512 64.4988 10.3984 64.7983 10.3984C65.2563 10.3984 65.5953 10.5217 65.8155 10.7683C66.0445 11.0149 66.2031 11.376 66.2911 11.8516ZM63.2393 13.0407H68.1672C68.2024 12.5122 68.1584 12.0058 68.035 11.5213C67.9117 11.0369 67.7092 10.6054 67.4273 10.2266C67.1543 9.8479 66.802 9.54844 66.3704 9.32825C65.9388 9.09926 65.4324 8.98476 64.8511 8.98476C64.3315 8.98476 63.8558 9.07724 63.4243 9.2622C63.0015 9.44715 62.636 9.70257 62.3277 10.0285C62.0195 10.3455 61.7817 10.7243 61.6143 11.1646C61.447 11.605 61.3633 12.0806 61.3633 12.5915C61.3633 13.1199 61.4426 13.6043 61.6011 14.0447C61.7684 14.4851 62.0018 14.8638 62.3013 15.1809C62.6008 15.498 62.9663 15.7446 63.3979 15.9207C63.8294 16.0881 64.3138 16.1717 64.8511 16.1717C65.6262 16.1717 66.2867 15.9956 66.8328 15.6433C67.3789 15.291 67.784 14.7053 68.0483 13.8862H66.3968C66.3352 14.0976 66.1678 14.3001 65.8948 14.4939C65.6218 14.6789 65.2959 14.7713 64.9172 14.7713C64.3887 14.7713 63.9836 14.6348 63.7017 14.3618C63.4199 14.0888 63.2657 13.6484 63.2393 13.0407ZM69.9227 9.16972V16H71.7987V12.4197C71.7987 11.7239 71.9132 11.2263 72.1422 10.9268C72.3712 10.6186 72.7411 10.4644 73.252 10.4644C73.7011 10.4644 74.0138 10.6054 74.19 10.8872C74.3661 11.1602 74.4542 11.5786 74.4542 12.1423V16H76.3302V11.7988C76.3302 11.376 76.2906 10.9929 76.2113 10.6494C76.1408 10.2971 76.0131 10.002 75.8282 9.76423C75.6432 9.51762 75.3878 9.32825 75.0619 9.19614C74.7448 9.05522 74.3353 8.98476 73.8333 8.98476C73.4369 8.98476 73.0494 9.07724 72.6707 9.2622C72.2919 9.43835 71.9837 9.72459 71.7459 10.1209H71.7062V9.16972H69.9227ZM80.7837 9.16972V7.12195H78.9077V9.16972H77.7715V10.4248H78.9077V14.4543C78.9077 14.7978 78.965 15.0752 79.0795 15.2866C79.194 15.498 79.3481 15.6609 79.5419 15.7754C79.7444 15.8899 79.9734 15.9648 80.2289 16C80.4931 16.044 80.7705 16.0661 81.0612 16.0661C81.2461 16.0661 81.4355 16.0617 81.6293 16.0528C81.823 16.044 81.9992 16.0264 82.1577 16V14.5467C82.0697 14.5644 81.9772 14.5776 81.8803 14.5864C81.7834 14.5952 81.6821 14.5996 81.5764 14.5996C81.2594 14.5996 81.048 14.5467 80.9423 14.4411C80.8366 14.3354 80.7837 14.124 80.7837 13.8069V10.4248H82.1577V9.16972H80.7837ZM85.3668 12.5915C85.3668 12.3184 85.3932 12.0498 85.4461 11.7856C85.4989 11.5213 85.587 11.2879 85.7103 11.0854C85.8424 10.8828 86.0142 10.7199 86.2256 10.5965C86.4369 10.4644 86.7012 10.3984 87.0182 10.3984C87.3353 10.3984 87.5995 10.4644 87.8109 10.5965C88.0311 10.7199 88.2029 10.8828 88.3262 11.0854C88.4583 11.2879 88.5508 11.5213 88.6036 11.7856C88.6564 12.0498 88.6829 12.3184 88.6829 12.5915C88.6829 12.8645 88.6564 13.1331 88.6036 13.3974C88.5508 13.6528 88.4583 13.8862 88.3262 14.0976C88.2029 14.3001 88.0311 14.4631 87.8109 14.5864C87.5995 14.7097 87.3353 14.7713 87.0182 14.7713C86.7012 14.7713 86.4369 14.7097 86.2256 14.5864C86.0142 14.4631 85.8424 14.3001 85.7103 14.0976C85.587 13.8862 85.4989 13.6528 85.4461 13.3974C85.3932 13.1331 85.3668 12.8645 85.3668 12.5915ZM83.4908 12.5915C83.4908 13.1375 83.5745 13.6308 83.7418 14.0711C83.9092 14.5115 84.147 14.8902 84.4552 15.2073C84.7635 15.5156 85.1334 15.7534 85.565 15.9207C85.9966 16.0881 86.481 16.1717 87.0182 16.1717C87.5555 16.1717 88.0399 16.0881 88.4715 15.9207C88.9119 15.7534 89.2862 15.5156 89.5945 15.2073C89.9027 14.8902 90.1405 14.5115 90.3079 14.0711C90.4752 13.6308 90.5589 13.1375 90.5589 12.5915C90.5589 12.0454 90.4752 11.5522 90.3079 11.1118C90.1405 10.6626 89.9027 10.2839 89.5945 9.97561C89.2862 9.65854 88.9119 9.41633 88.4715 9.24898C88.0399 9.07283 87.5555 8.98476 87.0182 8.98476C86.481 8.98476 85.9966 9.07283 85.565 9.24898C85.1334 9.41633 84.7635 9.65854 84.4552 9.97561C84.147 10.2839 83.9092 10.6626 83.7418 11.1118C83.5745 11.5522 83.4908 12.0454 83.4908 12.5915ZM92.4264 9.16972V16H94.3024V12.9217C94.3024 12.6135 94.3332 12.3272 94.3949 12.063C94.4565 11.7988 94.5578 11.5698 94.6988 11.376C94.8485 11.1734 95.0423 11.0149 95.2801 10.9004C95.5179 10.7859 95.8085 10.7287 96.152 10.7287C96.2665 10.7287 96.3854 10.7375 96.5087 10.7551C96.632 10.7639 96.7377 10.7771 96.8258 10.7947V9.05081C96.6761 9.00678 96.5395 8.98476 96.4162 8.98476C96.1784 8.98476 95.9494 9.01999 95.7292 9.09045C95.5091 9.16091 95.3021 9.2622 95.1083 9.39431C94.9145 9.51762 94.7428 9.67175 94.5931 9.85671C94.4433 10.0329 94.3244 10.2266 94.2364 10.438H94.2099V9.16972H92.4264Z" fill="#4D4D4D"/>
<path d="M51.3316 28.0061V25.1789H52.9434C53.1812 25.1789 53.4102 25.1965 53.6303 25.2317C53.8505 25.2669 54.0443 25.3374 54.2116 25.4431C54.379 25.54 54.5111 25.6809 54.608 25.8659C54.7137 26.0508 54.7665 26.293 54.7665 26.5925C54.7665 26.8919 54.7137 27.1341 54.608 27.3191C54.5111 27.5041 54.379 27.6494 54.2116 27.7551C54.0443 27.852 53.8505 27.918 53.6303 27.9533C53.4102 27.9885 53.1812 28.0061 52.9434 28.0061H51.3316ZM49.2574 23.5671V33H51.3316V29.6179H53.5114C54.1016 29.6179 54.6036 29.5342 55.0175 29.3669C55.4315 29.1907 55.7662 28.9617 56.0216 28.6799C56.2858 28.398 56.4752 28.0766 56.5897 27.7154C56.713 27.3455 56.7747 26.9712 56.7747 26.5925C56.7747 26.2049 56.713 25.8306 56.5897 25.4695C56.4752 25.1084 56.2858 24.7869 56.0216 24.5051C55.7662 24.2232 55.4315 23.9986 55.0175 23.8313C54.6036 23.6551 54.1016 23.5671 53.5114 23.5671H49.2574ZM58.5198 26.1697V33H60.3958V29.9217C60.3958 29.6135 60.4266 29.3272 60.4883 29.063C60.5499 28.7988 60.6512 28.5698 60.7921 28.376C60.9418 28.1734 61.1356 28.0149 61.3734 27.9004C61.6112 27.7859 61.9019 27.7287 62.2454 27.7287C62.3599 27.7287 62.4788 27.7375 62.6021 27.7551C62.7254 27.7639 62.8311 27.7771 62.9191 27.7947V26.0508C62.7694 26.0068 62.6329 25.9848 62.5096 25.9848C62.2718 25.9848 62.0428 26.02 61.8226 26.0904C61.6024 26.1609 61.3954 26.2622 61.2017 26.3943C61.0079 26.5176 60.8362 26.6717 60.6864 26.8567C60.5367 27.0329 60.4178 27.2266 60.3297 27.438H60.3033V26.1697H58.5198ZM65.7348 29.5915C65.7348 29.3184 65.7612 29.0498 65.814 28.7856C65.8669 28.5213 65.955 28.2879 66.0783 28.0854C66.2104 27.8828 66.3821 27.7199 66.5935 27.5965C66.8049 27.4644 67.0691 27.3984 67.3862 27.3984C67.7033 27.3984 67.9675 27.4644 68.1789 27.5965C68.3991 27.7199 68.5708 27.8828 68.6941 28.0854C68.8262 28.2879 68.9187 28.5213 68.9716 28.7856C69.0244 29.0498 69.0508 29.3184 69.0508 29.5915C69.0508 29.8645 69.0244 30.1331 68.9716 30.3974C68.9187 30.6528 68.8262 30.8862 68.6941 31.0976C68.5708 31.3001 68.3991 31.4631 68.1789 31.5864C67.9675 31.7097 67.7033 31.7713 67.3862 31.7713C67.0691 31.7713 66.8049 31.7097 66.5935 31.5864C66.3821 31.4631 66.2104 31.3001 66.0783 31.0976C65.955 30.8862 65.8669 30.6528 65.814 30.3974C65.7612 30.1331 65.7348 29.8645 65.7348 29.5915ZM63.8588 29.5915C63.8588 30.1375 63.9424 30.6308 64.1098 31.0711C64.2771 31.5115 64.5149 31.8902 64.8232 32.2073C65.1315 32.5156 65.5014 32.7534 65.933 32.9207C66.3645 33.0881 66.8489 33.1717 67.3862 33.1717C67.9235 33.1717 68.4079 33.0881 68.8395 32.9207C69.2798 32.7534 69.6542 32.5156 69.9624 32.2073C70.2707 31.8902 70.5085 31.5115 70.6758 31.0711C70.8432 30.6308 70.9269 30.1375 70.9269 29.5915C70.9269 29.0454 70.8432 28.5522 70.6758 28.1118C70.5085 27.6626 70.2707 27.2839 69.9624 26.9756C69.6542 26.6585 69.2798 26.4163 68.8395 26.249C68.4079 26.0728 67.9235 25.9848 67.3862 25.9848C66.8489 25.9848 66.3645 26.0728 65.933 26.249C65.5014 26.4163 65.1315 26.6585 64.8232 26.9756C64.5149 27.2839 64.2771 27.6626 64.1098 28.1118C63.9424 28.5522 63.8588 29.0454 63.8588 29.5915ZM75.9783 31.3882C75.6877 31.3882 75.4455 31.3266 75.2517 31.2033C75.0579 31.0799 74.8994 30.9214 74.7761 30.7276C74.6616 30.5339 74.5779 30.3181 74.5251 30.0803C74.481 29.8337 74.459 29.5871 74.459 29.3404C74.459 29.085 74.4854 28.8428 74.5383 28.6138C74.5999 28.376 74.6924 28.169 74.8157 27.9929C74.9478 27.8079 75.1064 27.6626 75.2913 27.5569C75.4851 27.4512 75.7141 27.3984 75.9783 27.3984C76.2866 27.3984 76.542 27.4556 76.7446 27.5701C76.9471 27.6846 77.1101 27.8388 77.2334 28.0325C77.3567 28.2263 77.4448 28.4509 77.4976 28.7063C77.5505 28.9529 77.5769 29.2171 77.5769 29.499C77.5769 29.7456 77.5417 29.9834 77.4712 30.2124C77.4095 30.4326 77.3127 30.6308 77.1805 30.8069C77.0484 30.9831 76.8811 31.124 76.6785 31.2297C76.4759 31.3354 76.2425 31.3882 75.9783 31.3882ZM79.3604 32.564V26.1697H77.5769V27.0813H77.5505C77.3215 26.685 77.0352 26.4031 76.6917 26.2358C76.357 26.0684 75.9651 25.9848 75.5159 25.9848C75.0403 25.9848 74.6175 26.0772 74.2476 26.2622C73.8865 26.4472 73.5826 26.6982 73.336 27.0152C73.0894 27.3235 72.9001 27.6846 72.7679 28.0986C72.6446 28.5037 72.583 28.9265 72.583 29.3669C72.583 29.8337 72.6358 30.2785 72.7415 30.7012C72.856 31.1152 73.0322 31.4807 73.27 31.7978C73.5078 32.106 73.8116 32.3526 74.1816 32.5376C74.5515 32.7138 74.9919 32.8018 75.5027 32.8018C75.9167 32.8018 76.3086 32.7182 76.6785 32.5508C77.0572 32.3747 77.3479 32.106 77.5505 31.7449H77.5769V32.6433C77.5857 33.1277 77.4668 33.5285 77.2202 33.8455C76.9824 34.1626 76.5992 34.3211 76.0708 34.3211C75.7361 34.3211 75.441 34.2507 75.1856 34.1098C74.9302 33.9776 74.7585 33.7354 74.6704 33.3831H72.8076C72.834 33.7707 72.9397 34.1009 73.1247 34.374C73.3184 34.6558 73.5562 34.8848 73.8381 35.061C74.1287 35.2371 74.4458 35.3648 74.7893 35.4441C75.1416 35.5322 75.4851 35.5762 75.8198 35.5762C76.6036 35.5762 77.229 35.4705 77.6958 35.2591C78.1626 35.0478 78.5193 34.7879 78.7659 34.4797C79.0125 34.1802 79.1711 33.8543 79.2415 33.502C79.3208 33.1497 79.3604 32.8371 79.3604 32.564ZM81.5186 26.1697V33H83.3946V29.9217C83.3946 29.6135 83.4254 29.3272 83.4871 29.063C83.5487 28.7988 83.65 28.5698 83.7909 28.376C83.9407 28.1734 84.1344 28.0149 84.3722 27.9004C84.61 27.7859 84.9007 27.7287 85.2442 27.7287C85.3587 27.7287 85.4776 27.7375 85.6009 27.7551C85.7242 27.7639 85.8299 27.7771 85.918 27.7947V26.0508C85.7682 26.0068 85.6317 25.9848 85.5084 25.9848C85.2706 25.9848 85.0416 26.02 84.8214 26.0904C84.6012 26.1609 84.3943 26.2622 84.2005 26.3943C84.0067 26.5176 83.835 26.6717 83.6852 26.8567C83.5355 27.0329 83.4166 27.2266 83.3285 27.438H83.3021V26.1697H81.5186ZM87.2309 28.2703C87.2573 27.8299 87.3674 27.4644 87.5612 27.1738C87.755 26.8831 88.0016 26.6497 88.301 26.4736C88.6005 26.2974 88.9352 26.1741 89.3051 26.1037C89.6838 26.0244 90.0626 25.9848 90.4413 25.9848C90.7848 25.9848 91.1327 26.0112 91.485 26.064C91.8373 26.1081 92.1588 26.2005 92.4494 26.3415C92.7401 26.4824 92.9779 26.6806 93.1628 26.936C93.3478 27.1826 93.4403 27.5129 93.4403 27.9268V31.4807C93.4403 31.789 93.4579 32.084 93.4931 32.3659C93.5283 32.6477 93.59 32.8591 93.6781 33H91.7756C91.7404 32.8943 91.7096 32.7886 91.6832 32.6829C91.6655 32.5684 91.6523 32.4539 91.6435 32.3394C91.3441 32.6477 90.9918 32.8635 90.5866 32.9868C90.1815 33.1101 89.7675 33.1717 89.3447 33.1717C89.0189 33.1717 88.715 33.1321 88.4332 33.0528C88.1513 32.9736 87.9047 32.8503 87.6933 32.6829C87.4819 32.5156 87.3146 32.3042 87.1913 32.0488C87.0768 31.7934 87.0195 31.4895 87.0195 31.1372C87.0195 30.7497 87.0856 30.4326 87.2177 30.186C87.3586 29.9306 87.5348 29.728 87.7462 29.5783C87.9664 29.4285 88.213 29.3184 88.486 29.248C88.7678 29.1687 89.0497 29.107 89.3315 29.063C89.6134 29.019 89.8908 28.9837 90.1638 28.9573C90.4369 28.9309 90.6791 28.8913 90.8905 28.8384C91.1019 28.7856 91.2692 28.7107 91.3925 28.6138C91.5158 28.5081 91.5731 28.3584 91.5643 28.1646C91.5643 27.9621 91.529 27.8035 91.4586 27.689C91.3969 27.5657 91.3088 27.4732 91.1943 27.4116C91.0886 27.3411 90.9609 27.2971 90.8112 27.2795C90.6703 27.253 90.5161 27.2398 90.3488 27.2398C89.9789 27.2398 89.6882 27.3191 89.4769 27.4776C89.2655 27.6362 89.1422 27.9004 89.1069 28.2703H87.2309ZM91.5643 29.6575C91.485 29.728 91.3837 29.7852 91.2604 29.8293C91.1459 29.8645 91.0182 29.8953 90.8773 29.9217C90.7451 29.9482 90.6042 29.9702 90.4545 29.9878C90.3048 30.0054 90.155 30.0274 90.0053 30.0539C89.8644 30.0803 89.7235 30.1155 89.5825 30.1596C89.4504 30.2036 89.3315 30.2652 89.2258 30.3445C89.129 30.415 89.0497 30.5075 88.988 30.622C88.9264 30.7365 88.8956 30.8818 88.8956 31.0579C88.8956 31.2253 88.9264 31.3662 88.988 31.4807C89.0497 31.5952 89.1334 31.6877 89.239 31.7581C89.3447 31.8198 89.468 31.8638 89.609 31.8902C89.7499 31.9167 89.8952 31.9299 90.0449 31.9299C90.4149 31.9299 90.7011 31.8682 90.9037 31.7449C91.1063 31.6216 91.256 31.4763 91.3529 31.3089C91.4498 31.1328 91.507 30.9566 91.5246 30.7805C91.551 30.6043 91.5643 30.4634 91.5643 30.3577V29.6575ZM95.5921 26.1697V33H97.4682V29.0366C97.4682 28.7019 97.5166 28.4333 97.6135 28.2307C97.7104 28.0193 97.8249 27.8608 97.957 27.7551C98.0979 27.6406 98.2388 27.5657 98.3797 27.5305C98.5295 27.4865 98.6484 27.4644 98.7364 27.4644C99.0359 27.4644 99.2605 27.5173 99.4102 27.623C99.5688 27.7199 99.6789 27.852 99.7405 28.0193C99.811 28.1867 99.8506 28.3716 99.8594 28.5742C99.8682 28.768 99.8726 28.9661 99.8726 29.1687V33H101.749V29.1951C101.749 28.9837 101.762 28.7768 101.788 28.5742C101.824 28.3628 101.885 28.1778 101.973 28.0193C102.07 27.852 102.198 27.7199 102.356 27.623C102.524 27.5173 102.739 27.4644 103.004 27.4644C103.268 27.4644 103.475 27.5085 103.625 27.5965C103.783 27.6846 103.902 27.8035 103.981 27.9533C104.061 28.103 104.109 28.2791 104.127 28.4817C104.144 28.6843 104.153 28.9001 104.153 29.1291V33H106.029V28.4289C106.029 27.9885 105.967 27.6142 105.844 27.3059C105.721 26.9888 105.549 26.7334 105.329 26.5396C105.109 26.3459 104.845 26.2049 104.536 26.1169C104.228 26.0288 103.893 25.9848 103.532 25.9848C103.057 25.9848 102.643 26.0993 102.29 26.3283C101.947 26.5572 101.674 26.8215 101.471 27.1209C101.286 26.6982 101.013 26.4031 100.652 26.2358C100.3 26.0684 99.9079 25.9848 99.4763 25.9848C99.0271 25.9848 98.6263 26.0816 98.274 26.2754C97.9305 26.4692 97.6355 26.7422 97.3889 27.0945H97.3625V26.1697H95.5921Z" fill="#4D4D4D"/>
<rect width="40" height="40" fill="#EB1E28"/>
<rect x="10.6364" y="8.66663" width="2.75758" height="22.0606" fill="white"/>
<rect x="26" y="14.9697" width="2.75758" height="15.7576" fill="white"/>
<rect x="10.6364" y="28.3636" width="12.2121" height="2.36364" fill="white"/>
<circle cx="27.3788" cy="10.4394" r="1.77273" fill="white"/>
</g>
<defs>
<clipPath id="clip0">
<rect width="110" height="39" fill="white"/>
</clipPath>
</defs>
</svg>
