<?xml version="1.0" standalone="no"?><!DOCTYPE svg PUBLIC "-//W3C//DTD SVG 1.1//EN" "http://www.w3.org/Graphics/SVG/1.1/DTD/svg11.dtd" ><svg xmlns="http://www.w3.org/2000/svg"><metadata></metadata><defs><font id="Font Awesome 5 Free Solid-5.13.0" horiz-adv-x="640"><font-face font-family="Font Awesome 5 Free Solid" font-weight="900" font-stretch="normal" units-per-em="512" panose-1="2 0 5 3 0 0 0 0 0 0" ascent="448" descent="-64" x-height="0" bbox="-1 -68 640 453" underline-thickness="25" underline-position="-37" unicode-range="U+f00c-f7d9" /><missing-glyph horiz-adv-x="512"  /><glyph glyph-name="check" unicode="&#xf00c;" d="M174 9 l-167 166 q-7 7 -7 18 q0 11 7 18 l37 36 q7 8 17.5 8 q10.5 0 18.5 -8 l112 -112 l240 240 q8 8 18.5 8 q10.5 0 17.5 -8 l37 -36 q7 -7 7 -18 q0 -11 -7 -18 l-295 -294 q-7 -8 -18 -8 q-11 0 -18 8 Z" /><glyph glyph-name="volume-up" unicode="&#xf028;" d="M215 377 q11 11 26 5 q15 -6 15 -22 l0 -336 q0 -16 -15 -22 q-15 -6 -26 5 l-89 89 l-102 0 q-10 0 -17 7 q-7 7 -7 17 l0 144 q0 10 7 17 q7 7 17 7 l102 0 l89 89 ZM448 428 q60 -39 94 -102 q34 -63 34 -134 q0 -71 -34 -134 q-34 -63 -94 -102 q-8 -6 -18 -3.5 q-10 2.5 -15.5 10.5 q-5.5 8 -3.5 18 q2 10 11 15 q33 22 56.5 52.5 q23.5 30.5 36.5 67.5 q13 37 13 76 q0 59 -28.5 111 q-28.5 52 -77.5 85 q-9 5 -11 15 q-2 10 3.5 18 q5.5 8 15.5 10.5 q10 2.5 18 -3.5 ZM457.5 281.5 q22.5 -41.5 22.5 -89.5 q0 -48 -22.5 -89.5 q-22.5 -41.5 -63.5 -66.5 q-9 -6 -18.5 -3.5 q-9.5 2.5 -14.5 10.5 q-5 9 -3 18.5 q2 9.5 11 15.5 q19 12 33.5 30 q14.5 18 22 40 q7.5 22 7.5 45 q0 23 -7.5 45 q-7.5 22 -22 40 q-14.5 18 -33.5 30 q-9 6 -11 15.5 q-2 9.5 3 18 q5 8.5 15 11 q10 2.5 18 -3.5 q41 -25 63.5 -66.5 ZM338 269 q21 -12 33.5 -32.5 q12.5 -20.5 12.5 -44.5 q0 -24 -12.5 -44.5 q-12.5 -20.5 -33.5 -32.5 q-8 -5 -18 -2 q-10 3 -14.5 11.5 q-4.5 8.5 -2 18 q2.5 9.5 11.5 14.5 q21 12 21 35 q0 23 -21 35 q-9 5 -11.5 14.5 q-2.5 9.5 2 18 q4.5 8.5 14.5 11.5 q10 3 18 -2 Z" /><glyph glyph-name="arrow-right" unicode="&#xf061;" d="M190 381 l23 22 q7 7 17 7 q10 0 17 -7 l194 -194 q7 -7 7 -17 q0 -10 -7 -17 l-194 -194 q-7 -7 -17 -7 q-10 0 -17 7 l-23 22 q-7 7 -6.5 17 q0.5 10 7.5 17 l120 115 l-287 0 q-10 0 -17 7 q-7 7 -7 17 l0 32 q0 10 7 17 q7 7 17 7 l287 0 l-120 115 q-7 7 -7.5 17 q-0.5 10 6.5 17 Z" /><glyph glyph-name="arrow-up" unicode="&#xf062;" d="M35 158 l-22 23 q-7 7 -7 17 q0 10 7 17 l194 194 q7 7 17 7 q10 0 17 -7 l194 -194 q7 -7 7 -17 q0 -10 -7 -17 l-22 -22 q-7 -8 -17 -7.5 q-10 0.5 -17 7.5 l-115 120 l0 -287 q0 -10 -7 -17 q-7 -7 -17 -7 l-32 0 q-10 0 -17 7 q-7 7 -7 17 l0 287 l-115 -120 q-7 -7 -17 -7.5 q-10 -0.5 -17 6.5 Z" /><glyph glyph-name="arrow-down" unicode="&#xf063;" d="M413 226 l22 -23 q7 -7 7 -17 q0 -10 -7 -17 l-194 -194 q-7 -7 -17 -7 q-10 0 -17 7 l-194 194 q-7 7 -7 17 q0 10 7 17 l22 23 q7 7 17 6.5 q10 -0.5 17 -7.5 l115 -120 l0 287 q0 10 7 17 q7 7 17 7 l32 0 q10 0 17 -7 q7 -7 7 -17 l0 -287 l115 120 q7 7 17 7.5 q10 0.5 17 -6.5 Z" /><glyph glyph-name="eye" unicode="&#xf06e;" d="M573 207 q3 -7 3 -15 q0 -8 -3 -15 q-42 -80 -118 -128.5 q-76 -48.5 -167 -48.5 q-60 0 -115.5 22.5 q-55.5 22.5 -98.5 62 q-43 39.5 -71 92.5 q-3 7 -3 15 q0 8 3 15 q42 80 118 128.5 q76 48.5 167 48.5 q91 0 167 -48.5 q76 -48.5 118 -128.5 ZM288 48 q60 0 102 42 q42 42 42 102 q0 60 -42 102 q-42 42 -102 42 q-60 0 -102 -42 q-42 -42 -42 -102 q0 -60 42 -102 q42 -42 102 -42 ZM288 288 q40 0 68 -28 q28 -28 28 -67.5 q0 -39.5 -28 -68 q-28 -28.5 -67.5 -28.5 q-39.5 0 -68 28.5 q-28.5 28.5 -28.5 67.5 q0 13 4 25 q12 -9 28 -9 q20 0 34 14 q14 14 14 34 q0 16 -9 28 q12 4 25 4 Z" /><glyph glyph-name="calendar-alt" unicode="&#xf073;" d="M0 -16 l0 272 l448 0 l0 -272 q0 -20 -14 -34 q-14 -14 -34 -14 l-352 0 q-20 0 -34 14 q-14 14 -14 34 ZM320 180 l0 -40 q0 -12 12 -12 l40 0 q12 0 12 12 l0 40 q0 12 -12 12 l-40 0 q-12 0 -12 -12 ZM320 52 l0 -40 q0 -12 12 -12 l40 0 q12 0 12 12 l0 40 q0 12 -12 12 l-40 0 q-12 0 -12 -12 ZM192 180 l0 -40 q0 -12 12 -12 l40 0 q12 0 12 12 l0 40 q0 12 -12 12 l-40 0 q-12 0 -12 -12 ZM192 52 l0 -40 q0 -12 12 -12 l40 0 q12 0 12 12 l0 40 q0 12 -12 12 l-40 0 q-12 0 -12 -12 ZM64 180 l0 -40 q0 -12 12 -12 l40 0 q12 0 12 12 l0 40 q0 12 -12 12 l-40 0 q-12 0 -12 -12 ZM64 52 l0 -40 q0 -12 12 -12 l40 0 q12 0 12 12 l0 40 q0 12 -12 12 l-40 0 q-12 0 -12 -12 ZM400 384 q20 0 34 -14 q14 -14 14 -34 l0 -48 l-448 0 l0 48 q0 20 14 34 q14 14 34 14 l48 0 l0 48 q0 7 4.5 11.5 q4.5 4.5 11.5 4.5 l32 0 q7 0 11.5 -4.5 q4.5 -4.5 4.5 -11.5 l0 -48 l128 0 l0 48 q0 7 4.5 11.5 q4.5 4.5 11.5 4.5 l32 0 q7 0 11.5 -4.5 q4.5 -4.5 4.5 -11.5 l0 -48 l48 0 Z" /><glyph glyph-name="chevron-up" unicode="&#xf077;" d="M241 317 l194 -194 q7 -7 7 -17 q0 -10 -7 -17 l-22 -22 q-7 -7 -17 -7.5 q-10 -0.5 -17 6.5 l-155 155 l-155 -155 q-7 -7 -17 -6.5 q-10 0.5 -17 7.5 l-22 22 q-7 7 -7 17 q0 10 7 17 l194 194 q7 8 17 8 q10 0 17 -8 Z" /><glyph glyph-name="copy" unicode="&#xf0c5;" d="M320 0 l0 -40 q0 -10 -7 -17 q-7 -7 -17 -7 l-272 0 q-10 0 -17 7 q-7 7 -7 17 l0 368 q0 10 7 17 q7 7 17 7 l72 0 l0 -296 q0 -23 16.5 -39.5 q16.5 -16.5 39.5 -16.5 l168 0 ZM320 344 q0 -10 7 -17 q7 -7 17 -7 l104 0 l0 -264 q0 -10 -7 -17 q-7 -7 -17 -7 l-272 0 q-10 0 -17 7 q-7 7 -7 17 l0 368 q0 10 7 17 q7 7 17 7 l168 0 l0 -104 ZM441 375 q7 -7 7 -17 l0 -6 l-96 0 l0 96 l6 0 q10 0 17 -7 l66 -66 Z" /><glyph glyph-name="bars" unicode="&#xf0c9;" d="M16 316 q-7 0 -11.5 4.5 q-4.5 4.5 -4.5 11.5 l0 40 q0 7 4.5 11.5 q4.5 4.5 11.5 4.5 l416 0 q7 0 11.5 -4.5 q4.5 -4.5 4.5 -11.5 l0 -40 q0 -7 -4.5 -11.5 q-4.5 -4.5 -11.5 -4.5 l-416 0 ZM16 156 q-7 0 -11.5 4.5 q-4.5 4.5 -4.5 11.5 l0 40 q0 7 4.5 11.5 q4.5 4.5 11.5 4.5 l416 0 q7 0 11.5 -4.5 q4.5 -4.5 4.5 -11.5 l0 -40 q0 -7 -4.5 -11.5 q-4.5 -4.5 -11.5 -4.5 l-416 0 ZM16 -4 q-7 0 -11.5 4.5 q-4.5 4.5 -4.5 11.5 l0 40 q0 7 4.5 11.5 q4.5 4.5 11.5 4.5 l416 0 q7 0 11.5 -4.5 q4.5 -4.5 4.5 -11.5 l0 -40 q0 -7 -4.5 -11.5 q-4.5 -4.5 -11.5 -4.5 l-416 0 Z" /><glyph glyph-name="code-branch" unicode="&#xf126;" d="M384 304 q0 -26 -15 -47 q-15 -21 -39 -29 q-1 -42 -22 -68 q-13 -16 -35.5 -25.5 q-22.5 -9.5 -38.5 -12.5 q-16 -3 -44 -5 q-50 -5 -66 -13 q-10 -5 -15 -13 q23 -9 37 -29.5 q14 -20.5 14 -45.5 q0 -33 -23.5 -56.5 q-23.5 -23.5 -56.5 -23.5 q-33 0 -56.5 23.5 q-23.5 23.5 -23.5 56.5 q0 18 7 33.5 q7 15.5 20 26.5 q13 11 29 16 l0 200 q-25 7 -40.5 28 q-15.5 21 -15.5 48 q0 33 23.5 56.5 q23.5 23.5 56.5 23.5 q33 0 56.5 -23.5 q23.5 -23.5 23.5 -56.5 q0 -27 -15.5 -48 q-15.5 -21 -40.5 -28 l0 -144 q24 11 81 17 q24 2 36 3.5 q12 1.5 27 7 q15 5.5 22 14.5 q11 13 12 37 q-17 5 -30 16 q-13 11 -20.5 27 q-7.5 16 -7.5 34 q0 33 23.5 56.5 q23.5 23.5 56.5 23.5 q33 0 56.5 -23.5 q23.5 -23.5 23.5 -56.5 ZM91.5 379.5 q-4.5 4.5 -11.5 4.5 q-7 0 -11.5 -4.5 q-4.5 -4.5 -4.5 -11.5 q0 -7 4.5 -11.5 q4.5 -4.5 11.5 -4.5 q7 0 11.5 4.5 q4.5 4.5 4.5 11.5 q0 7 -4.5 11.5 ZM68.5 4.5 q4.5 -4.5 11.5 -4.5 q7 0 11.5 4.5 q4.5 4.5 4.5 11.5 q0 7 -4.5 11.5 q-4.5 4.5 -11.5 4.5 q-7 0 -11.5 -4.5 q-4.5 -4.5 -4.5 -11.5 q0 -7 4.5 -11.5 ZM315.5 315.5 q-4.5 4.5 -11.5 4.5 q-7 0 -11.5 -4.5 q-4.5 -4.5 -4.5 -11.5 q0 -7 4.5 -11.5 q4.5 -4.5 11.5 -4.5 q7 0 11.5 4.5 q4.5 4.5 4.5 11.5 q0 7 -4.5 11.5 Z" /><glyph glyph-name="check-square" unicode="&#xf14a;" d="M400 -32 l-352 0 q-20 0 -34 14 q-14 14 -14 34 l0 352 q0 20 14 34 q14 14 34 14 l352 0 q20 0 34 -14 q14 -14 14 -34 l0 -352 q0 -20 -14 -34 q-14 -14 -34 -14 ZM195 66 l184 184 q12 11 0 23 l-22 22 q-12 12 -23 0 l-150 -150 l-70 70 q-11 12 -23 0 l-22 -22 q-12 -12 0 -23 l104 -104 q11 -11 22 0 Z" /><glyph glyph-name="thumbs-up" unicode="&#xf164;" d="M104 224 q10 0 17 -7 q7 -7 7 -17 l0 -240 q0 -10 -7 -17 q-7 -7 -17 -7 l-80 0 q-10 0 -17 7 q-7 7 -7 17 l0 240 q0 10 7 17 q7 7 17 7 l80 0 ZM47 -17 q7 -7 17 -7 q10 0 17 7 q7 7 7 17 q0 10 -7 17 q-7 7 -17 7 q-10 0 -17 -7 q-7 -7 -7 -17 q0 -10 7 -17 ZM384 367 q0 -25 -16 -56.5 q-16 -31.5 -17 -38.5 l101 0 q25 0 42.5 -17.5 q17.5 -17.5 17.5 -40.5 q0 -30 -19 -49 l-1 0 q8 -17 6 -40 q-2 -23 -15 -40 q6 -20 1 -40.5 q-5 -20.5 -17 -34.5 q6 -26 -6 -44 q-10 -14 -31 -21 q-21 -7 -37.5 -8 q-16.5 -1 -45.5 -1 l-3 0 q-48 0 -120 32 q-35 16 -52 16 q-5 0 -8.5 3.5 q-3.5 3.5 -3.5 8.5 l0 214 q0 5 4 8 q20 21 46.5 59.5 q26.5 38.5 42.5 53.5 q14 15 25 59 q14 58 34 58 q11 0 21.5 -2.5 q10.5 -2.5 23 -10 q12.5 -7.5 20 -25.5 q7.5 -18 7.5 -43 Z" /><glyph glyph-name="database" unicode="&#xf1c0;" d="M448 375 l0 -46 q0 -30 -65.5 -51.5 q-65.5 -21.5 -158.5 -21.5 q-61 0 -112.5 10 q-51.5 10 -81.5 26.5 q-30 16.5 -30 36.5 l0 46 q0 30 65.5 51.5 q65.5 21.5 158.5 21.5 q61 0 112.5 -10 q51.5 -10 81.5 -26.5 q30 -16.5 30 -36.5 ZM448 272 l0 -103 q0 -30 -65.5 -51.5 q-65.5 -21.5 -158.5 -21.5 q-93 0 -158.5 21.5 q-65.5 21.5 -65.5 51.5 l0 103 q71 -49 224 -49 q153 0 224 49 ZM448 112 l0 -103 q0 -30 -65.5 -51.5 q-65.5 -21.5 -158.5 -21.5 q-93 0 -158.5 21.5 q-65.5 21.5 -65.5 51.5 l0 103 q71 -49 224 -49 q153 0 224 49 Z" /><glyph glyph-name="chart-line" unicode="&#xf201;" d="M496 64 q7 0 11.5 -4.5 q4.5 -4.5 4.5 -11.5 l0 -32 q0 -7 -4.5 -11.5 q-4.5 -4.5 -11.5 -4.5 l-464 0 q-13 0 -22.5 9.5 q-9.5 9.5 -9.5 22.5 l0 336 q0 7 4.5 11.5 q4.5 4.5 11.5 4.5 l32 0 q7 0 11.5 -4.5 q4.5 -4.5 4.5 -11.5 l0 -304 l432 0 ZM464 352 q7 0 11.5 -4.5 q4.5 -4.5 4.5 -11.5 l0 -118 q0 -16 -15 -22 q-15 -6 -26 5 l-32 32 l-96 -96 q-10 -9 -23 -9 q-13 0 -23 9 l-73 74 l-46 -46 q-11 -12 -23 0 l-22 22 q-12 12 0 23 l68 69 q10 9 23 9 q13 0 23 -9 l73 -74 l73 74 l-32 32 q-11 11 -5 26 q6 15 22 15 l118 0 Z" /><glyph glyph-name="server" unicode="&#xf233;" d="M480 288 l-448 0 q-13 0 -22.5 9.5 q-9.5 9.5 -9.5 22.5 l0 64 q0 13 9.5 22.5 q9.5 9.5 22.5 9.5 l448 0 q13 0 22.5 -9.5 q9.5 -9.5 9.5 -22.5 l0 -64 q0 -13 -9.5 -22.5 q-9.5 -9.5 -22.5 -9.5 ZM449 369 q-7 7 -17 7 q-10 0 -17 -7 q-7 -7 -7 -17 q0 -10 7 -17 q7 -7 17 -7 q10 0 17 7 q7 7 7 17 q0 10 -7 17 ZM385 369 q-7 7 -17 7 q-10 0 -17 -7 q-7 -7 -7 -17 q0 -10 7 -17 q7 -7 17 -7 q10 0 17 7 q7 7 7 17 q0 10 -7 17 ZM480 128 l-448 0 q-13 0 -22.5 9.5 q-9.5 9.5 -9.5 22.5 l0 64 q0 13 9.5 22.5 q9.5 9.5 22.5 9.5 l448 0 q13 0 22.5 -9.5 q9.5 -9.5 9.5 -22.5 l0 -64 q0 -13 -9.5 -22.5 q-9.5 -9.5 -22.5 -9.5 ZM449 209 q-7 7 -17 7 q-10 0 -17 -7 q-7 -7 -7 -17 q0 -10 7 -17 q7 -7 17 -7 q10 0 17 7 q7 7 7 17 q0 10 -7 17 ZM385 209 q-7 7 -17 7 q-10 0 -17 -7 q-7 -7 -7 -17 q0 -10 7 -17 q7 -7 17 -7 q10 0 17 7 q7 7 7 17 q0 10 -7 17 ZM480 -32 l-448 0 q-13 0 -22.5 9.5 q-9.5 9.5 -9.5 22.5 l0 64 q0 13 9.5 22.5 q9.5 9.5 22.5 9.5 l448 0 q13 0 22.5 -9.5 q9.5 -9.5 9.5 -22.5 l0 -64 q0 -13 -9.5 -22.5 q-9.5 -9.5 -22.5 -9.5 ZM449 49 q-7 7 -17 7 q-10 0 -17 -7 q-7 -7 -7 -17 q0 -10 7 -17 q7 -7 17 -7 q10 0 17 7 q7 7 7 17 q0 10 -7 17 ZM385 49 q-7 7 -17 7 q-10 0 -17 -7 q-7 -7 -7 -17 q0 -10 7 -17 q7 -7 17 -7 q10 0 17 7 q7 7 7 17 q0 10 -7 17 Z" /><glyph glyph-name="user-circle" unicode="&#xf2bd;" d="M72.5 367.5 q72.5 72.5 175.5 72.5 q103 0 175.5 -72.5 q72.5 -72.5 72.5 -175.5 q0 -103 -72.5 -175.5 q-72.5 -72.5 -175.5 -72.5 q-103 0 -175.5 72.5 q-72.5 72.5 -72.5 175.5 q0 103 72.5 175.5 ZM310 318 q-26 26 -62 26 q-36 0 -62 -26 q-26 -26 -26 -62 q0 -36 26 -62 q26 -26 62 -26 q36 0 62 26 q26 26 26 62 q0 36 -26 62 ZM102 68 q57 -68 146 -68 q89 0 146 68 q-14 27 -40 43.5 q-26 16.5 -58 16.5 q-3 0 -7 -1 q-21 -7 -41 -7 q-20 0 -41 7 q-4 1 -7 1 q-32 0 -58 -16.5 q-26 -16.5 -40 -43.5 Z" /><glyph glyph-name="long-arrow-alt-right" unicode="&#xf30b;" d="M314 232 l0 46 q0 16 15 22 q15 6 26 -5 l86 -86 q5 -5 6.5 -11 q1.5 -6 0 -12 q-1.5 -6 -6.5 -11 l-86 -86 q-11 -11 -26 -5 q-15 6 -15 22 l0 46 l-302 0 q-12 0 -12 12 l0 56 q0 12 12 12 l302 0 Z" /><glyph glyph-name="arrow-alt-circle-right" unicode="&#xf35a;" d="M80.5 367.5 q72.5 72.5 175.5 72.5 q103 0 175.5 -72.5 q72.5 -72.5 72.5 -175.5 q0 -103 -72.5 -175.5 q-72.5 -72.5 -175.5 -72.5 q-103 0 -175.5 72.5 q-72.5 72.5 -72.5 175.5 q0 103 72.5 175.5 ZM140 148 l116 0 l0 -71 q0 -8 7.5 -11 q7.5 -3 12.5 3 l115 115 q8 8 0 16 l-115 115 q-5 6 -12.5 3 q-7.5 -3 -7.5 -11 l0 -71 l-116 0 q-12 0 -12 -12 l0 -64 q0 -12 12 -12 Z" /><glyph glyph-name="external-link-alt" unicode="&#xf35d;" d="M432 128 q7 0 11.5 -4.5 q4.5 -4.5 4.5 -11.5 l0 -128 q0 -20 -14 -34 q-14 -14 -34 -14 l-352 0 q-20 0 -34 14 q-14 14 -14 34 l0 352 q0 20 14 34 q14 14 34 14 l160 0 q7 0 11.5 -4.5 q4.5 -4.5 4.5 -11.5 l0 -32 q0 -7 -4.5 -11.5 q-4.5 -4.5 -11.5 -4.5 l-144 0 l0 -320 l320 0 l0 112 q0 7 4.5 11.5 q4.5 4.5 11.5 4.5 l32 0 ZM488 448 q10 0 17 -7 q7 -7 7 -17 l0 -128 q0 -16 -15 -22 q-15 -6 -26 5 l-36 36 l-243 -244 q-7 -7 -17 -7 q-10 0 -17 7 l-23 23 q-7 7 -7 17 q0 10 7 17 l244 243 l-36 36 q-11 11 -5 26 q6 15 22 15 l128 0 Z" /><glyph glyph-name="shield-alt" unicode="&#xf3ed;" d="M466 364 q14 -5 22 -17 q8 -12 8 -27 q0 -63 -15 -120.5 q-15 -57.5 -38 -99 q-23 -41.5 -53.5 -75 q-30.5 -33.5 -59 -54 q-28.5 -20.5 -56.5 -31.5 q-18 -8 -36 0 q-42 17 -80.5 50.5 q-38.5 33.5 -70.5 81 q-32 47.5 -51.5 112.5 q-19.5 65 -19.5 136 q0 6 1.5 11.5 q1.5 5.5 4 10.5 q2.5 5 6 9 q3.5 4 8 7.5 q4.5 3.5 10.5 5.5 l192 80 q8 4 18 4 q10 0 18 -4 l192 -80 ZM256 2 q75 37 124.5 118 q49.5 81 51.5 189 l-176 74 l0 -381 Z" /><glyph glyph-name="chalkboard-teacher" unicode="&#xf51c;" d="M208 96 q47 0 79.5 -33 q32.5 -33 32.5 -80 q0 -19 -14 -33 q-14 -14 -34 -14 l-224 0 q-20 0 -34 14 q-14 14 -14 33 q0 47 32.5 80 q32.5 33 79.5 33 q4 0 7 -1 q21 -7 41 -7 q20 0 41 7 q3 1 7 1 ZM228 156 q-28 -28 -68 -28 q-40 0 -68 28 q-28 28 -28 68 q0 40 28 68 q28 28 68 28 q40 0 68 -28 q28 -28 28 -68 q0 -40 -28 -68 ZM592 448 q20 0 34 -14.5 q14 -14.5 14 -35.5 l0 -316 q0 -21 -14 -35.5 q-14 -14.5 -34 -14.5 l-245 0 q-9 38 -39 64 l76 0 l0 64 l128 0 l0 -64 l64 0 l0 288 l-352 0 l0 -50 q-31 18 -64 18 l0 46 q0 21 14 35.5 q14 14.5 34 14.5 l384 0 Z" /><glyph glyph-name="stream" unicode="&#xf550;" d="M16 320 q-7 0 -11.5 4.5 q-4.5 4.5 -4.5 11.5 l0 64 q0 7 4.5 11.5 q4.5 4.5 11.5 4.5 l416 0 q7 0 11.5 -4.5 q4.5 -4.5 4.5 -11.5 l0 -64 q0 -7 -4.5 -11.5 q-4.5 -4.5 -11.5 -4.5 l-416 0 ZM496 240 q7 0 11.5 -4.5 q4.5 -4.5 4.5 -11.5 l0 -64 q0 -7 -4.5 -11.5 q-4.5 -4.5 -11.5 -4.5 l-416 0 q-7 0 -11.5 4.5 q-4.5 4.5 -4.5 11.5 l0 64 q0 7 4.5 11.5 q4.5 4.5 11.5 4.5 l416 0 ZM432 64 q7 0 11.5 -4.5 q4.5 -4.5 4.5 -11.5 l0 -64 q0 -7 -4.5 -11.5 q-4.5 -4.5 -11.5 -4.5 l-416 0 q-7 0 -11.5 4.5 q-4.5 4.5 -4.5 11.5 l0 64 q0 7 4.5 11.5 q4.5 4.5 11.5 4.5 l416 0 Z" /><glyph glyph-name="globe-americas" unicode="&#xf57d;" d="M72.5 367.5 q72.5 72.5 175.5 72.5 q103 0 175.5 -72.5 q72.5 -72.5 72.5 -175.5 q0 -103 -72.5 -175.5 q-72.5 -72.5 -175.5 -72.5 q-103 0 -175.5 72.5 q-72.5 72.5 -72.5 175.5 q0 103 72.5 175.5 ZM330 82 q14 14 14 33 q0 13 -9 22 l-14 14 q-9 9 -22 9 l-67 0 q-4 2 -15 17 q-11 15 -17 15 q-16 0 -30 7 l-11 6 q-7 3 -7 10 q0 9 8 12 l31 10 q3 1 5 1 q6 0 11 -4 l9 -8 q2 -2 5 -2 l6 0 q5 0 7 4 q2 4 0 8 l-15 31 q-1 1 -1 3 q0 4 2 6 l10 10 q2 2 6 2 l9 0 q3 0 5 2 l8 8 q6 6 0 12 l-4 4 q-6 6 0 12 l10 10 l5 5 q11 11 0 22 l-29 29 q-12 -1 -24 -3 l0 -11 q0 -9 -7.5 -13.5 q-7.5 -4.5 -15.5 -0.5 l-24 12 q-71 -31 -103 -102 q25 -38 34 -51 q8 -12 18 -21 l1 -1 q15 -13 32 -22 q18 -9 49 -26 q16 -9 16 -28 l0 -32 q0 -13 9 -22 q11 -11 17.5 -26.5 q6.5 -15.5 5.5 -25.5 l0 -27 q21 0 43 5 l17 47 q1 2 5 16 q1 7 6 11 q3 3 11 11 ZM417 174 l29 -8 q2 15 2 26 q0 47 -21 89 l-13 -6 q-6 -3 -10 -8 l-19 -30 q-4 -6 -4 -13 q0 -7 4 -13 l18 -27 q5 -8 14 -10 Z" /><glyph glyph-name="tools" unicode="&#xf7d9;" d="M501 52 q11 -11 11 -26 q0 -15 -11 -26 l-53 -53 q-10 -11 -25.5 -11 q-15.5 0 -26.5 11 l-117 117 q-17 17 -21 41 q-4 24 7 44 l-107 107 l-62 0 l-96 128 l64 64 l128 -96 l0 -62 l107 -107 q20 11 44 7 q24 -4 41 -21 l117 -117 ZM332 223 q-13 0 -25 -3 l-82 82 q-1 61 41 104 q27 27 63.5 37 q36.5 10 73.5 1 q7 -2 8.5 -9 q1.5 -7 -3.5 -11 l-74 -75 l11 -68 l68 -11 l75 74 q5 5 11.5 3.5 q6.5 -1.5 8.5 -8.5 q9 -36 -1 -73 q-10 -37 -37 -64 q-19 -18 -44 -29 l-19 19 q-31 31 -75 31 ZM228 141 q-7 -31 5 -63 l-124 -123 q-19 -19 -45.5 -19 q-26.5 0 -45 18.5 q-18.5 18.5 -18.5 45 q0 26.5 19 45.5 l152 153 l57 -57 ZM47 -17 q7 -7 17 -7 q10 0 17 7 q7 7 7 17 q0 10 -7 17 q-7 7 -17 7 q-10 0 -17 -7 q-7 -7 -7 -17 q0 -10 7 -17 Z" /></font>
</defs>
</svg>
